<?xml version="1.0" encoding="utf-8"?>
<!-- Generator: Adobe Illustrator 16.0.4, SVG Export Plug-In . SVG Version: 6.00 Build 0)  -->
<!DOCTYPE svg PUBLIC "-//W3C//DTD SVG 1.1//EN" "http://www.w3.org/Graphics/SVG/1.1/DTD/svg11.dtd">
<svg version="1.1" id="Слой_1" xmlns="http://www.w3.org/2000/svg" xmlns:xlink="http://www.w3.org/1999/xlink" x="0px" y="0px"
	 width="54px" height="864px" viewBox="0 0 54 864" enable-background="new 0 0 54 864" xml:space="preserve">
<g>
	<defs>
		<rect id="SVGID_1_" width="54" height="864"/>
	</defs>
	<clipPath id="SVGID_2_">
		<use xlink:href="#SVGID_1_"  overflow="visible"/>
	</clipPath>
	<path clip-path="url(#SVGID_2_)" fill="#BBBBBB" d="M3.375,28.688c0.933,0,1.688-0.755,1.688-1.687
		c0-0.934-0.756-1.688-1.688-1.688s-1.687,0.755-1.687,1.688C1.688,27.933,2.442,28.688,3.375,28.688 M50.625,25.312
		c-0.933,0-1.688,0.755-1.688,1.688c0,0.932,0.755,1.687,1.688,1.687c0.934,0,1.688-0.755,1.688-1.687
		C52.312,26.067,51.559,25.312,50.625,25.312 M27,53.999c-14.911,0-27-12.089-27-26.998C0,12.09,12.089,0,27,0
		c14.912,0,27,12.09,27,27.001C54,41.91,41.912,53.999,27,53.999 M27,5.062c0.934,0,1.688-0.755,1.688-1.688S27.934,1.688,27,1.688
		c-0.933,0-1.687,0.755-1.687,1.688S26.067,5.062,27,5.062 M6.999,23.836c-1.745,11.03,5.809,21.422,16.838,23.166
		c11.03,1.743,21.421-5.81,23.165-16.839c1.744-11.03-5.809-21.421-16.838-23.165C19.134,5.254,8.743,12.808,6.999,23.836
		 M27,52.312c0.934,0,1.688-0.755,1.688-1.687c0-0.934-0.754-1.688-1.688-1.688c-0.933,0-1.687,0.755-1.687,1.688
		C25.313,51.558,26.067,52.312,27,52.312"/>
	<path clip-path="url(#SVGID_2_)" fill="#186FC2" d="M29.865,28.674l3.893-0.018l-6.68,15.217l-6.819-15.155l3.893-0.018
		c0.594,0.988,1.629,1.68,2.864,1.674C28.252,30.369,29.282,29.669,29.865,28.674"/>
	<path clip-path="url(#SVGID_2_)" fill="#EC001B" d="M26.984,23.625c1.236-0.006,2.273,0.685,2.865,1.674l3.893-0.018l-6.819-15.154
		l-6.68,15.217l3.893-0.019C24.718,24.33,25.749,23.631,26.984,23.625"/>
	<path clip-path="url(#SVGID_2_)" fill="#BBBBBB" d="M28.688,104.625c0-0.933-0.755-1.688-1.687-1.688
		c-0.934,0-1.688,0.755-1.688,1.688s0.755,1.687,1.688,1.687C27.933,106.312,28.688,105.558,28.688,104.625 M25.312,57.375
		c0,0.933,0.755,1.688,1.688,1.688c0.932,0,1.687-0.755,1.687-1.688s-0.755-1.687-1.687-1.687
		C26.067,55.688,25.312,56.442,25.312,57.375 M53.999,81c0,14.911-12.089,27-26.998,27C12.089,108,0,95.911,0,81s12.09-27,27.001-27
		C41.91,54,53.999,66.089,53.999,81 M5.062,81c0-0.933-0.755-1.687-1.688-1.687c-0.932,0-1.687,0.754-1.687,1.687
		s0.755,1.687,1.687,1.687C4.308,82.687,5.062,81.933,5.062,81 M23.836,101.001c11.03,1.745,21.421-5.808,23.166-16.838
		c1.743-11.029-5.81-21.42-16.839-23.164c-11.03-1.745-21.42,5.808-23.165,16.838C5.254,88.866,12.808,99.257,23.836,101.001
		 M52.312,81c0-0.933-0.755-1.687-1.687-1.687c-0.934,0-1.688,0.754-1.688,1.687s0.755,1.687,1.688,1.687
		C51.558,82.687,52.312,81.933,52.312,81"/>
	<path clip-path="url(#SVGID_2_)" fill="#186FC2" d="M28.949,83.684l3.572,1.549L20.286,96.479l-0.149-16.617l3.571,1.548
		c0.146,1.143,0.817,2.193,1.951,2.684C26.79,84.586,28.016,84.36,28.949,83.684"/>
	<path clip-path="url(#SVGID_2_)" fill="#EC001B" d="M28.344,77.903c1.133,0.491,1.805,1.541,1.949,2.686l3.57,1.548l-0.148-16.618
		L21.479,76.765l3.571,1.549C25.984,77.638,27.21,77.411,28.344,77.903"/>
	<path clip-path="url(#SVGID_2_)" fill="#BBBBBB" d="M28.688,158.625c0-0.933-0.755-1.688-1.687-1.688
		c-0.934,0-1.688,0.755-1.688,1.688s0.755,1.687,1.688,1.687C27.933,160.312,28.688,159.558,28.688,158.625 M25.312,111.375
		c0,0.933,0.755,1.688,1.688,1.688c0.932,0,1.687-0.755,1.687-1.688s-0.755-1.687-1.687-1.687
		C26.067,109.688,25.312,110.442,25.312,111.375 M53.999,135c0,14.911-12.089,27-26.998,27C12.089,162,0,149.911,0,135
		s12.09-27,27.001-27C41.91,108,53.999,120.089,53.999,135 M5.062,135c0-0.933-0.755-1.687-1.688-1.687
		c-0.932,0-1.687,0.754-1.687,1.687s0.755,1.687,1.687,1.687C4.308,136.687,5.062,135.933,5.062,135 M23.836,155.001
		c11.03,1.745,21.421-5.808,23.166-16.838c1.743-11.029-5.81-21.42-16.839-23.164c-11.03-1.745-21.42,5.808-23.165,16.838
		C5.254,142.866,12.808,153.257,23.836,155.001 M52.312,135c0-0.933-0.755-1.687-1.687-1.687c-0.934,0-1.688,0.754-1.688,1.687
		s0.755,1.687,1.688,1.687C51.558,136.687,52.312,135.933,52.312,135"/>
	<path clip-path="url(#SVGID_2_)" fill="#186FC2" d="M27.813,138.216l2.742,2.763l-15.535,5.904l6.028-15.487l2.741,2.764
		c-0.288,1.115-0.057,2.34,0.813,3.216C25.474,138.253,26.694,138.499,27.813,138.216"/>
	<path clip-path="url(#SVGID_2_)" fill="#EC001B" d="M29.396,132.623c0.869,0.877,1.105,2.101,0.814,3.217l2.74,2.764l6.029-15.487
		l-15.535,5.902l2.74,2.764C27.304,131.501,28.525,131.745,29.396,132.623"/>
	<path clip-path="url(#SVGID_2_)" fill="#BBBBBB" d="M28.688,212.625c0-0.933-0.755-1.688-1.687-1.688
		c-0.934,0-1.688,0.755-1.688,1.688s0.755,1.687,1.688,1.687C27.933,214.312,28.688,213.558,28.688,212.625 M25.312,165.375
		c0,0.933,0.755,1.688,1.688,1.688c0.932,0,1.687-0.755,1.687-1.688s-0.755-1.687-1.687-1.687
		C26.067,163.688,25.312,164.442,25.312,165.375 M53.999,189c0,14.911-12.089,27-26.998,27C12.089,216,0,203.911,0,189
		s12.09-27,27.001-27C41.91,162,53.999,174.089,53.999,189 M5.062,189c0-0.933-0.755-1.687-1.688-1.687
		c-0.932,0-1.687,0.754-1.687,1.687s0.755,1.687,1.687,1.687C4.308,190.687,5.062,189.933,5.062,189 M23.836,209.001
		c11.03,1.745,21.421-5.808,23.166-16.838c1.743-11.029-5.81-21.42-16.839-23.164c-11.03-1.745-21.42,5.808-23.165,16.838
		C5.254,196.866,12.808,207.257,23.836,209.001 M52.312,189c0-0.933-0.755-1.687-1.687-1.687c-0.934,0-1.688,0.754-1.688,1.687
		s0.755,1.687,1.688,1.687C51.558,190.687,52.312,189.933,52.312,189"/>
	<path clip-path="url(#SVGID_2_)" fill="#186FC2" d="M26.569,192.29l1.527,3.58l-16.616-0.249L22.8,183.455l1.527,3.58
		c-0.679,0.93-0.915,2.153-0.431,3.289C24.381,191.46,25.426,192.139,26.569,192.29"/>
	<path clip-path="url(#SVGID_2_)" fill="#EC001B" d="M30.104,187.676c0.484,1.136,0.253,2.359-0.431,3.289l1.527,3.58l11.32-12.167
		l-16.617-0.248l1.527,3.58C28.574,185.859,29.62,186.539,30.104,187.676"/>
	<path clip-path="url(#SVGID_2_)" fill="#BBBBBB" d="M28.688,266.625c0-0.933-0.755-1.688-1.687-1.688
		c-0.934,0-1.688,0.755-1.688,1.688s0.755,1.687,1.688,1.687C27.933,268.312,28.688,267.558,28.688,266.625 M25.312,219.375
		c0,0.933,0.755,1.688,1.688,1.688c0.932,0,1.687-0.755,1.687-1.688s-0.755-1.687-1.687-1.687
		C26.067,217.688,25.312,218.442,25.312,219.375 M53.999,243c0,14.911-12.089,27-26.998,27C12.089,270,0,257.911,0,243
		s12.09-27,27.001-27C41.91,216,53.999,228.089,53.999,243 M5.062,243c0-0.933-0.755-1.687-1.688-1.687
		c-0.932,0-1.687,0.754-1.687,1.687s0.755,1.687,1.687,1.687C4.308,244.687,5.062,243.933,5.062,243 M23.836,263.001
		c11.03,1.745,21.421-5.808,23.166-16.838c1.743-11.029-5.81-21.42-16.839-23.164c-11.03-1.745-21.42,5.808-23.165,16.838
		C5.254,250.866,12.808,261.257,23.836,263.001 M52.312,243c0-0.933-0.755-1.687-1.687-1.687c-0.934,0-1.688,0.754-1.688,1.687
		s0.755,1.687,1.688,1.687C51.558,244.687,52.312,243.933,52.312,243"/>
	<path clip-path="url(#SVGID_2_)" fill="#186FC2" d="M25.311,245.855l-0.001,3.893l-15.183-6.758l15.189-6.74l-0.002,3.892
		c-0.99,0.589-1.688,1.62-1.689,2.856C23.625,244.232,24.319,245.27,25.311,245.855"/>
	<path clip-path="url(#SVGID_2_)" fill="#EC001B" d="M30.373,243.002c0,1.234-0.695,2.27-1.688,2.855l-0.002,3.893l15.189-6.742
		l-15.184-6.756l-0.001,3.892C29.68,240.73,30.375,241.766,30.373,243.002"/>
	<path clip-path="url(#SVGID_2_)" fill="#BBBBBB" d="M28.688,320.625c0-0.933-0.755-1.688-1.687-1.688
		c-0.934,0-1.688,0.755-1.688,1.688s0.755,1.687,1.688,1.687C27.933,322.312,28.688,321.558,28.688,320.625 M25.312,273.375
		c0,0.933,0.755,1.688,1.688,1.688c0.932,0,1.687-0.755,1.687-1.688s-0.755-1.687-1.687-1.687
		C26.067,271.688,25.312,272.442,25.312,273.375 M53.999,297c0,14.911-12.089,27-26.998,27C12.089,324,0,311.911,0,297
		s12.09-27,27.001-27C41.91,270,53.999,282.089,53.999,297 M5.062,297c0-0.933-0.755-1.687-1.688-1.687
		c-0.932,0-1.687,0.754-1.687,1.687s0.755,1.687,1.687,1.687C4.308,298.687,5.062,297.933,5.062,297 M23.836,317.001
		c11.03,1.745,21.421-5.808,23.166-16.838c1.743-11.029-5.81-21.42-16.839-23.164c-11.03-1.745-21.42,5.808-23.165,16.838
		C5.254,304.866,12.808,315.257,23.836,317.001 M52.312,297c0-0.933-0.755-1.687-1.687-1.687c-0.934,0-1.688,0.754-1.688,1.687
		s0.755,1.687,1.688,1.687C51.558,298.687,52.312,297.933,52.312,297"/>
	<path clip-path="url(#SVGID_2_)" fill="#186FC2" d="M24.33,298.971l-1.521,3.582L11.47,290.404l16.614-0.275l-1.521,3.582
		c-1.142,0.155-2.188,0.833-2.67,1.971C23.41,296.818,23.646,298.042,24.33,298.971"/>
	<path clip-path="url(#SVGID_2_)" fill="#EC001B" d="M30.105,298.319c-0.482,1.137-1.526,1.818-2.67,1.971l-1.521,3.582
		l16.615-0.276l-11.338-12.148l-1.521,3.583C30.354,295.959,30.588,297.182,30.105,298.319"/>
	<path clip-path="url(#SVGID_2_)" fill="#BBBBBB" d="M28.688,374.625c0-0.933-0.755-1.688-1.687-1.688
		c-0.934,0-1.688,0.755-1.688,1.688s0.755,1.687,1.688,1.687C27.933,376.312,28.688,375.558,28.688,374.625 M25.312,327.375
		c0,0.933,0.755,1.688,1.688,1.688c0.932,0,1.687-0.755,1.687-1.688s-0.755-1.687-1.687-1.687
		C26.067,325.688,25.312,326.442,25.312,327.375 M53.999,351c0,14.911-12.089,27-26.998,27C12.089,378,0,365.911,0,351
		s12.09-27,27.001-27C41.91,324,53.999,336.089,53.999,351 M5.062,351c0-0.933-0.755-1.687-1.688-1.687
		c-0.932,0-1.687,0.754-1.687,1.687s0.755,1.687,1.687,1.687C4.308,352.687,5.062,351.933,5.062,351 M23.836,371.001
		c11.03,1.745,21.421-5.808,23.166-16.838c1.743-11.029-5.81-21.42-16.839-23.164c-11.03-1.745-21.42,5.808-23.165,16.838
		C5.254,358.866,12.808,369.257,23.836,371.001 M52.312,351c0-0.933-0.755-1.687-1.687-1.687c-0.934,0-1.688,0.754-1.688,1.687
		s0.755,1.687,1.688,1.687C51.558,352.687,52.312,351.933,52.312,351"/>
	<path clip-path="url(#SVGID_2_)" fill="#186FC2" d="M23.815,351.932l-2.661,2.84l-6.468-15.308l15.696,5.457l-2.661,2.84
		c-1.126-0.247-2.341,0.03-3.185,0.932S23.492,350.824,23.815,351.932"/>
	<path clip-path="url(#SVGID_2_)" fill="#EC001B" d="M29.463,353.307c-0.844,0.901-2.059,1.182-3.185,0.932l-2.661,2.84
		l15.697,5.457l-6.469-15.308l-2.66,2.841C30.509,351.175,30.308,352.406,29.463,353.307"/>
	<path clip-path="url(#SVGID_2_)" fill="#BBBBBB" d="M28.688,428.625c0-0.933-0.755-1.688-1.687-1.688
		c-0.934,0-1.688,0.755-1.688,1.688s0.755,1.687,1.688,1.687C27.933,430.312,28.688,429.558,28.688,428.625 M25.312,381.375
		c0,0.933,0.755,1.688,1.688,1.688c0.932,0,1.687-0.755,1.687-1.688s-0.755-1.687-1.687-1.687
		C26.067,379.688,25.312,380.442,25.312,381.375 M53.999,405c0,14.911-12.089,27-26.998,27C12.089,432,0,419.911,0,405
		s12.09-27,27.001-27C41.91,378,53.999,390.089,53.999,405 M5.062,405c0-0.933-0.755-1.687-1.688-1.687
		c-0.932,0-1.687,0.754-1.687,1.687s0.755,1.687,1.687,1.687C4.308,406.687,5.062,405.933,5.062,405 M23.836,425.001
		c11.03,1.745,21.421-5.808,23.166-16.838c1.743-11.029-5.81-21.42-16.839-23.164c-11.03-1.745-21.42,5.808-23.165,16.838
		C5.254,412.866,12.808,423.257,23.836,425.001 M52.312,405c0-0.933-0.755-1.687-1.687-1.687c-0.934,0-1.688,0.754-1.688,1.687
		s0.755,1.687,1.688,1.687C51.558,406.687,52.312,405.933,52.312,405"/>
	<path clip-path="url(#SVGID_2_)" fill="#186FC2" d="M23.75,405.666l-3.599,0.556l-0.053-16.619l10.775,9.618l-2.886,2.612
		c-1.102-0.339-2.335-0.163-3.251,0.666S23.518,404.536,23.75,405.666"/>
	<path clip-path="url(#SVGID_2_)" fill="#EC001B" d="M28.381,408.08c-1.128,0.505-2.356,0.295-3.298-0.371l-3.552,1.592
		l12.371,11.096l-0.053-16.617l-3.553,1.592C30.168,406.518,29.508,407.574,28.381,408.08"/>
	<path clip-path="url(#SVGID_2_)" fill="#BBBBBB" d="M28.688,482.625c0-0.933-0.755-1.688-1.687-1.688
		c-0.934,0-1.688,0.755-1.688,1.688s0.755,1.688,1.688,1.688C27.933,484.312,28.688,483.558,28.688,482.625 M25.312,435.375
		c0,0.933,0.755,1.688,1.688,1.688c0.932,0,1.687-0.756,1.687-1.688s-0.755-1.687-1.687-1.687
		C26.067,433.688,25.312,434.442,25.312,435.375 M53.999,459c0,14.911-12.089,27-26.998,27C12.089,486,0,473.911,0,459
		s12.09-27,27.001-27C41.91,432,53.999,444.089,53.999,459 M5.062,459c0-0.933-0.755-1.687-1.688-1.687
		c-0.932,0-1.687,0.754-1.687,1.687s0.755,1.688,1.687,1.688C4.308,460.688,5.062,459.933,5.062,459 M23.836,479.001
		c11.03,1.745,21.421-5.808,23.166-16.838c1.743-11.029-5.81-21.42-16.839-23.164c-11.03-1.745-21.42,5.808-23.165,16.838
		C5.254,466.866,12.808,477.257,23.836,479.001 M52.312,459c0-0.933-0.755-1.687-1.687-1.687c-0.934,0-1.688,0.754-1.688,1.687
		s0.755,1.688,1.688,1.688C51.558,460.688,52.312,459.933,52.312,459"/>
	<path clip-path="url(#SVGID_2_)" fill="#186FC2" d="M24.116,457.357l-3.891,0.064l6.499-15.295l6.996,15.074l-3.892,0.064
		c-0.606-0.981-1.649-1.663-2.885-1.641C25.71,455.645,24.687,456.355,24.116,457.357"/>
	<path clip-path="url(#SVGID_2_)" fill="#EC001B" d="M27.056,462.371c-1.236,0.021-2.281-0.657-2.885-1.641l-3.892,0.064
		l6.996,15.074l6.5-15.293l-3.892,0.062C29.314,461.641,28.29,462.352,27.056,462.371"/>
	<path clip-path="url(#SVGID_2_)" fill="#BBBBBB" d="M28.688,536.625c0-0.933-0.755-1.688-1.687-1.688
		c-0.934,0-1.688,0.755-1.688,1.688s0.755,1.688,1.688,1.688C27.933,538.312,28.688,537.558,28.688,536.625 M25.312,489.375
		c0,0.933,0.755,1.688,1.688,1.688c0.932,0,1.687-0.756,1.687-1.688s-0.755-1.687-1.687-1.687
		C26.067,487.688,25.312,488.442,25.312,489.375 M53.999,513c0,14.911-12.089,27-26.998,27C12.089,540,0,527.911,0,513
		s12.09-27,27.001-27C41.91,486,53.999,498.089,53.999,513 M5.062,513c0-0.933-0.755-1.687-1.688-1.687
		c-0.932,0-1.687,0.754-1.687,1.687s0.755,1.688,1.687,1.688C4.308,514.688,5.062,513.933,5.062,513 M23.836,533.001
		c11.03,1.745,21.421-5.808,23.166-16.838c1.743-11.029-5.81-21.42-16.839-23.164c-11.03-1.745-21.42,5.808-23.165,16.838
		C5.254,520.866,12.808,531.257,23.836,533.001 M52.312,513c0-0.933-0.755-1.687-1.687-1.687c-0.934,0-1.688,0.754-1.688,1.687
		s0.755,1.688,1.688,1.688C51.558,514.688,52.312,513.933,52.312,513"/>
	<path clip-path="url(#SVGID_2_)" fill="#186FC2" d="M24.969,510.376l-3.615-1.44l11.887-11.612l0.654,16.604l-3.616-1.439
		c-0.182-1.138-0.883-2.167-2.031-2.625C27.1,509.407,25.882,509.67,24.969,510.376"/>
	<path clip-path="url(#SVGID_2_)" fill="#EC001B" d="M25.752,516.135c-1.147-0.457-1.853-1.484-2.031-2.624l-3.617-1.439
		l0.655,16.605l11.887-11.614l-3.616-1.438C28.117,516.329,26.899,516.592,25.752,516.135"/>
	<path clip-path="url(#SVGID_2_)" fill="#BBBBBB" d="M28.688,590.625c0-0.933-0.755-1.688-1.687-1.688
		c-0.934,0-1.688,0.755-1.688,1.688s0.755,1.688,1.688,1.688C27.933,592.312,28.688,591.558,28.688,590.625 M25.312,543.375
		c0,0.933,0.755,1.688,1.688,1.688c0.932,0,1.687-0.756,1.687-1.688s-0.755-1.687-1.687-1.687
		C26.067,541.688,25.312,542.442,25.312,543.375 M53.999,567c0,14.911-12.089,27-26.998,27C12.089,594,0,581.911,0,567
		s12.09-27,27.001-27C41.91,540,53.999,552.089,53.999,567 M5.062,567c0-0.933-0.755-1.687-1.688-1.687
		c-0.932,0-1.687,0.754-1.687,1.687s0.755,1.688,1.687,1.688C4.308,568.688,5.062,567.933,5.062,567 M23.836,587.001
		c11.03,1.745,21.421-5.808,23.166-16.838c1.743-11.029-5.81-21.42-16.839-23.164c-11.03-1.745-21.42,5.808-23.165,16.838
		C5.254,574.866,12.808,585.257,23.836,587.001 M52.312,567c0-0.933-0.755-1.687-1.687-1.687c-0.934,0-1.688,0.754-1.688,1.687
		s0.755,1.688,1.688,1.688C51.558,568.688,52.312,567.933,52.312,567"/>
	<path clip-path="url(#SVGID_2_)" fill="#186FC2" d="M26.151,563.793l-2.771-2.734l15.471-6.068l-5.862,15.551l-2.771-2.734
		c0.275-1.118,0.03-2.34-0.85-3.208C28.491,563.73,27.267,563.499,26.151,563.793"/>
	<path clip-path="url(#SVGID_2_)" fill="#EC001B" d="M24.63,569.402c-0.879-0.867-1.128-2.088-0.85-3.208l-2.77-2.732l-5.863,15.549
		l15.472-6.069l-2.771-2.733C26.734,570.503,25.509,570.27,24.63,569.402"/>
	<path clip-path="url(#SVGID_2_)" fill="#BBBBBB" d="M28.688,644.625c0-0.933-0.755-1.688-1.687-1.688
		c-0.934,0-1.688,0.755-1.688,1.688s0.755,1.688,1.688,1.688C27.933,646.312,28.688,645.558,28.688,644.625 M25.312,597.375
		c0,0.933,0.755,1.688,1.688,1.688c0.932,0,1.687-0.756,1.687-1.688s-0.755-1.687-1.687-1.687
		C26.067,595.688,25.312,596.442,25.312,597.375 M53.999,621c0,14.911-12.089,27-26.998,27C12.089,648,0,635.911,0,621
		s12.09-27,27.001-27C41.91,594,53.999,606.089,53.999,621 M5.062,621c0-0.933-0.755-1.687-1.688-1.687
		c-0.932,0-1.687,0.754-1.687,1.687s0.755,1.688,1.687,1.688C4.308,622.688,5.062,621.933,5.062,621 M23.836,641.001
		c11.03,1.745,21.421-5.808,23.166-16.838c1.743-11.029-5.81-21.42-16.839-23.164c-11.03-1.745-21.42,5.808-23.165,16.838
		C5.254,628.866,12.808,639.257,23.836,641.001 M52.312,621c0-0.933-0.755-1.687-1.687-1.687c-0.934,0-1.688,0.754-1.688,1.687
		s0.755,1.688,1.688,1.688C51.558,622.688,52.312,621.933,52.312,621"/>
	<path clip-path="url(#SVGID_2_)" fill="#186FC2" d="M27.462,617.714l-1.494-3.595l16.614,0.405l-11.434,12.061l-1.494-3.595
		c0.689-0.925,0.937-2.146,0.463-3.285C29.643,618.563,28.604,617.875,27.462,617.714"/>
	<path clip-path="url(#SVGID_2_)" fill="#EC001B" d="M23.883,622.295c-0.474-1.141-0.23-2.363,0.462-3.287l-1.494-3.593
		l-11.434,12.06l16.614,0.405l-1.494-3.594C25.396,624.125,24.358,623.435,23.883,622.295"/>
	<path clip-path="url(#SVGID_2_)" fill="#BBBBBB" d="M28.688,698.625c0-0.933-0.755-1.688-1.687-1.688
		c-0.934,0-1.688,0.755-1.688,1.688s0.755,1.688,1.688,1.688C27.933,700.312,28.688,699.558,28.688,698.625 M25.312,651.375
		c0,0.933,0.755,1.688,1.688,1.688c0.932,0,1.687-0.756,1.687-1.688s-0.755-1.687-1.687-1.687
		C26.067,649.688,25.312,650.442,25.312,651.375 M53.999,675c0,14.911-12.089,27-26.998,27C12.089,702,0,689.911,0,675
		s12.09-27,27.001-27C41.91,648,53.999,660.089,53.999,675 M5.062,675c0-0.933-0.755-1.687-1.688-1.687
		c-0.932,0-1.687,0.754-1.687,1.687s0.755,1.688,1.687,1.688C4.308,676.688,5.062,675.933,5.062,675 M23.836,695.001
		c11.03,1.745,21.421-5.808,23.166-16.838c1.743-11.029-5.81-21.42-16.839-23.164c-11.03-1.745-21.42,5.808-23.165,16.838
		C5.254,682.866,12.808,693.257,23.836,695.001 M52.312,675c0-0.933-0.755-1.687-1.687-1.687c-0.934,0-1.688,0.754-1.688,1.687
		s0.755,1.688,1.688,1.688C51.558,676.688,52.312,675.933,52.312,675"/>
	<path clip-path="url(#SVGID_2_)" fill="#186FC2" d="M28.711,672.156l0.031-3.893l15.131,6.873l-15.24,6.626l0.031-3.892
		c0.995-0.582,1.701-1.609,1.711-2.844C30.386,673.792,29.699,672.752,28.711,672.156"/>
	<path clip-path="url(#SVGID_2_)" fill="#EC001B" d="M23.626,674.972c0.01-1.235,0.712-2.264,1.71-2.843l0.032-3.893l-15.24,6.625
		l15.13,6.873l0.032-3.891C24.302,677.248,23.616,676.207,23.626,674.972"/>
	<path clip-path="url(#SVGID_2_)" fill="#BBBBBB" d="M28.688,752.625c0-0.933-0.755-1.688-1.687-1.688
		c-0.934,0-1.688,0.756-1.688,1.688s0.755,1.687,1.688,1.687C27.933,754.312,28.688,753.558,28.688,752.625 M25.312,705.375
		c0,0.933,0.755,1.688,1.688,1.688c0.932,0,1.687-0.756,1.687-1.688s-0.755-1.687-1.687-1.687
		C26.067,703.688,25.312,704.442,25.312,705.375 M53.999,729c0,14.911-12.089,27-26.998,27C12.089,756,0,743.911,0,729
		s12.09-27,27.001-27C41.91,702,53.999,714.089,53.999,729 M5.062,729c0-0.933-0.755-1.687-1.688-1.687
		c-0.932,0-1.687,0.754-1.687,1.687s0.755,1.688,1.687,1.688C4.308,730.688,5.062,729.933,5.062,729 M23.836,749.001
		c11.03,1.745,21.421-5.808,23.166-16.838c1.743-11.029-5.81-21.42-16.839-23.164c-11.03-1.745-21.42,5.808-23.165,16.838
		C5.254,736.866,12.808,747.257,23.836,749.001 M52.312,729c0-0.933-0.755-1.687-1.687-1.687c-0.934,0-1.688,0.754-1.688,1.687
		s0.755,1.688,1.688,1.688C51.558,730.688,52.312,729.933,52.312,729"/>
	<path clip-path="url(#SVGID_2_)" fill="#186FC2" d="M29.682,727.045l1.542-3.574l11.27,12.213l-16.617,0.182l1.542-3.572
		c1.143-0.15,2.191-0.821,2.681-1.956C30.589,729.202,30.36,727.977,29.682,727.045"/>
	<path clip-path="url(#SVGID_2_)" fill="#EC001B" d="M23.901,727.662c0.49-1.133,1.537-1.809,2.682-1.954l1.542-3.573l-16.618,0.181
		l11.27,12.213l1.542-3.573C23.64,730.022,23.412,728.797,23.901,727.662"/>
	<path clip-path="url(#SVGID_2_)" fill="#BBBBBB" d="M28.688,806.625c0-0.933-0.755-1.688-1.687-1.688
		c-0.934,0-1.688,0.756-1.688,1.688s0.755,1.687,1.688,1.687C27.933,808.312,28.688,807.558,28.688,806.625 M25.312,759.375
		c0,0.933,0.755,1.688,1.688,1.688c0.932,0,1.687-0.756,1.687-1.688s-0.755-1.687-1.687-1.687
		C26.067,757.688,25.312,758.442,25.312,759.375 M53.999,783c0,14.911-12.089,27-26.998,27C12.089,810,0,797.911,0,783
		s12.09-27,27.001-27C41.91,756,53.999,768.089,53.999,783 M5.062,783c0-0.933-0.755-1.687-1.688-1.687
		c-0.932,0-1.687,0.754-1.687,1.687s0.755,1.687,1.687,1.687C4.308,784.687,5.062,783.933,5.062,783 M23.836,803.001
		c11.03,1.745,21.421-5.808,23.166-16.838c1.743-11.029-5.81-21.42-16.839-23.164c-11.03-1.745-21.42,5.808-23.165,16.838
		C5.254,790.866,12.808,801.257,23.836,803.001 M52.312,783c0-0.933-0.755-1.687-1.687-1.687c-0.934,0-1.688,0.754-1.688,1.687
		s0.755,1.687,1.688,1.687C51.558,784.687,52.312,783.933,52.312,783"/>
	<path clip-path="url(#SVGID_2_)" fill="#186FC2" d="M30.218,782.192l2.768-2.736l5.875,15.546l-15.476-6.058l2.769-2.735
		c1.115,0.29,2.34,0.061,3.218-0.808C30.25,784.532,30.498,783.311,30.218,782.192"/>
	<path clip-path="url(#SVGID_2_)" fill="#EC001B" d="M24.628,780.601c0.878-0.868,2.103-1.102,3.218-0.809l2.769-2.737
		l-15.476-6.057l5.874,15.546l2.769-2.735C23.501,782.69,23.749,781.468,24.628,780.601"/>
	<path clip-path="url(#SVGID_2_)" fill="#BBBBBB" d="M28.688,860.625c0-0.933-0.755-1.688-1.687-1.688
		c-0.934,0-1.688,0.756-1.688,1.688s0.755,1.687,1.688,1.687C27.933,862.312,28.688,861.558,28.688,860.625 M25.312,813.375
		c0,0.933,0.755,1.688,1.688,1.688c0.932,0,1.687-0.756,1.687-1.688s-0.755-1.687-1.687-1.687
		C26.067,811.688,25.312,812.442,25.312,813.375 M53.999,837c0,14.911-12.089,27-26.998,27C12.089,864,0,851.911,0,837
		s12.09-27,27.001-27C41.91,810,53.999,822.089,53.999,837 M5.062,837c0-0.933-0.755-1.687-1.688-1.687
		c-0.932,0-1.687,0.754-1.687,1.687s0.755,1.687,1.687,1.687C4.308,838.687,5.062,837.933,5.062,837 M23.836,857.001
		c11.03,1.745,21.421-5.808,23.166-16.838c1.743-11.029-5.81-21.42-16.839-23.164c-11.03-1.745-21.42,5.808-23.165,16.838
		C5.254,844.866,12.808,855.257,23.836,857.001 M52.312,837c0-0.933-0.755-1.687-1.687-1.687c-0.934,0-1.688,0.754-1.688,1.687
		s0.755,1.687,1.688,1.687C51.558,838.687,52.312,837.933,52.312,837"/>
	<path clip-path="url(#SVGID_2_)" fill="#186FC2" d="M30.295,837.389l3.561-1.574l-0.035,16.619L21.51,841.271l3.559-1.573
		c0.94,0.668,2.167,0.888,3.296,0.39C29.493,839.588,30.16,838.533,30.295,837.389"/>
	<path clip-path="url(#SVGID_2_)" fill="#EC001B" d="M25.636,833.914c1.13-0.5,2.357-0.282,3.296,0.388l3.56-1.573L20.18,821.567
		l-0.035,16.618l3.561-1.573C23.84,835.467,24.506,834.413,25.636,833.914"/>
</g>
</svg>
