<?xml version="1.0" encoding="utf-8"?>
<!-- Generator: Adobe Illustrator 18.0.0, SVG Export Plug-In . SVG Version: 6.00 Build 0)  -->
<!DOCTYPE svg PUBLIC "-//W3C//DTD SVG 1.1//EN" "http://www.w3.org/Graphics/SVG/1.1/DTD/svg11.dtd">
<svg version="1.1" id="Greece" xmlns="http://www.w3.org/2000/svg" xmlns:xlink="http://www.w3.org/1999/xlink" x="0px" y="0px"
	 viewBox="290 290.5 220 219" enable-background="new 290 290.5 220 219" xml:space="preserve">
<path fill="#4991C6" d="M294.9,351.2l-0.2,0.3l0.2,0.5l0.2-0.1h0.2l0.1-0.4L294.9,351.2L294.9,351.2z M293.4,354.9l-0.1,0.2l0.1,0.2
	l0.1,0.2l0.1,0.2l0.2,0.1l0.2-0.1l-0.2-0.3L293.4,354.9z M412.9,368.8v-0.3l-0.2-0.2l-0.1,0.4l-0.1,0.3v0.4h0.1l0.2,0.1L412.9,368.8
	z M311.3,375.3L311.3,375.3l-0.2-0.2L311,375l-0.3,0.1l-0.1,0.1l0.1,0.3h0.2l0.2,0.1l0.1,0.1l0.1,0.1h0.1l0.3-0.1l-0.3-0.2
	L311.3,375.3z M407.3,378.1v0.2l0,0V378.1l0.3,0.1l0.3-0.1V378v-0.2l-0.1-0.1h-0.1l-0.1-0.1v-0.1l0.1-0.4l-0.1-0.2l0.1-0.1v-0.1
	h-0.2l-0.1,0.1l-0.1,0.2l0.1,0.5l0.2,0.2l-0.1,0.2L407.3,378.1z M413.6,385.5L413.6,385.5l0.2-0.2l0.1-0.1h0.1V385l-0.1-0.1
	l-0.2-0.1l-0.2-0.1h-0.1l-0.1,0.1l-0.1,0.2v0.2l0.2,0.1L413.6,385.5z M442.5,394.2h-0.2l-0.1,0.2l-0.2,0.4v0.1l0.2,0.1h0.2h0.2h0.1
	l0.1-0.1l-0.1-0.1l0.1-0.3L442.5,394.2z M398.6,418.9L398.6,418.9L398.6,418.9l0.2,0.2h0.2l0.1-0.2l-0.1-0.2h-0.2v0.1l0,0
	L398.6,418.9L398.6,418.9z M403.8,422.8v-0.3l-0.2-0.2h-0.1h-0.3l-0.1,0.4l0.1,0.1h0.3L403.8,422.8L403.8,422.8z M403.2,428.1
	l-0.1-0.2l-0.4-0.3l-0.3-0.1l-0.3-0.1v0.1l0.5,0.3l0.3,0.4l0.2,0.1h0.2h0.1L403.2,428.1L403.2,428.1z M472.9,431.6l0.2-0.4l0.2-0.1
	l-0.2-0.2l-0.3-0.2l-0.1-0.1v-0.1v-0.1v-0.1h-0.1l-0.1-0.1l-0.2-0.1v-0.2h-0.1l-0.1,0.2l-0.1,0.1l0.1,0.1v0.2l0.1,0.2h0.2l0.1,0.2
	l0.1,0.1l0.1,0.1l0.1-0.1h0.1v0.2V431.6z M473.7,434.2L473.7,434.2h0.2l0.1-0.2h0.1v-0.1l0,0v-0.1l0.1-0.2l-0.1-0.3l-0.1-0.1
	l-0.2,0.1l-0.2,0.1l-0.5-0.1L473,433l-0.1-0.1l-0.2-0.2h-0.2v0.1l0.1,0.1l0,0l0,0l-0.2-0.1l-0.1,0.1v0.1v0.1l0.1,0.1v0.1l0.1,0.2
	h0.2h0.2l0.1,0.2h0.3l0.2-0.1l0.2,0.1h-0.1h-0.1v0.2v0.2L473.7,434.2L473.7,434.2l0.1-0.1L473.7,434.2z M481.3,434.2l0.3,0.2
	l0.2-0.1l0.1-0.1l-0.1-0.1l-0.1-0.1l-0.1-0.1l0.3-0.4l-0.4-0.1l-0.1,0.3v0.1L481.3,434.2z M344,440.8l-0.2,0.1l-0.2,0.1l0.2,0.3
	l0.1,0.1l-0.1,0.2v0.2l0.2-0.3l0.1-0.1v-0.1v-0.1l0.1-0.1L344,440.8z M481.5,441.1h0.2h0.1h0.1l0.1-0.1h-0.1l-0.1-0.1l-0.2-0.1h-0.2
	l-0.1,0.1v0.2L481.5,441.1L481.5,441.1L481.5,441.1z M457.7,505.5h-0.2l-0.1,0.1v0.2l0.1,0.1l0.1,0.1v0.2l0.2-0.2l0.2-0.1l-0.1-0.3
	L457.7,505.5z M447.7,507.5l-0.3,0.1l-0.5-0.1l-0.3-0.1l-0.2,0.1v0.1l0.1,0.2h0.1l0.3,0.1h0.2l0.2-0.1l0.2-0.1h0.1L447.7,507.5
	L447.7,507.5L447.7,507.5z M402.9,337.6L402.9,337.6l-0.1-0.5l-0.2-0.2h-0.1l-0.4,0.2l-0.2,0.2l0.1,0.1l0.5,0.2h0.1h0.1L402.9,337.6
	l0.4,0.3h0.1v-0.1l-0.2-0.1L402.9,337.6z M290.9,352.4L290.9,352.4h-0.6l-0.2,0.1l-0.1,0.3l0.1,0.3l0.1,0.2l0.2,0.1l0.4-0.1l0.6-0.8
	h-0.2L290.9,352.4z M408.6,368.5l0.6-0.7l0.1-0.1l0.1-0.2l-0.2-1l-0.1-0.1l-0.1,0.4l-0.1,0.2l-0.1,0.1l-0.1,0.2v0.2v0.1l-0.1,0.2
	l-0.2,0.3v0.2L408.6,368.5L408.6,368.5L408.6,368.5z M460.7,395.8l0.2-0.3h0.1l0.1-0.1v-0.2v-0.1H461l-0.6-0.2l-0.3-0.2h-0.2h-0.2
	h-0.1l-0.1-0.2h-0.1h-0.5v0.1l0.4,0.5l0.1,0.2h0.1h0.1l0.3,0.1l0.3,0.1l0.1,0.1h0.2l0.1-0.1l0,0L460.7,395.8L460.7,395.8z
	 M461.4,395.9L461.4,395.9l0.3,0.2l0.1-0.1v-0.2l-0.1-0.3l-0.2-0.3l-0.1,0.1v0.2v0.1V395.9z M410.6,412.3l0.4-0.1l0.3,0.1l0.3-0.2
	l0.1-0.4l-0.2-0.3l-0.3-0.3H411l-0.3,0.2l-0.4,0.8v0.2L410.6,412.3z M408.1,420.9l0.1-0.3l0.2-0.1l0.1-0.1v-0.1l0.1-0.2v-0.2
	l-0.1-0.2l-0.1-0.2h-0.1l-0.3,0.3l-0.7,2.6v0.3l0.1,0.2h0.1v-0.2l0.1-0.1l0.1-0.3l0.1-0.1l0.2-0.5v-0.1l0.1-0.3L408.1,420.9z
	 M467.7,424l0.1-0.3v-0.2h-0.1h-0.1l-0.1-0.1v-0.1l0.1-0.2v-0.2l-0.1-0.2l-0.1-0.1l-0.2-0.1l-0.2,0.1l-0.2,0.2l-0.1,0.2v0.3l0.1,0.1
	h0.2l0.1,0.2v0.6l-0.1,0.1h-0.1h-0.1l-0.1,0.3h-0.2l-0.1-0.2v-0.2l-0.1-0.1l-0.2-0.1H466v0.1l0.1,0.3v0.1v0.1v0.5v0.1l0,0h0.1v0.2
	l0.2,0.2v0.2l0.1,0.2h0.1l0.1,0.2l0.1,0.1h0.1l0.1-0.1l0.1-0.2v-0.4l-0.1-0.1v-0.1l-0.1-0.1l-0.1-0.2v-0.2l0.1-0.1l0.1-0.1h0.1
	l0.1-0.1l0.1-0.2l0.2-0.2L467.7,424z M465.3,425.3h0.2h0.1l0.2-0.3v-0.1l-0.2-0.5l-0.1-0.2l-0.1-0.1h-0.1l-0.4,0.4h-0.1l-0.3,0.1
	l-0.2,0.2v0.1h0.2h0.1l0.2-0.1h0.3l0.1,0.1l0.1,0.1v0.1L465.3,425.3z M477.8,428.4v0.2l0.2,0.3l0.2,0.1l0,0v-0.1l0.1-0.1h0.1v0.1
	l0.1,0.1l0.2-0.1l0.1-0.3h0.1l0.3,0.2h0.1v-0.2l-0.1-0.2l-0.1-0.1v-0.1l-0.2-0.2l-0.2-0.1l-0.1,0.1v0.1l-1-0.1l-0.1,0.1l0.1,0.1
	L477.8,428.4L477.8,428.4z M482,444.4l0.5,0.6l0.1,0.1l0.1,0.1h0.3l0.1-0.1h0.1l0.2,0.1h0.2l-0.2-0.2l-0.1-0.3l0.1-0.4l-0.1-0.3
	l-0.3-0.1l-0.2,0.2h-0.1l-0.1-0.1h-0.1H482l-0.2,0.1L482,444.4z M379.5,458.3l-0.1-0.3l-0.2-0.1H379l-0.2,0.1l-0.2,0.2l-0.1,0.3
	l-0.1,0.1h-0.1l-0.2,0.1L378,459v0.2l0.2,0.1h0.2l0.1-0.2l0.1-0.1h0.4h0.1l0.1,0.3l0.1,0.1l0.2,0.2l0.1-0.2v-0.2l-0.1-0.2v-0.1v-0.1
	L379.5,458.3z M496.6,465.3L496.6,465.3l0.1,0.3l-0.1,0.1v0.1l0.1,0.2h0.1l0.4-0.6v-0.1v-0.2l-0.1-0.2l-0.2-0.1l-0.3,0.1l-0.2,0.1
	l-0.2,0.2l-0.1,0.3h0.1L496.6,465.3z M434.6,490.7L434.6,490.7l0.2,0.1l0.1-0.1l0.3,0.2h0.2l0.1,0.1h0.1v-0.3l0.2-0.4l-0.4-0.3
	l-0.2-0.1H435l-0.1,0.1v0.1h-0.2l-0.1,0.1l-0.2,0.2l-0.1,0.1l0.1,0.1L434.6,490.7z M391.3,445.3l-0.1-0.2h-0.2l0.1,0.2v0.2h0.1v0.1
	l0.1,0.2l0.2,0.1l0.1-0.1l-0.1-0.3L391.3,445.3z M401.7,447.6v0.2l0.2,0.1l0.1-0.1v-0.1l-0.1-0.2L401.7,447.6z M475.2,439.3v0.2
	l0.3,0.2h0.3h0.2l0.1-0.1v-0.1h0.1l0.2-0.1v-0.3l-0.2-0.4l-0.2-0.2l-0.1-0.2l-0.1-0.4l-0.2-0.2l-0.3-0.1l0.1-0.3l0.2-0.3l-0.1-0.2
	l-0.2-0.1l-0.2-0.1l-0.1-0.1h-0.1h-0.1h-0.1l-0.2-0.2h-0.2v0.2l-0.1,0.1h-0.3l-0.3,0.3l0.1,0.4l0.3,0.2l0.2,0.2l0.3,0.1l0.3,0.2
	l-0.1,0.3l-0.1,0.3l0.2,0.3h0.3l0.3-0.2h0.2l-0.1,0.2L475.2,439.3z M483.3,454.7l-0.7,0.5l-0.3,0.6l0.1,0.3l0.3,0.2l0.5,0.1h0.3
	l0.6-0.2l0.2-0.6L484,455l-0.2-0.3H483.3z M406.1,370.3l0.2,0.3l0.5-0.2l0.3-0.8v-0.5L407,369l-0.2-0.1l-0.2,0.1l-0.1,0.1v-0.2
	l-0.1-0.3l-0.2,0.1L406,369l-0.1,0.3l-0.1,0.4l0.1,0.2l0.3,0.1l0.1,0.1L406.1,370.3L406.1,370.3z M325.2,390.5L325.2,390.5l-0.2-0.1
	l-0.1-0.1l-0.5,0.3l-0.4,0.1l-0.2,0.4l0.4,0.8l0.9,0.8l0.3,0.1l-0.2-0.3l-0.2-0.1v-0.1l-0.2-0.2l-0.3-0.3l0.1-0.4l0.6-0.2l0.2-0.2
	l0.1-0.2l0.1-0.2v-0.1h-0.1h-0.1H325.2L325.2,390.5z M329.1,391.4v-0.3l-0.2-0.1l-0.6,0.1l-0.4,0.2l-0.4,0.4l-0.5,0.8l-0.1,0.4
	l0.1,0.3l0.2-0.1l0.2-0.4l0.3-0.3l0.2-0.1l0.2-0.1l0.4-0.2l0.3-0.3L329.1,391.4z M423.2,423.4l-0.2-0.2h-0.4l-0.3,0.2l-0.2,0.3
	l-0.4,0.2l-0.5,0.1l0.3,0.2l1.1,0.2l0.6-0.1l-0.1-0.4v-0.2L423.2,423.4z M469.3,431.7L469.3,431.7l-0.3-0.3l-0.2-0.2l-0.3-0.1
	l-0.3,0.1h-0.3h-0.2l-0.1,0.4l0.1,0.4l0.1,0.3v0.2l-0.1,0.2l-0.1,0.8l0.1,0.3l0.3,0.1l0.1,0.1v0.2l0.3,0.2l0.3-0.1l-0.1-1.1
	l-0.3-0.4l-0.1-0.2h0.1l0.1-0.1v-0.1l0.1-0.2l0.2-0.2h0.2h0.1h0.1l0.2,0.1l0.1,0.1l0.1-0.1L469.3,431.7L469.3,431.7z M493.3,466
	h-0.4l-0.4,0.1l-0.2,0.1l-0.2,0.3v0.4l0.3,0.2l0.5-0.1h0.4l0.4,0.1l0.5-0.1h0.2l0.1-0.1l0.1-0.3v-0.3l-0.1-0.1L493.3,466z
	 M348.1,449.1L348.1,449.1l-0.2-0.2l-0.2,0.3l-0.1,0.5v1.1l0.2-0.4l0.2-0.3l0.1-0.3v-0.3l0.1-0.1l0.1-0.1l0.1-0.1V449L348.1,449.1
	L348.1,449.1z M349.3,450.4L349.3,450.4l-0.2,0.4l-0.1,0.9l0.3-0.2v0.3l0.1,0.1l0.1,0.1l0.2,0.2v-0.6l0.1-0.5v-0.3L349.3,450.4z
	 M387.8,477.3l-0.5-0.2l-0.4-0.3v-0.1v-0.2l0,0h-0.1l0.2,0.7l0.2,0.4l0.2,0.3l0.6,0.7l0.1,0.3h0.2l-0.1-1.1L387.8,477.3z
	 M391.8,425.5L391.8,425.5l-0.1,0.5l-0.3,0.2l-0.7,0.2v0.2l0.5,0.3l0.6,0.1l0.6-0.1l0.5-0.3v-0.2h-0.4l-0.3-0.1l-0.2-0.2l-0.2-0.3
	v-0.1L391.8,425.5L391.8,425.5z M383.7,434.2l-0.4-0.2l-0.1-0.1H383l-0.2,0.1l-0.2,0.1l-0.2,0.2l0.4,0.3l0.3,0.4l0.3,0.3l0.5,0.1
	l0.3-0.1l0.1-0.3l-0.1-0.3l-0.1-0.2L383.7,434.2z M392.9,432l0.6-0.1l0.6-0.3l0.4-0.4h-0.9l-0.5,0.2H392l-0.6,0.2l-2.2,1.5v0.2h0.6
	l1.4-0.4h0.6l0.5-0.1l0.3-0.3l-0.1-0.6L392.9,432z M327.6,394.3h0.3v-0.4l0.2-0.5l0.5-0.8h-0.2l-1,1.5v0.2H327.6L327.6,394.3z
	 M309.7,373.1l-0.4-0.4l-0.4-0.4l-0.4,0.2l0.1,0.4l0.3,0.4l0.5,0.6l0.3,0.2l0.3,0.1h0.5l-0.3-0.7L309.7,373.1z M428.9,363.6l0.3,1.5
	h0.2l1.2-1.7l0.2-0.8l-0.9-0.6h-0.2h-0.2l-0.1,0.1l0.1,0.3l-0.5,0.4L428.9,363.6z M444.7,394.5l0.2-1.1h0.1h0.1l0,0v-0.1l-0.7-0.6
	l-0.2-0.2H444v0.2h-0.2l-0.2-0.2h-0.2l-0.2,0.2l-0.1,0.2l-0.1-0.1l-0.1-0.1l-0.2-0.1l-0.2,0.1l-0.1,0.2l0.1,0.2l0.3,0.3l0.1,0.2
	l0.3,0.3l0.1,0.1v0.2l-0.1,0.2v0.2l0.1,0.3l0.3-0.2h0.2l0.3,0.1l0.3,0.1L444.7,394.5z M426.4,453.1h-0.2h-0.5l0.2,0.6l0.3,0.3
	l0.4,0.2l0.4,0.3l0.7,0.7l0.4,0.1h0.6v-0.2l-0.4-0.7L426.4,453.1z M420.8,450.6l0.4-0.1l0.2-0.4v-0.3l-0.2-0.3l-0.4-0.2v-0.1
	l-0.1-0.1h-0.4l-0.3,0.4l0.5,0.7L420.8,450.6z M430.7,443.8l0.5,0.4l0.4,0.1l-0.2-0.4l-0.1-0.1l-0.2-0.1l0.2-0.5l0.5-1.6h-0.4
	l-0.5,0.2l-0.4,0.4l-0.2,0.4l0.1,0.6L430.7,443.8z M449.4,439H449l0.5,0.9l0.1-0.1l0,0l0,0v-0.1l0.3,0.2h0.2l0.2-0.2l0.1-0.2
	l-0.1-0.1l-0.2-0.3l0.1-0.2l0.1-0.2l-0.6,0.3L449.4,439z M445.9,446.5h0.5l0.3-0.4l-0.6-0.5l-0.2-0.1l-0.3,0.3l-0.3,0.1l-0.3,0.2
	l-0.1,0.3h0.6L445.9,446.5z M441.3,446.8l-0.6,0.4l-0.4,0.4l-0.2,0.4l0.3,0.3l0.6-0.1l0.5-0.3v-0.8l-0.1-0.1h-0.1l0.2-0.2
	L441.3,446.8L441.3,446.8z M407.8,508.9v-0.3l0.2-0.3v-0.2l-0.6-0.2h-0.3h-0.3l-0.2,0.2l-0.2,0.1l-0.2,0.1h-0.3v0.2l1,0.7l0.6,0.3
	h0.7v-0.2l-0.2-0.2L407.8,508.9z M479.3,490.7l-0.7,0.2l-0.4,0.1l-0.9,0.4h-0.1l-0.3-0.2h-0.2l-0.1,0.1l-0.2,0.4l-0.1,0.1l-0.2,0.1
	l-0.4,0.6l-0.2,0.1l-0.1,0.1l0.1,0.3l0.3,0.3l0.3,0.1l0.3-0.1l0.4-0.4l0.2-0.1l0.3-0.1l0.2-0.2l0.2-0.2l0.3-0.2l0.2-0.1l0.6-0.1h0.4
	v-0.2l-0.2-0.6l0.2-0.1l0.2-0.1L479.3,490.7L479.3,490.7z M381.8,465.2l-1.6-1.2l-0.4-0.5l-1-1.8l-0.3-0.2l-0.3,0.3l-0.8,1.3
	l-0.1,0.3l0.1,0.3l0.1,0.3l0.2,0.7v0.7l-0.2,1.7l0.1,0.2l0.2,0.5l0.1,0.2h0.1h0.4l0.1,0.1v0.1v0.1v0.1l0.7,0.2l0.3,0.2l0.1,0.4
	l0.3-0.3l0.3-0.1l0.4,0.1h0.4l0.1-0.1l0.1-1.8l0.1-0.4l0.2-0.3l0.4-0.2h0.4l0.2-0.1l-0.2-0.5L381.8,465.2z M393.9,418.9l-0.4-0.2
	l-3,0.2v0.2l0.1,0.4l0.2,0.4l0.3,0.2l0.3,0.1l0.2,0.3v0.3l-0.3,0.2v0.2l0.3,0.1l0.1,0.1l0.2,0.2l0.3-0.1l0.6-0.2l0.2-0.1l0.1-0.3
	v-0.4l0.1-0.3l0.3-0.3v-0.4l0.3-0.4L393.9,418.9z M393.5,413.1v-0.2l0,0l-0.2-0.1l-0.1-0.2l-0.1-0.2v-0.2l0.1-0.2l-0.2-0.2l-0.3-0.1
	l-0.6-0.1h-0.2l-0.2,0.1l-0.2,0.1l0.1,0.1l0,0h-0.1l-0.1,0.2l-0.2-0.2l-0.3-0.1h-0.3h-0.3l0.4,0.3l0.3,0.2l-0.9,0.4h0.3l0.5,0.2h0.2
	l0.2-0.1l0.2-0.2l0.2-0.2h0.3l-0.1,0.3l-0.3,0.5l-0.3,0.3l-0.7-0.2l-0.4,0.2l-0.3,0.3l-0.2,0.3v0.2l0.2,0.2l0.3,0.2l0.8,0.2h0.4
	l0.4-0.2l0.3-0.3l0.2-0.2l0.3,0.2h0.2l0.1-0.5l0.5-0.5l-0.1-0.3l0.9-0.4h-0.7L393.5,413.1L393.5,413.1z M308.1,367.5l-0.2-1
	l-0.1-0.3l-0.2-0.4h-0.2l-0.2,0.1l-0.4,0.1h-0.4l-0.2-0.1l-0.5-0.4l-0.3-0.1l-0.7-0.1l-0.3-0.1l-0.3-0.2l-0.1-0.2l-0.5-3.4l-0.3-0.7
	l0.4,0.2l0.2-0.2l0.1-0.7l-0.6-0.1l-1.5-0.8v-0.2h0.3v-0.2l-0.3-0.1l-0.2-0.3l-0.1-0.4l0.1-0.4l0.3-0.2l1.5-0.6l0.5-0.3l0.3-0.6v-1
	H304v0.2h-0.2l-0.1-0.3l-0.2-0.2l-0.7-0.2l-0.2-0.2l-0.2-0.2l-0.2-0.2l-0.3-0.1l-0.7,0.4l-0.6,0.3l-0.7,0.2l-2.3,0.1l-0.2,0.1
	l-0.1,0.3l-0.6,0.9l-0.2,0.3h0.4l0.2,0.2l0.1,0.4v0.5l0.5-0.3l0.1,0.2l-0.1,0.8l0.2,0.4l0.2,0.2h0.3h0.4l0.1,0.2l0.7,1.5l0.3,0.2
	l0.6,0.3l0.6,0.5l0.5,0.5l0.3,0.7l0.2,1.4l0.2,0.7l0.3,0.7l0.3,0.5l0,0v-0.1v-0.1l0.3,0.2l0.9,0.3l-0.1,0.3l-0.2,0.1h-0.2l0.1,0.2
	l0.3,0.1h0.3l0.4,0.1l0.2,0.2l0.6,0.6l0.2,0.1h0.4l0.4,0.1l0.4,0.2l0.6,0.4l0.6,0.2l0.2,0.2l0.3-0.2v-0.2L308.1,367.5z M323.4,386.6
	v-0.5l-0.1-0.5l-0.4-0.5l-0.3-0.1v-0.2l-0.1-0.1l-0.6,0.3l-0.5,0.4l-0.3,0.4l-0.3,0.7l-0.2,0.3l-0.2,0.1l-0.4,1.2l-0.1,0.6l-0.5,1.1
	l-0.4,3.1v0.8h0.2l0.4-0.8l0.3-0.5l0.2-0.3l0.4-0.3l0.3,0.6l0.5,0.1l-0.1,0.3v0.2l0.2,0.1h0.3v-0.2l-0.2-0.3l0.2-0.3l0.4-0.1
	l0.4,0.2v-0.2l0.1-0.1v-0.1v-0.2l0.3,0.1l0.1,0.1l-0.1-0.5l-0.1-0.1h0.2l0.2,0.4h0.2l0.1-0.4l0.1-1.7v-0.5l-0.2,0.3l-0.1,0.4
	l-0.1,0.2L323,390v-0.2l0.1-0.3l0.6-0.8l0.1-0.2v-0.2V388v-0.2l-0.1-0.3v-0.3l0.1-0.4L323.4,386.6z M328.2,419l-0.4-0.9l-0.4-0.7
	l-0.9-0.7l-1-0.4l-0.8,0.2l-0.6-0.4l-0.3-0.2l-0.2-0.6l-0.5-1v-0.1l-0.1-0.1V414v-0.1l-0.6-0.1l-0.6,0.6l-1,1.5l0.2,0.2l-0.1,0.2
	l0.1,0.5l-0.2,0.4l0.6,0.4l0.9,1.3l0.5,0.5l0.1,0.5l0.6,0.6l1.2,1l0.8,0.9l0.2,0.1h0.5l0.3-0.1l0.1-0.2v-0.4l-0.1-0.2l-0.1-0.4v-0.4
	l0.3-0.2l0.2-0.1l0.2-0.3l0.2-0.3l0.4-0.2l0.7,0.1l0.8,0.2l0.7,0.4l0.3,0.4l-0.2-1L328.2,419z M322.3,408.6l0.6,0.7l0.3,0.3l0.4,0.1
	h0.2l0.3-0.2h0.2l0.6,0.2h0.1l0.3-0.5l0.1-0.5l-0.1-0.5l-0.2-0.5l-0.9-1.2l-0.3-0.8l-1.1-0.9l-0.2-0.4l-0.1-0.4l-0.2-0.3l-0.5-0.1
	l0.1-0.1l0.1-0.2l0.1-0.1l-0.3,0.2l-0.3,0.4l-0.4,0.3l-0.3-0.1l-0.6-1.1l-0.2-0.3l0.3-0.3l0.2-0.2l0.1-0.3v-0.5V401l-1.3-3.9h-0.8
	v0.2l0.1,0.3v0.3l-0.1,0.3v0.4v0.2l0.3,1.1l-0.5-0.2l0.2,0.6v0.6l-0.2,0.5l-0.6,0.3l-0.4,0.5l-0.3,0.1l-0.2-0.2l-0.1-0.3l-0.1-0.2
	l-0.2,0.3l-0.3-0.5l-0.2-0.6l-0.2-0.2l-0.3,0.6h-0.2V401l-0.1-0.4v1l-0.2,1l-0.3,0.8l-0.3,0.4l-0.2,0.1l-0.1,0.2l-0.1,0.2l0.1,0.3
	v0.3l-0.2,0.3l-0.2,0.3l-0.1,0.3l0.2,0.6l0.7,0.4l0.2,0.5h0.2l0.3-0.4l0.3-0.2l0.3-0.2l0.2-0.6v-0.6l-0.2-1v-0.5l0.2-0.5l0.3,0.1
	l0.3,0.5l0.7,1.7l0.2,0.5l0.4,0.4v0.2l-0.3-0.1l-0.4-0.4l-0.3-0.1l0.1,0.3l0.4,0.7v0.2l0.1,0.6l0.1,0.3l0.3,0.4l0.9,0.3l0.5,0.4
	l0.4-0.8l0.8-0.1l1,0.3L322.3,408.6z M424.3,324.1l-0.1-0.2l-0.2-0.2l-0.2-0.2l-0.3-0.1l-0.3-0.1l-0.1-0.3l-0.1-0.3l-0.1-0.2
	l-0.4-0.2l-1-0.1l-0.8-0.4l-1.9,1.6l-0.8,1.2l-0.4,0.8l-0.2,0.9l0.1,0.9l0.4,0.3h0.5l0.7,0.2l0.2,0.1l0.3,0.3v0.1v0.3v0.1h0.1h0.2
	h0.1l0.4,0.4l0.2,0.2l0.1,0.3l0.4-0.2l0.6-0.6l0.3-0.1l0.8-0.2l0.4-0.2l0.2-0.2l0.1-0.1l0.4,0.3h0.2l0.1-0.3l-0.1-0.3l-0.2-0.4
	l-0.2-1l0.1-0.4l0.4-0.2v-0.7l-0.5-0.1l-0.2-0.4l0.2-0.4L424.3,324.1z M436.4,348.8l-0.3-0.5l-0.3-0.4l-0.6-0.2l-1.3,0.4l-0.4,0.1
	l-0.1-0.1l-0.1-0.2l-0.2-0.1l-0.2-0.1l-1.6,0.4l-0.9,0.1v0.2l0.3,0.1l0.1,0.3v0.4v0.5l0.2,0.3l0.2,0.2l0.1,0.3l-0.2,0.5h0.2
	l-0.2,0.2H431h-0.1v0.2h0.2v0.2l-0.2,0.1l-0.2,0.1v0.1v0.3l0.2,0.1l0.2,0.1l0.1,0.1l-0.2,0.1l-0.1,0.1l-0.1,0.2l-0.1,0.2h0.2
	l0.3-0.2l1.4-0.4l0.1,0.2l0.1,0.1v0.1v0.3h0.2l0.2-0.3l0.3-0.3l0.3-0.1l0.1,0.3l-0.1,0.1l-0.6,0.9l0.8,0.3l0.4,0.1h0.5l0.2-0.2
	l-0.2-0.5l-0.3-0.5l-0.3-0.4l-0.1,0.1l0,0l-0.2,0.1l0.2-0.5l0.2-0.4l0.3-0.3l0.4-0.1l-0.1-0.1l-0.1-0.1h-0.2h-0.2l1-0.9h0.3l0.3,0.2
	l0.3,0.3l0.1,0.5l-0.1,0.3l-0.3,0.3l-0.6,0.4l0.4,0.1l0.4,0.7l0.4,0.2l0.1,0.1v0.3v0.3l0.2,0.1l0.7,0.2l0.2,0.1l0.3,0.2l0.1-0.2
	v-0.3V354l0.2-0.2h0.1l0,0v-0.2l-0.2-0.3l-0.3-0.3l-0.1-0.4l0.3-0.4l-0.4-0.3v-0.3l0.3-0.3l0.4-0.2h-0.2l-0.3-0.2l0.2-0.2l0.2-0.1
	l0.3-0.1h0.3l-0.1-0.8l0.4-0.6l0.6-0.5l0.6-0.3l-0.1-0.2v-0.3l-0.1-0.3v-0.1v-0.1h-0.1v-0.2l0.1-0.1l0.2-0.3l-0.7,0.4l-0.2,0.1H439
	h-0.1l-0.3,0.3l-0.5,0.8v0.3l-0.3,0.3l-0.7,0.4l-0.5,0.2v-0.2L436.4,348.8z M446.6,332.6l-0.4-0.4l-0.4-0.3l-2-0.6h-0.7l-0.7,0.3
	l-1.5,0.9h-0.4l0.2,0.4l0.4,0.4l1.7,1.3l0.9,0.5l0.5,0.1l2.3-0.8l0.3-0.3l-0.1-0.5l0.2-0.4L446.6,332.6z M409.8,408.6L409.8,408.6
	L409.8,408.6l-0.1,0.2L409.8,408.6h0.2l0.3,0.2l0.4-0.2h0.5l0.4,0.3l0.1,0.5l0.3-0.1l0.2,0.2l0.3,0.7l-0.3,0.2v0.2l0.2,0.2l0.2,0.3
	l0.2,0.4l0.1,0.2l0.5,0.5l0.4,0.3l0.4,0.1l0.4-0.3V412l-0.4-0.3l0.4-0.5l0.7-0.3l0.3,0.3h0.1l0.6,0.9v0.4l0.1,0.2l0.3,0.1l0.5-0.1
	l0.6-0.2l0.5-0.3l0.4-0.3l0.2-0.5l0.3-1.4l0.2-0.4L419,409v-0.8l0.2-1.6l-2.3,0.4l-0.5,0.2L416,407l-1-0.1l-0.7-0.5H414l-0.9,0.2
	l-0.2-0.1l-0.1-0.3l-0.1-0.3l-0.1-0.2l-0.9-0.4l-0.7-0.5l-0.3-0.4l-0.2-0.4l0.1-0.1l0.3-0.4l-0.1-0.2V403v-0.6l-0.1-0.1l-0.1-0.1
	l-0.1-0.2l-0.1-0.3l-0.6-0.7v-0.4v-0.5l-0.1-0.4l-0.6-0.7l-0.1-0.3l0.5-0.2v-0.2l-0.5-0.7l0.1-1.1l0.5-1l0.6-0.5l-0.4-0.5l-2.2-1.9
	l-0.1-0.3v-0.5l0.1-0.3l0.2-0.3l0.3-0.2l0.3-0.1l-0.5-0.3l-1.6-0.6h-0.5l-0.6,0.1h-0.6l-0.5-0.3l-0.4,0.5h-0.5l-0.5-0.2l-0.5-0.1
	l-1.2-0.1l-1.1-0.4l-1-0.5l-0.5-0.4l-0.2-0.4l-0.2-0.6l-0.4-0.4l-0.5-0.1l-0.5,0.3l-0.3-0.2l-0.3,0.2l-0.3-0.2l-0.7-0.1l-0.3-0.3
	l-0.2,0.2h-0.2l-0.1-0.1l0.1-0.2v-0.2l-0.7-0.1l-1.1-0.9l-1.1-0.5l-0.5-0.6l-0.3-0.6v-0.3l-0.2-0.4l-0.4-1.5v-0.3l-0.5-0.1l-0.5-0.3
	l-0.3-0.5l0.2-0.6l-0.3-0.3l-0.3-0.2l-0.4-0.1h-0.3l-0.1-0.1l-0.4-0.4l-0.3-0.1l-0.7,0.1l-1.3,0.8l-0.5,0.2H383l-0.3,0.1l-0.5,0.5
	l-0.4,0.1l0.1,0.2v0.3l-0.1,0.3l-0.2,0.3l-0.2,0.1h-0.5l-0.3,0.1l-0.1,0.1l-0.1,0.4l-0.1,0.1l-0.6,0.2L379,383l-0.8,0.2l-1.1,0.6
	l-0.6,0.1l-0.2,0.1l-0.6,0.4l-0.2,0.1l-0.2,0.1l-0.1,0.3v0.4v0.4l0.6-0.3l2.7-0.3l0.4-0.1l0.2-0.2v-0.4l-0.2-0.3l-0.3-0.1h-0.3v-0.2
	l0.3-0.1l0.4,0.1l0.4,0.2l0.4,0.1h0.3l0.2,0.1l0.5,0.6l0.3,0.3h0.4l0.8-0.2h0.4h0.3l0.6,0.2l0.9,0.5l2.4,1.8l0.6,0.3l0.1,0.1
	l0.2,0.6l0.2,0.1l0.2,0.1l0.7,0.8l0.6,0.3l0.7,0.5l0.2,0.2l0.1,0.2l0.1,0.4l0.2,0.1h0.2l0.1,0.1l0.1,0.1l0.6,0.5l0.1,0.3v0.6
	l0.1,0.2l0.3,0.3l0.5,0.2l1.1,0.2l0.4,0.2l0.4,0.4l0.5,0.9v0.2h-0.2v0.2l0.2,0.4l-0.3,0.5l-0.5,0.5l-0.3,0.5h0.2h0.1l0.1-0.1
	l0.1-0.1l0.6,1.4l0.3,0.3h0.4l0.8-0.2h0.4l1.7,0.4h0.4l0.8-0.2h0.5l0.4,0.1l0.9,0.3l0.5,0.1l1.7-0.2l1.4,0.1l0.1-0.2l0.2,0.2
	l0.3,0.5v0.1v0.2v0.3l0.2,0.3l-0.2,0.3l-0.2,0.1l-0.6,0.2h0.7l0.6,0.1l0.5,0.2l0.5,0.3l-0.5,1.1h0.3v0.2l-0.1,0.1l-0.1,0.1v0.1
	l0.2,0.1l0.2-0.1v-0.1v-0.1v-0.1l0.2-0.2l0.2-0.2h0.2l0.2,0.4l-0.4,0.4l-0.4,0.7l-0.1,0.6l0.6,0.1l-0.2-0.4l0.4-0.1l0.4,0.1l0.3,0.3
	l0.2,0.8l0.4,0.4l0.1,0.4l-0.1,0.3l-0.5,0.5l-0.1,0.2l0.1,0.2l0.4-0.1l0.2,0.2v0.8L409.8,408.6z M390.5,375.3l0.3,0.1l0.2,0.1
	l0.2,0.3l0.2,0.1l0.4-0.8l0.4-0.4l0.4,0.3l0.2-0.6l-0.2-0.5l-0.4-0.4l-0.4-0.2l-0.3,0.2l-0.3,0.3l-0.3,0.4l-0.1,0.3l-0.1,0.1
	l-0.3,0.1l-0.3,0.2l-0.1,0.6l0.2-0.1L390.5,375.3L390.5,375.3z M416,383l-0.2,0.1l-0.2,0.2l-0.1,0.3v0.3l0.2-0.2h0.2l0.2,0.1
	l0.2,0.3l0.1-0.2l0.1-0.1l0.1,0.5l0.6,0.2v0.3l0.3-0.2l0.3-0.1l0.2,0.1l0.1,0.4h0.1l0.3-0.3l0.2,0.2l0.3,0.9l-1,0.4l0.9,1.1l0.1-0.5
	l0.3-0.3l0.3-0.1h0.1l0.1,0.3l0.2,0.3l0.3,0.1l0.3-0.2h0.2l0.2,0.2h0.2l0.2-0.2l0.2-0.2l0.1-0.1h0.1h0.1v-0.3V386v-0.1l-0.1-0.1
	l-0.1-0.1l-0.3-0.5l-0.5-0.5l-1-0.7l-0.4-0.2l-0.1-0.1l-0.1-0.3V383l0.1-0.8v-0.3l-0.3-0.4l-1.7-1.2l-0.5,0.1l-0.3,0.3l-0.1,0.4v0.5
	l0.1,0.6v0.4L416,383z M403.7,371.1L403.7,371.1v-0.2l-0.4,0.3l-1.3,2l-0.4,1.2l-0.3,0.4L401,375l-0.3,0.5l0.8,0.1l0.8-0.6l0.6-0.9
	l0.4-1l0.3-0.2l0.4-0.7l0.1-0.7l-0.5-0.1l0.1-0.1V371.1z M397.2,375l-0.8-0.5l-0.7-0.6l-0.6-0.6H395h-0.1h-0.1v-0.2l-0.4,0.2
	l0.8,1.2l0.1,0.4l0.2,0.3l0.8,0.8l0.3,0.2v0.2l-0.3,0.2v0.2l0.2,0.2l0.7,0.1l0.4,0.3l0.2,0.1l0.6-0.1l0.5-0.3l0.8-0.9V376l-0.5-0.2
	h-0.7l-0.5-0.1l0.1-0.5L397.2,375z M467.5,379.1l0.2,0.3l0.3,0.1l0.4-0.2l0.7,0.3l0.3-0.3l0.1-0.6v-0.3l-0.4-0.2l-0.5-0.6l-0.3-0.7
	v-0.7H468l-0.2-0.1l-0.1-0.2v-0.3l-0.2-0.3l-0.2-0.2l-0.1-0.3l0.3-0.2l-0.5-0.3l-0.3-0.3l-0.9-1.3l-0.1-0.1l-0.2-0.2l-0.9-0.3l-1-1
	l-0.1-0.2l0.8-1.2l0.1-0.3l-0.4-0.3l-0.7-0.2l-0.5-0.3l0.2-0.7l-0.5-0.1l-4.5,0.1l0.2,0.8v0.6l-0.2,0.4l-0.7,0.2l-1.1,0.2l-0.5,0.2
	l-0.3,0.4h-0.2v-0.1l-0.1-0.3l-0.1,0.2l-0.1,0.1l-0.1,0.1l-0.1,0.2l-0.7-0.1l-0.9,0.2l-0.8,0.1l-0.3-0.7h-0.2l-0.2,0.2l-0.7,0.7
	l-0.2,0.1l-0.2,0.1l-0.2,0.1l-0.1,0.2v0.3v0.2l-0.1,0.1l-0.2,0.1l0.1,0.1l0.1,0.1h0.1h0.1l-0.1,0.3v0.4l-0.1,0.3l-0.3,0.1v0.2
	l0.5,0.2l0.9,0.9l0.5,0.2h0.3l0.2,0.1l0.4,0.3l0.4,0.2l2.1,0.8l0.5,0.1l0.5-0.1l0.4-0.3l1.1-1.6h0.1l0.4-0.9l0.3-0.4l0.4-0.2
	l0.4-0.1l0.5-0.1h0.3l0.8,0.2l0.3,0.1l0.3,0.3l0.1,0.3l-0.3,0.1v0.1l-0.7,0.6l-0.7,0.7l-0.3,0.1h-0.3H459l-0.3,0.2l-0.4,0.7
	l-0.1,0.1l-0.9,0.2h-0.1h-0.1H457l-0.2,0.1l-0.2,0.2l-0.1,0.1v0.2l0.4,0.1l0.3,0.3l0.8,1.1l0.2,0.2l0.3,0.1l1.3,0.1l1.5,0.3l0.6,0.3
	l0.6,0.4l0.3,0.2l0.9,0.1l0.8,0.3l0.4,0.1l1.6-0.2l0.8-0.2l0.7-0.3l-0.1-0.3l0,0l0,0l0.1-0.1v-0.2l-0.5-0.4l-0.9-1.3l-1-0.8
	l-0.4-0.5l0.4-0.3l0.9-0.1l0.4,0.1l0.2,0.5l0.1,0.1l0.3,0.2v0.2l-0.1,0.3v0.1v0.2v0.2v0.2l0.2,0.2l-0.2,0.2L467.5,379.1z
	 M457.3,394.1L457.3,394.1l-0.1,0.2l-0.1,0.1l-1.1-1.3l-0.1-0.2l-1.2-0.4l-0.5-0.1l-3.7,0.8l-0.1,0.5l-0.2,0.3l-0.1,0.4v0.5l0.2,0.4
	l0.8,1l0.4,0.3l0.4,0.2l0.3,0.1l0.3,0.1l0.3,0.3l0.2,0.3l0.1,0.5v0.4l-0.1,0.3l0.2,0.1l0.2,0.1l0.2,0.2l0.1,0.2l0.1-0.1l0,0l0,0
	v-0.1l0.1,0.4l-0.1,0.8l0.1,0.4l-0.4,0.2l-0.1,0.3v0.4l-0.2,0.4h-0.1h-0.6l-0.3,0.3l-0.1,0.1l-0.5,0.1l-0.3,0.1l-0.2,0.2l-0.2,0.5
	v0.4l0.2,0.2l0.4-0.3v0.2v0.4v0.2l0.1-0.1l0.3-0.1l0.1-0.1l0.1,0.4l0.2,0.4l0.2,0.2h0.1h0.1l0.5,0.7l0.3,0.2l0.4,0.1l0.5,0.2
	l0.2-0.1l0.2-0.2l0.2-0.7l0.2-0.3l1.2-0.4l0.6-0.3v-0.5l-0.2-0.8l0.3-0.7l0.6-0.5l0.7-0.1l-0.3-1.3l-0.3-2.4v-0.4l0.1-0.5l0.3-0.5
	v-0.2h-0.4l0.2-0.2l-0.2-0.1l-0.1-0.1l-0.2-0.3l0.6-0.2l0.1-0.6v-0.6l0.3-0.4l-0.2-0.4l-0.3-0.3l-0.3-0.1l-0.4,0.1h0.1h0.1l0,0v0.1
	L457.3,394.1z M421.4,443.5l0.2,0.8l0.4,0.9l0.4,0.6l0.9-1l0.1-0.1l0.4-0.2l0.1-0.1v-0.2l-0.3-0.9l-0.9-1.1l-0.3-0.5h-0.2l-0.2,0.2
	l-0.2-0.1l-0.6-0.5h-0.5v0.1l0,0h0.1h0.1l-0.1,0.2v0.1v0.2l0.3,0.1l0.3,0.5l0.3,0.2v0.2L421.4,443.5z M429.3,422.7l0.2,0.3l0.3,0.2
	l1,0.5l0.8,1l0.3,0.1l0.3,0.1l0.3,0.6l0.3,0.1l0.4,0.1l0.7,0.4l1.2,0.2l0.3-0.1l0.2-0.8l0.6-0.8l-0.1-0.3L436,424l-0.1-0.2l-0.2-0.1
	l0.2-0.2l-0.6-0.2l-0.8-0.4l-0.7-0.1l-0.4,0.5l-0.2-0.4l-0.4-0.3l-0.5-0.1l-0.4,0.3l-0.1-0.2l-0.1-0.1l-0.2-0.1h-0.2v-0.2h0.2V422
	l-0.2-0.1h-0.1l-1.4-0.1l-0.3,0.1l-0.1,0.3l0.1,0.4L429.3,422.7z M429.2,419.9l0.2-0.6l-0.1-0.4l-0.3-0.2l-0.4,0.2l-0.2-0.2v-0.2
	l0.2-0.2l0.2-0.3v-0.4h0.1h0.1l0.2-0.1l-1-0.9l0.4-1l0.1-0.6l-0.2-0.3h-2l-0.7-0.3l-0.2-0.1l-0.1-0.2l-0.2-0.7v-0.2l0.1-0.1
	l-0.1-0.2l-0.2-0.2l-0.3-0.1h-0.2l-0.1-0.1l-0.1-0.2V412l-0.4-0.2l-0.5,0.1l-1.4,0.8l-0.2,0.2l-0.1,0.3l0.1,0.3l0.1,0.2v0.1
	l-0.3,0.1l0.3,0.3l0.3,0.6l0.2,0.2l-0.1,0.5l0.1,0.2l0.2-0.1l0.2-0.3h0.2l0.4,0.5l0.5,0.4l0.5,0.6l0.1,0.9l0.4-0.2l0.3,0.2l0.4,0.8
	l0.3,0.3l0.3,0.2l0.3,0.1h0.4l0.1,0.2l0.5,1.3l0.3,0.3l0.6,0.4l0.2,0.3h0.2l-0.1-0.5l-0.1-0.1l0.3-0.4L429.2,419.9z M428.7,430.1
	l-0.1-0.3l-0.1-0.2l-0.2-0.1l-0.2-0.1l-0.1-0.1l0.1-0.2l0.2-0.3l0.1-0.2l-0.1-0.3l-0.2-0.5l-0.2-0.4l-0.2-0.3l-0.6-0.1H427v0.3
	l0.2,0.7v0.5l-0.1,0.5l-0.3,0.4l-0.5,0.1l0.2,0.2h0.1l-0.2,0.2l-0.2,0.2l-0.1,0.2l-0.1,0.3h0.5h0.2v0.2l-0.1,0.2l-0.1,0.2v0.2v0.3
	l0.4-0.3l1.5-0.8l0.2-0.1L428.7,430.1z M419,449.5l0.7-1.2l0.2-0.2v-0.2h-0.1l0,0v-0.1v-0.1l-0.2,0.2h-0.2l-0.1-0.1l-0.1-0.1
	l-0.3-0.1l-0.4,0.1l-0.3,0.2l-0.2,0.2l-0.1,0.4l0.1,0.2l0.1,0.2l0.1,0.4l0.2,0.2l0.4,0.1L419,449.5z M418,438.8l0.1-0.6v-0.6
	L418,437l-0.1-0.4l-0.1-0.1l-0.1-0.1h-0.1l-0.1,0.2h-0.2l-0.3-0.2l-0.4,0.1l-0.8,0.5l0.2,0.2l-0.2,0.1v0.1l0.1,0.2l-0.2,0.2
	l-0.1,0.2v0.2l0.2,0.2l-0.2,0.2l-0.1,0.1l0.1,0.4l0.1-0.2l0.2-0.1h0.2l0.2,0.1l0.1-0.2h0.1l0.1,0.1l0.1,0.3l0.2-0.1h0.2l0.2,0.1
	l0.2,0.1h-0.1h-0.1l0,0v0.1l0.1,0.1l0,0l0,0l0.1,0.1l0.2-0.2l0.2-0.2L418,438.8v-0.4h0.2L418,438.8z M439.1,429.7h0.3h0.2l0.1-0.6
	l0.4-0.1h0.5l0.4-0.2l0.1-0.3l0.1-0.3l-0.1-0.2l-0.5-0.2l-0.2-0.2l-0.1-0.2l-0.1-0.1l-0.8-0.2l-0.2,0.1l-0.1,0.6l-0.1,0.1l-0.7-1.3
	L438,427l-0.3,0.1l-0.3,0.2l-0.1,0.5l0.4,0.1l0.1,0.3l-0.1,0.7h-0.1h-0.1l-0.1,0.1l-0.1,0.2v0.1v0.1v0.1l-0.1,0.2L439.1,429.7z
	 M418,449.9l-0.5,0.1l-1,0.5l-0.6-0.2l-0.4-0.4l-0.3-0.2l-0.3,0.3v0.2l0.2,0.3l0.2,0.4l0.2,0.2l0.3-0.2l0.2,0.2l0.2,0.4l0.1,0.3
	L416,452h-0.9l-0.5-0.2l-0.3-0.9L414,451l-0.2-0.1l-0.2-0.2l-0.2-0.2l-0.1-0.2l-0.2,0.3l-0.2,0.6l-0.2,0.2l0.1,0.1l0.2,0.2l-0.1,0.1
	l-0.1,0.2l-0.1,0.1l0.1,0.4l-0.2,0.7l0.1,0.5l0.9-0.4l3-0.1l0.8-0.3l0.5-0.2l0.2-0.2l-0.1-1.7l0.1-0.3L418,449.9z M414.3,431.6
	l-0.2,0.5l-0.2,1.1l0.5-0.1l0.6-0.3l0.5-0.5l0.3-0.3l0.1-0.5l0.2-0.6l0.3-0.3l0.4,0.1l0.1-0.7l-0.3-0.5l-1-0.6l0.1-0.1l0.2-0.4
	l0.1-0.2v-0.4h-0.2l-0.4,0.5l-0.6,0.5l-0.5,0.6l-0.2,0.8l0.4-0.2l0.3,0.2l0.1,0.3l-0.2,0.3v0.2l0.1,0.1l0.1,0.1l0.1,0.1v0.2
	L414.3,431.6z M412,426.5l0.5-0.4l0.7-1l0.7-0.8l0.6-0.9l0.2-1l-0.7-1h-0.1h-0.1h-0.1v0.2h-0.2l-0.2-0.2h-0.2l-0.2,0.1l-0.2,0.2v0.2
	h0.1h0.3l-0.1,0.2l-0.2,0.2l-0.4-0.1l-0.4,0.5l-0.3,0.7v0.6v0.3l-0.1,1.6v0.4L412,426.5z M465.1,454.6l-0.9-0.5h-0.8v0.2l0.2,0.2
	l0.2,0.2l0.3,0.1v0.1l-0.1,0.3l0.1,0.3l0.3,0.2l-0.2,0.1h-0.2l-0.2-0.1h-0.3l-0.1,0.1l-0.2,0.4l-0.2,0.1l-0.3-0.2l-0.4-0.4l-0.4-0.3
	l-0.4,0.2l-0.3-0.2l-0.1,0.3l0.1,0.4l0.2,0.4l-0.1,0.1v0.1l-0.1,0.2l0.4,0.3l0.5,0.8l0.4,0.2l0.6-0.1l0.2-0.2l-0.1-0.4v-0.4l0.4-0.7
	l0.3-0.3l0.3-0.1h0.7l0.3-0.1l0.4-0.3l0.1,0.3l0.1,0.1h0.1l0.1-0.2l-0.2-0.4L465.1,454.6z M448.6,461.3l-0.2,0.2l-0.2,0.3l-0.3,0.1
	l-0.1,0.1l0.1,0.2l0.1,0.2l0.2,0.2h0.1h0.1l0.7,0.1l0.3-0.1l0.3-0.1l0.4-0.1l0.3,0.1l0.2,0.2h0.2l0.2-0.4l-0.5-0.1l-0.8-0.7
	L448.6,461.3z M451.8,448.8l0.7-1.2l0.3-0.3l0.4-0.1l1.1-0.8l0.4-0.4h0.3l0.4-0.1l0.5-0.1l0.4,0.2h0.1h0.1l0,0v-0.1l-0.5-0.2
	l-0.5-0.3l-0.4-0.4l-0.3-0.4h-0.2l-0.2,0.2l-0.3,0.2l-0.7,0.2v0.2h0.2l0.1,0.1l0.1,0.1l0.1,0.1v0.2l-2.9,1.5h-0.3v0.1v0.3l0.2,0.2
	l0.3-0.1l-0.3,0.7l-0.1,0.1h-0.6l-0.2,0.1l-0.2,0.2h-0.2l-0.3-0.2l-0.4,0.1l-0.3,0.3l-0.2,0.3l-0.4-0.2l0.4,0.8l1.1-0.1l2-0.7
	L451.8,448.8z M456.9,426l0.3-0.2l0.5-0.2l2.1-0.3l0.4-0.2l2.2-2l0.6-0.8l0.4-0.8l-1.2,0.1l-0.8,0.2l-0.7,0.7l-0.7,0.4l-0.7,0.2
	l-0.5-0.2l-0.5,0.2l-1.4-0.2h-0.6l-0.3,0.2l-0.5,0.4l-0.4,0.5l-0.2,0.5l-0.2,0.4l-0.8,0.8l-0.2,0.4l0.1,0.6l0.4,0.1l1-0.3h0.3h0.2
	h0.2l0.2-0.1l0.3-0.2L456.9,426z M472.5,421l0.6,0.2l0.2,0.2l0.4,0.7l0.1,0.2l0.1,0.2l0.1,0.2l0.2,0.1h1.6h0.2l0.2-0.1l0.1-0.1v-0.2
	l0.1-0.2l0.3-0.3l0.2-0.1l2.3-0.9l0.9-0.2l0.6,0.2l0.1-0.4v-0.3l-0.2-0.1l-0.3,0.2l-0.1-0.3l-0.2-0.3l-0.1-0.2v-0.3l0.1-0.1l0.7-0.3
	l-1.2-0.1l-0.7-0.2v-0.4l-0.2,0.2l-0.2,0.1h-0.3l-0.4-0.1l0.2,0.4l0.2,0.3l0.1,0.3l-0.1,0.3l-0.3-0.3l-1-0.7l-0.9-0.2l-0.7-0.5
	l-0.3-0.2l-0.9-0.2h-0.9l-2.8,0.7l-0.2,0.2l0.3,0.4l-0.4,0.1l-0.4,0.1l-0.4,0.1l-0.3,0.3l-0.1,0.4v0.8l0.1,0.4l0.1,0.5l0.2,0.3
	l0.3-0.3h0.2v0.2h0.2l0.1-0.4l0.3-0.3l0.4-0.2l0.7-0.1l0.4-0.1h0.2l0.2,0.1L472.5,421z M436.5,451.4L436.5,451.4L436.5,451.4
	l1.5,1.7l0.9,0.5l0.5-0.8v-0.2l-0.1-0.3V452l0.2-0.2l0.3-0.1l-0.3-0.5l-0.4-0.2l-0.4-0.1l-0.4-0.2l-0.3-0.3l-0.4-0.8l-0.3-0.4
	l-1.1,0.8l0.1,0.2l-0.1,0.4l-0.1,0.4l-0.1,0.3L436.5,451.4l0.2-0.1L436.5,451.4L436.5,451.4z M432.8,453.3l1.3-1.4v-0.2v-0.1
	l0.1-0.1h-1l-0.2,0.1l-0.5,0.4l-0.3,0.1l-0.9,1.9h0.6L432.8,453.3z M440,462.3l-0.2,0.2l-0.3,0.1h-0.6l-0.3,0.1l0.5,0.2l1.2,0.3
	l0.5,0.1l0.5-0.2l0.4-0.5l0.2-0.6l0.1-0.6l-0.3-0.8l-0.7-0.8l-0.9-0.6l-0.9-0.3h-0.1L439,459l-0.1,0.1v0.2l1,0.3l0.4,0.2l-0.1,0.4
	v0.2l0.2,0.2l0.1,0.3l0.2,0.8l-0.2,0.2L440,462.3z M436,441.9l0.1-0.3l0.1-0.2l0.3-0.1v-0.2h-0.3v-0.2h0.3v-0.2l-0.4-0.2v-0.4
	l0.4-1.1l0.1-0.2l0.1-0.2l0.1-0.2v-0.2h-0.3h-0.3l0.1,0.3l0.1,0.1l-0.3,0.4l-0.7-0.1l-0.2-0.2l0.4-0.5l-0.7,0.2l-0.8,0.5l-0.7,0.6
	L433,440h0.2h0.2l0.2,0.1l-0.8,0.5l-0.3,0.4l-0.2,1.2v0.4l0.2,0.2l0.3,0.1l0.5,0.5l0.2,0.1h0.9l0.4-0.1l0.7-0.5l0.3-0.3l0.2-0.2
	L436,441.9z M442.7,444.1l0.4-0.1h0.2l0.1-0.1l0.7-1.5l0.1-0.7l0.2-1.3l0.1-0.6l-0.1-1.3l-0.2-0.6l-0.3-0.6l-0.6-0.5l-0.4-0.2
	l-0.2,0.1l-0.1,0.1h-0.5l-0.2,0.1l-0.4,0.7l-0.1,0.2l-1.6,1.2l-0.9,1.1l-0.3,0.2l-0.1-0.2h-0.1l-0.1,0.1l-0.1,0.1v0.2l0.3,0.2
	l0.3,0.4l0.4,0.8v0.1v0.2v0.3l0.1,0.2l0.1,0.2l0.1,0.2v0.2l-0.1,0.2l0.7,0.4l0.2,0.2l0.1,0.2l0.1,0.6l0.1,0.2l0.2,0.2h0.1l0.1,0.2
	l0.3-0.2l0.5-0.1l0.3-0.1L442.7,444.1z M482,450.2l0.5-0.1l1.5-1.6l0.6-0.4l2.7-0.8l0.8-0.5l-0.4-0.6l-1.2-0.3l-0.3-0.5l-0.4,0.1
	l-2.5,0.4l-2.6,1.6l-0.1,0.2l-0.9,0.7l-0.3,0.7l-0.2,0.3l-0.3,0.3l-0.5-0.1l-0.1-0.1l-0.1,0.2l-0.3,0.3l-0.1,0.2l-0.3-0.1l-0.1,0.4
	l-0.1,1.1l0.1,0.3l0.3,0.4l0.4,0.3l0.4,0.1l-0.2-0.4v-0.4l0.2-0.3l0.4-0.1l-0.3-0.7l0.4-0.4l1.4-0.7l0.3,0.2l0.6,0.2L482,450.2z
	 M477.3,444.1l-0.2,0.4h0.2l0.2,0.1l0.2,0.2l0.2,0.3l0.2-0.2h0.2l0.2,0.1l0.2,0.1l0.2-0.1l0.1-0.3l0.1-0.3l0.1-0.2l0.8,0.2h0.4
	l0.2-0.4h-0.2v0.2h-0.2v-0.1V444l0.1-0.2l-0.1-0.4l0.2-0.6l-0.1-0.4l-0.2-0.1h-0.2l-0.2,0.1l-0.2,0.3v-0.5l-0.3-0.2l-0.3-0.2
	l-0.2-0.4h0.3v-0.2l-2.1-0.9l-0.3-0.4l-0.1,0.4l0.1,0.1l0.2,0.1l0.2,0.2l0.2,0.5l0.1,0.2l0.2,0.2h0.1l0.2-0.1h0.2l0.2,0.2v0.2
	l-0.1,0.2l-0.1,0.2l-0.1,0.1l-0.2,0.3l-0.2,0.3l-0.1,0.4l0.1,0.5L477.3,444.1L477.3,444.1z M499,456.2l0.3,0.2l1.1,0.4l-0.2,0.1
	l-0.2,0.2l-0.1,0.1v0.2h0.4l0.3-0.1l0.6-0.3v-0.2l-0.1-0.1l-0.1-0.1l-0.1-0.1h0.1l0.2-0.1l-0.1-0.2v-0.3v-0.4l0.1-0.3V455H501
	l-0.2,0.1l0.1-0.1l0.1-0.1l0.1-0.1l0.1-0.1l-0.1-0.1l0,0l0,0l-0.1-0.1l-0.9,0.7l-0.2-0.3h-0.1l-0.2,0.1l0.2-0.4l0.3-0.2l0.7-0.2
	v-0.3l-0.5,0.1l-0.6,0.3l-0.4,0.5v-0.2l-0.2,0.2h-0.1H499v0.3l-0.2,0.3l-0.5,0.2l-0.2,0.3h1.2L499,456.2z M490.2,460.9L490.2,460.9
	l-0.5,0.2h-0.5l-0.3-0.3l0.2-0.6l-0.4-0.2l-0.3-0.9l-0.3-0.2l-0.4,0.2l-0.4,0.4l-0.4,0.1l-0.2-0.5l-0.1,0.3v0.3v0.6l0.1,0.3l0.3,0.2
	l0.1,0.3h0.2l0.2-0.3l0.2-0.2l0.3-0.1l0.3,0.2l-0.1,0.5l0.2,0.5l0.3,0.3h0.3l0.2,0.1l0.1-0.1l0.3,0.1l0.3-0.2l0.3-0.3l0.2-0.3
	L490.2,460.9L490.2,460.9z M484.5,488.1l-0.2-0.2l0,0l0,0v-0.2l0.1-0.1l0.2-0.2l0.1-0.2l-0.1-0.1l-0.2-0.2l-0.6-1.1l-0.6-0.5
	l-0.1-0.2v-0.5l0.1-0.5l0.2-0.4l0.2-0.3l0.1-0.3l0.1-0.5l0.3-0.4l0.3-0.3l0.1-0.2v-0.3l-0.1-0.3v-0.3v-0.7l0.1-0.4l0.3-0.6l0.1-0.4
	l-0.1-0.1l-0.1-0.1h-0.2l-0.2,0.2l-0.4,0.5l-0.1,0.2h-0.2v-0.2h-0.2l-0.4,0.2v0.2l0.1,0.5v0.9l-0.2,0.9l-0.7,0.8l-0.1,0.8l-0.2,0.8
	l-0.6,0.4l-0.2,0.1l-0.2,0.3l-0.2,0.4v0.4l0.2,0.3l0.6,0.4l0.2,0.2l0.1,0.3v0.2l-0.1,0.3v0.4l0.3,0.8v0.3l-0.4,0.1v0.2h0.2v0.2
	l-0.4,0.1v0.3l0.2,0.3l0.2,0.3l0.3,0.1h0.4l0.2,0.2l-0.2,0.5l0.3-0.2l0.2-0.2l0.2-0.2l0.1-0.2h-0.2l-0.1,0.1v0.1l-0.1,0.1l0.1-0.8
	l0.5-0.6l0.6-0.3l0.6,0.2l0.1-0.6l-0.1-0.3L484.5,488.1z M510,460.1l-0.2-0.3l-0.2-0.2h-0.2l-0.7,1l-1.6-0.1l-0.8,0.4l-0.4,0.3
	l-2.8,1.5l-1.5,0.5l-0.2,0.2l-0.2,0.3l-0.8,0.9l-0.2,0.3l-0.1,0.1l-0.7,0.2l-0.1,0.1l-0.2,0.5L499,466l-0.2,0.4l-0.1,0.3v0.2
	l-0.1,0.2l-0.2,0.2l0.1,0.3l-0.2,0.2l-0.6,0.2l-1,0.7l-0.4,0.2l0.2,0.3h0.1h0.2l0.2,0.2v0.1l-0.2,0.2v0.2l0.6,0.7l0.3,0.2l0.3,0.4
	l0.1,0.7l-0.2,0.8l-0.7,2.2l-0.3,0.4l0.5,0.9l0.1,0.2l0.2,0.1l1,0.7l1.2-0.7l0.9-0.8l0.7-0.9l1-1.6l0.4-0.4l1.1-0.7l0.6-0.2h0.5
	l1.3,0.4l-0.2-0.5l-0.1-0.1l0.2-0.2l0.1-0.2l0.1-0.2l0.1-0.3h-0.2l-0.2-0.1l-0.2-0.1l-0.2-0.2l0.6-1.5l0.2-0.1l0.1-0.2v-0.2l0.1-0.1
	h0.2h0.4h0.1l0.1-0.3l0.3-0.9l0.2-0.2l0.2-0.2l0.1-0.4l0.1-0.9l0.1-0.4l0.5-0.7l0.2-0.3l0.2-1.1l0.1-0.2l0.5-0.3l-0.3-1.4l0.3-0.5
	L510,460.1L510,460.1L510,460.1z M323.2,399.3l0.2,0.2h-0.5l0.3,0.2v0.2h-0.3h-0.3l-0.2-0.1l-0.2-0.1l0.5-1l0.2-0.5l0.2-0.7
	l-0.3-0.2l-0.2-0.2l-0.3-0.1h-0.4l0.2-0.3l0.1-0.5l-0.1-0.4l-0.4-0.1l-0.3,0.7l-0.2,0.2l-0.4-0.3l-0.1,0.5l0.2,0.3l0.3,0.2l0.2,0.2
	l0.1,0.3l0.1,0.7v0.2l0.5,1.1l0.3,0.5l0.4,0.4l-0.2,0.2l0.4,0.6l0.3,0.1l0.4-0.1l0.7-0.1v-0.2l-0.3-0.1l-0.2-0.3l-0.2-0.9h0.4h0.1
	l-0.5-0.4l-0.3-0.2L323.2,399.3z M386.4,431.7h-0.2v-0.2l0.2-0.2h-0.3h-0.3l-0.2-0.1v-0.3l0.9-0.2v-0.3h0.3l0.9,0.1l-0.1-0.1v-0.1
	v-0.1v-0.1l0.4,0.1l3.1-0.2l1.5-0.5l0.5-0.3V429l-0.1-0.2v-0.1v-0.1l0.1-0.1l-1.2-1l-0.5-0.2l-0.6-0.4l-0.6-0.1l-0.2-0.1h-0.2v-0.2
	h0.2l0.5-0.2v-0.2l-0.4-0.1l-0.3-0.1l-0.3-0.2l-0.3-0.3l0.4-0.5l0.3-0.9l0.1-0.8l-0.3-0.4l-1.3,0.1l-0.5,0.2l-0.4,0.3v0.2l0.7,0.3
	l0.5,0.8v0.8l-0.6,0.4l-0.3-0.1l-0.3-0.2l-0.5-0.4l-0.2-0.1h-0.1h-0.1l-0.9-0.9l-0.2,0.2l-1-0.8l-0.5-0.2l-0.1-0.3l-0.1-0.7h0.3
	l-0.2-0.7l-0.1-0.5l0.1-0.5l0.2-0.7h-0.4l-0.3-0.2l-0.5-0.1l0.1-0.3v-0.2l0.1-0.1l0.6-0.1l0.5-0.3l0.3-0.1l-0.1-0.2v-0.3v-0.3
	l0.1-0.3l-0.5-0.2l-0.4-0.3l-0.8-0.8l-0.4,0.2l-0.6,0.1l-0.6-0.1l-0.4-0.2l-0.5,0.1l-0.3-0.5l-0.1-0.6l0.2-0.3l0.2-0.2v-0.4V414
	l0.1-0.2h0.3l0.2,0.1h0.2l0.2-0.1l1,0.4l1.2-0.6l1.2-0.9l0.9-0.5l2.6-0.2l2,0.2l0.5-0.2l-0.9-0.2l0.4-0.2l0.9-0.9l0.3-0.1l0.3-0.1
	h0.6l0.1-0.1l0.1-0.1l0.2-0.1l0.3-0.1h0.9l0.2-0.1l0.2-0.1h0.2l0.2,0.2l0.2,0.6l-0.2,0.5l-0.9,0.8l0.2,0.2l0.3,0.1h0.3h0.4l0.3,0.1
	l0.2,0.3l0.2,0.2l0.4-0.2v0.2l-0.1,0.1l-0.2,0.1v0.1v0.2l0.4-0.1l0.4-0.2l0.4-0.1l0.4,0.2l0.1,0.5l1,1.5l0.1,0.6l0.5,0.6l0.1,0.3
	l-0.2,0.4h0.2l0.1,0.1v0.2v0.2l0.2-0.3l0.3,0.1h0.2l0.1-0.7h0.2l0.1,0.2l0.1,0.1l0.1,0.1l0.1,0.1l0.4-0.1l0.4,0.3l0.4,0.5l0.2,0.5
	l0.2-0.2l0.1-0.1l0.3,1.3l0.2,0.6l0.3-0.2h0.2v1.2l0.2,0.4l0.4,0.2l0.4,0.1l1,0.4l0.3,0.2l0.3-0.4l0.4-0.4l0.2-0.3l-0.3-0.3l0.1-0.2
	l0,0v0.1v0.1v-0.2v-0.1v-0.1h-0.2v-0.2h0.3v-0.2l-0.3-0.2l0.6-0.6l0.1-0.4v-0.7l-0.1-0.5l-0.2-0.3l-0.6-0.4v-0.2l0.1-0.1l0.1-0.1
	l0.1-0.1l-0.1-0.2l-0.1-0.2v-0.2l0.2-0.3l-0.4-0.2h-0.1l0.2-0.2h-0.4l-0.3-0.1L405,415l-0.2-0.2l0.8-0.3l0.1-0.2l-0.1-0.3l-0.2-0.2
	l-0.3-0.1h-0.3l0.1-0.4V413l-0.1-0.3v-0.3l0.1-0.3l0.3-0.7l0.1-0.3l-0.1-0.3l-0.2-0.3l-0.2-0.4l-0.1-0.6l-0.4-1.4v-0.6l1.2-0.7h0.4
	l0.2,0.4v-0.4l0.1-0.3l0.1-0.2l0.3-0.1l-0.3-0.2v-0.2l0.1-0.2l0.1-0.3l-0.1-0.3l-0.5-0.2l-0.1-0.2l-0.2-0.2l-1.2-1l-0.6-0.8
	l-0.4-0.4l-0.5-0.2l-0.5-0.1l-2.4-1l-0.3-0.1l-0.6-0.3l-1.4,0.2h-0.4l-0.9-0.6l-1.2-1.8l-0.8-0.4v-0.2l0.2-0.2l-0.1-0.2l-0.3-0.1
	l-0.3-0.1V397l0.2-0.1l0.5-0.3l-0.9-0.9l-0.6-0.3l-0.3,0.4l-0.3,0.2l-2.5-0.4l-1.7,0.1l-0.4-0.1l-0.1-0.2l0.1-0.2l0.2-0.2l0.2-0.1
	h0.6l0.2-0.1v-0.2l-0.4-0.2l-0.7-0.2l-0.3-0.2l0.1-0.1l-0.3-0.2h-0.3l-0.3,0.4l0.2-0.7l0.3-0.3l0.4-0.2l0.3-0.3l0.1-0.4l-0.1-0.4
	l-0.3-0.4l-0.4-0.3L387,391l-0.8-0.1l-0.4-0.1l-0.8-0.5l-0.5-0.1l-0.5,0.2l0.2,0.1l0.5,0.3l-0.3,0.4h-0.3h-0.3l-0.3,0.1l-0.3,0.3
	l-0.2,0.1h-0.5l-0.3-0.3l-0.8-2.5l-0.4-0.6l-0.6-0.2H379l-0.4-0.1l-0.5-0.4l-0.3-0.1h-0.4l-0.3,0.1l-0.5,0.5l-0.2-0.4l-0.4-0.4
	l-0.4-0.3l-0.3-0.1H375l-0.5,0.2h-0.2l-0.2-0.1l-0.3-0.3l-0.3-0.2l-0.5-0.7l-0.6-1h-0.3l-1.2,0.6l-0.2-0.2h-0.3l-0.3,0.1h-0.4
	l0.2-0.5h-0.2l-0.3,0.4l-0.5-0.1l-0.2-0.4l0.5-0.3v-0.2l-1.2,0.2v-0.9l0.2,0.2l0.1,0.1l0.2-0.2l0.2-0.1l0.2-0.1h0.2l0.3-0.1l0.2-0.1
	l0.2-0.2l0.5-0.3h0.2l0.9,0.6v0.1l0.1,0.1l0.4,0.3l0.2,0.1l0.5-0.3l0.3-0.1l0.1,0.3l0.2,0.3l0.5-0.1l0.6-0.1h0.4l0.1-0.3l0.2-0.1
	h0.6l0.2-0.2l0.1-0.7l0.1-0.2l0.3-0.1l0.3,0.1l0.3,0.1l0.3,0.1l0.3-0.1l0.5-0.3h0.4l-0.1-0.1l-0.1-0.3h0.2l0.1-0.1l0.2-0.2h0.2
	l0.4,0.1h0.1l0.2-0.2l0.2-0.2l0.2-0.2l0.1-0.2l0.2-0.6l0.1-0.2l0.2-0.2l0.8-0.4l0.2-0.2V379l-0.8,0.1l-0.7,0.2l-1.3,0.8l-0.1-0.5
	l0.2-0.3l0.8-0.5l-0.1-0.2v-0.1l0.2-0.4l-0.4-0.5l-0.2-0.6l-0.3-0.5l-0.6-0.4l0.1,0.2l0.1,0.2h-0.1h-0.1l0,0v0.2l-0.4-0.7l-0.1-0.6
	l-0.1-0.6l-0.2-0.5l-0.2,0.2l-0.1-0.4l-0.2-0.2h-0.1l0.1,0.3l-0.3,0.3l-0.2,0.3h-0.2l-0.7-2v-0.4v-1.2l0.4-0.5l0.9-0.2l1-0.1
	l0.6-0.1l-0.3-0.3l-0.1-0.4l0.1-0.4l0.3-0.3v-0.2l-0.2-0.3h0.1l0.6,0.1h0.7h0.2l0.1,0.1l0.3,0.5l0.1,0.2l0.1,0.2v0.1v0.1l1.9,0.2
	l0.4,0.2l0.5,0.3l0.4,0.4l0.4,0.5l0.3,0.6l-0.1,0.5l0.3,0.3l0.6,1.1l0.1,0.3l-0.1,0.4l-0.2,0.4l-0.2,0.2l-0.1-0.1l-0.1-0.1h-0.2
	l-0.1,0.1l0.2,0.3l-0.3,0.4l-1.8,1l0.3-1.3V375l-0.8,0.4l-0.3,0.3l0.1,0.4l-0.3,0.4l-0.2,0.5l1,0.3h0.6l0.4-0.2l0.4-0.2l0.6-0.2h0.6
	l0.3,0.1l0.1-0.1l0.2-0.1l0.2-0.1l0.2-0.1V376h-0.2l-0.1-0.1l-0.1-0.1l-0.1-0.1l0.4-0.2l0.5-0.1l0.9-0.1l0.5-0.2l0.8-0.7l0.3-0.2
	v-0.4l-1.3-2.5l-0.5-1.7l-1.2-1.1l-0.3-0.7l-2.1-2.4l-0.3-0.4l-0.3-1l-0.1-0.1l-0.1-0.1l-1-0.7l-1.3-0.5l-1.3-0.9l-0.3-0.3l-0.4-0.6
	l-0.6-1.9l-0.8-1.8l-0.1-0.5l-0.1-0.7l-0.1-0.6l-0.2-0.6l-0.2-0.4l-0.6-0.8l-0.6-0.5l-0.6-0.3l-0.9-0.8l-0.3-0.3l-0.2-0.4l-0.3-1.2
	V350v-0.6l-0.1-0.1h-0.2l-0.1-0.1l-0.1-0.1l-0.6-0.2l-0.1-0.1l-0.2-0.1l-1.3-1.1l-0.3-0.9l-0.1-0.2l-0.3-0.1l-0.1-0.3l0.1-0.7
	l-0.1-0.7l-0.3-0.5l-0.2-0.5l0.1-0.7l1-2.1v-0.4l0.8-2.2l0.7-1.2l0.3-0.8l-0.1-0.3l-0.5-0.1l-0.3-0.3l-0.2-0.4l-0.3-0.3l0.1-0.5
	l-0.1-0.5l-0.3-0.5l-0.4-0.3l0.3-0.3l0.3-0.1h0.6l0.4,0.2l0.2,0.1l0.1-0.2v-0.3l0.1-0.2l0.2-0.1h0.2l-0.5-0.3v-0.4l0.4-0.3h0.4v0.2
	l0.3,0.2l0.3,0.2h0.2l0.1-0.4h0.2v0.2h0.2v-0.5l0.2,0.2h0.2l-0.2-0.6l0.1-0.5l0.3-0.4l0.5-0.3l0.2,0.2l0.2,0.1h0.5v-0.1l0.2-0.2
	l0.4-0.2l0.3-0.3l0.2-0.4l0.1-0.5l-0.2-0.6l0.7-0.3l0.7,0.1l0.6,0.4l0.4,0.8l-0.2,0.4v0.2l0.1,0.1l0.2,0.1l0.6,0.4l0.2,0.6l-0.2,0.3
	l-0.3,0.2l-0.2,0.3l-0.4,0.3l-0.9,0.2l-1.6,0.1l-0.5,0.2l0.2,0.5l0.9,1v0.1l0,0h-0.1h-0.1l0.7,1l0.2,0.5l-0.2,0.5l1-0.1l0.4,0.1
	l0.5,0.2l1.2,0.9l0.5,0.8l0.6,0.2l0.6,0.1l0.3,0.2h0.3l1.3,1l0.4-0.1l0.4,0.2l0.4,0.3l0.9,0.2l0.5,0.2l1,0.6l0.5,0.8l0.2,1.2
	l-0.1,1.2l-0.3,1.1l0.3,0.5l0.5,0.5l0.4,0.6l0.2,0.8l0.1,0.2l0.4,0.5l0.1,0.3l-0.1,0.4l-0.3,0.6l-0.1,0.4l0.3-0.1l1.9-0.3l0.6,0.1
	l3.6,1.6l2.2,0.3l0.5-0.1l0.5-0.2l0.2-0.2l-0.4-0.1l-0.5-0.1l-0.4-0.2l-0.3-0.3l-0.2-0.4l-0.1-0.3v-0.3l-0.1-0.2l-1.7-0.4l-2.6-1.4
	L392,346l-1.3-1.9l-0.2-0.4l-0.1-0.2l-0.2-0.1h-0.5l-0.2-0.1l-0.1-0.2l-0.1-0.6l-0.3-0.5l-0.2-0.6l0.1-0.6l0.6-1.1l0.8-0.5h1
	l1.1,0.3l1.4,0.8l2.1,0.2l0.5,0.1l0.8,0.6l2.2,3l0.1,0.2l0.1,0.3l0.1,0.3l0.3,0.1l0.1,0.1v0.3l-0.2,0.5l0.1,0.4l0.9,1.5l-0.1-0.3
	v-0.2l0.2-0.1l0.3,0.1l0.3,0.2l0.1,0.4l0.2,0.1l0.9,0.5l-0.1,0.3l0.1,0.2h0.2l0.2-0.2h0.2v0.2l-0.1,0.4l0.5,0.1h1.3v-0.2h-0.5
	l-0.1-0.2l0.2-0.2h0.5v-0.2l-0.3-0.3l0.1-0.3l0.7-0.6l-0.1-0.2l-0.1-0.2V347v-0.3l-0.2,0.2h-0.2l-0.2-0.1l-0.1-0.4l0.1-0.1h0.2h0.2
	l0.1-0.3l-0.1-0.3l-0.4-0.3l-0.1-0.2v-0.3l0.3-0.3v-0.3l-0.3-0.4l-1-0.4l-0.4-0.3l-0.3-0.4l-0.4-0.3l-0.4-0.2l-0.3,0.1l-1.7-0.8
	l-0.2,0.1l-0.4-0.2l-0.4-0.4l-0.2-0.5l-0.9-0.6l-0.2-0.2l-0.1-0.2l-0.4-1l-0.1-0.5l0.2-0.6l0.4-0.6h0.1l0.2-0.3l0.1-0.2l0.7,0.3
	l0.6-0.1l1.3-0.6h0.4l0.9,0.2l0.9-0.1l0.3,0.1l0.5,0.4l0.9,0.9l0.6,0.4l0.7,0.3l2,0.4l1,0.5l0.6,0.9l0.5,1l0.7,1l0.4,0.3l0.4,0.2
	l0.4,0.3l0.2,0.6l0.2,0.5l0.5,0.1l1.1-0.3l0.8-0.7l-0.3-0.9l-1.6-1.6l-1.4-2l-0.8-0.9h-0.7l-0.2-0.2l-0.3-0.7l-0.2-0.2h-0.3
	l-0.8-0.3l-0.3-0.1l-0.5,0.3l-0.6-0.3l-0.5-0.5l-0.3-0.4l-0.6-1.3l-0.4-0.6h-0.5l0.2,0.2l-0.2,0.2l0.4,0.6l0.2,0.4v0.3l-0.2,0.2
	l-0.7,0.1l-0.3,0.1l-0.3-0.1l-1-0.2l-0.1-0.2l-0.8-0.4l-0.2-0.2l-1-1.6l-0.2-0.9l0.1-0.6l0.4-0.4l1.7-0.2l0.2-0.1v-0.3l-0.5-0.5
	l-0.2-0.3l-0.3,0.1h-0.4h-0.4l-0.3-0.1l-0.9-0.7h-0.2l-0.1-0.6l-0.4-0.7l-0.4-0.6l-0.4-0.2l-0.6-0.2l-0.4-0.5l-0.2-0.7l0.1-0.9
	l0.3-0.5l0.5-0.5l0.6-0.4l1.4-0.6l0.8-0.1l0.8,0.2l2.8,1.5l1.1,0.3l1.1,0.1l0.9-0.2l2.5-1.5l3.2-1.9l-0.2-0.1h-0.4l-0.1-0.1
	l-0.1-0.2v-0.2l0.1-0.1l0.5-0.1v-0.3l-0.2-0.3l-0.3-0.3l0.4-0.2l1.1-0.9l0.5-0.7l0.6-0.3l0.7-0.1l0.5,0.2l0.2-0.3l0.3-0.1h0.3
	l0.2-0.2l0.3,0.1l1.2,0.2l0.1,0.5l0.2,0.4l0.3,0.2l0.4,0.2l-0.1,0.4l0.3,0.4l0.3,0.5l0.2,0.5h0.2l0.1-0.2l0.5-0.5l0.9,0.5l-0.1,0.1
	l0,0l-0.1,0.1l0.5,0.2h0.5l0.9-0.4l0.9,0.4l0.8-0.7l0.7-1l0.7-0.5l0.4-0.1l0.8-0.5l0.3-0.1h0.5h0.4l0.2-0.3l-0.2-0.6h0.4l0.3-0.2
	l0.5-0.5v-0.5l0.5-0.1h2l0.3,0.2l0.5,0.3h-0.3l-0.3,0.1l-0.2,0.2l-0.1,0.3v0.4l0.1,0.1h0.2l0.3,0.2l0.5,0.3l2,0.4v0.2h0.2l0.8-0.8
	l1,0.3l1.1,0.7l0.9,0.4h0.4l1.2,0.3l0.4,0.2l0.4,0.3l0.5,0.3l0.5,0.1l0.2,0.1l0.9-0.3l1.1,0.2l1.1,0.4l1,0.2l1.8-0.2h0.3l0.3,0.2
	h1.4l0.4,0.1l0.5-0.3l0.8,0.2l0.8,0.5l0.4,0.5h0.2l-0.1-0.3l-0.1-0.2v-0.2h0.2l0.1,0.3l0.1,0.2l0.3-0.2l0.4-0.1l0.4,0.1l0.2,0.3
	l-0.2,0.1l-0.4,0.1l-0.5,0.1h-0.3v0.2l0.5,0.3l0.2,0.6l0.1,0.7l0.3,0.5l-0.1,0.1l0.9,0.1l0.8-0.4l0.6-0.7l0.2-0.9l0.4-0.6l1.3-1.2
	l-0.2-0.4v-0.2l0.1-0.1l0.2-0.1h-0.1h-0.1v-0.1v-0.2l0.2-0.1l0.1-0.1v-0.2v-0.3l0.1,0.3v0.1h0.2l0.2-0.2l0.1-0.3l0.2-0.7h0.2
	l0.1,0.2l0.1,0.2l0.2,0.1h0.2l0.3-0.1v-0.2l-0.1-0.2l-0.1-0.1l0.3-0.3l0.7-0.3l0.4-0.3l0.3-0.3l-0.1-0.1l-0.2-0.1l-0.3-0.3l-0.1-0.3
	l0.1-0.2l0.2-0.1h0.4l0.2-0.2l0.2-0.4v-0.4l-0.7-0.3l-0.2-0.3l-0.3-0.7l-0.1-0.5l0.4-0.9l-0.2-0.1l-0.4-0.1v-0.3l0.5-0.7l-0.3-0.6
	l-0.1-0.6l0.1-0.6l0.3-0.7l-0.4-0.6l0.3-0.3l1.6-0.2l0.4-0.2l0.7-0.6l0.7-0.4l0.1-0.2l0.1-0.1l0.1-0.1h0.3l1.3-1.4l0.3,0.3l0.5,0.3
	l0.5,0.1h0.5l0.3-0.3l0.2-0.6l0.1-0.7V302l-0.1-0.7l-0.4-1.6l-0.1-1.2l-0.1-0.6l-0.3-0.5l0.2-0.3l-0.1-0.9l0.1-0.4l-0.1-0.2
	l-0.1-0.2v-0.2v-0.2l-0.5,0.7l-0.2-0.3l-1.1-0.6l-1.4-1.1l0.2-0.4l0.1-0.5l-0.4-0.1l-0.4-0.2l-1-0.2l-0.7-0.6l-0.4-0.1l-0.7,0.1
	l-1,0.1l-0.5-0.2l-0.3-0.3l-0.7-0.8l-0.2-0.1h-0.4l-0.5,0.5h-1.4l-0.7,0.2l-0.7,0.5l-0.2,0.1h-0.2l-0.2,0.1l-0.2,0.2l-0.1,0.4v0.5
	l0.1,0.5l0.1,0.4l0.3,0.4l0.4,0.2l0.4,0.1l0.3,0.1l0.2,0.3l0.1,0.3l0.2,0.8v0.3v0.5v0.2l0.1,0.1l0.4,0.1l0.1,0.2l0.1,0.4v0.4v0.4
	l-0.1,0.4l-0.3,0.3v0.2l0.3,0.6l0.1,0.1l0.3,0.3l0.1,0.2v0.3l-0.1,0.1l-0.2,0.1l-0.1,0.2l-0.3,0.8l-0.4,0.8l-0.3,0.5l-0.2,0.1H457
	l-2.1,0.5l-0.3,0.2l-0.7,0.4l-0.6,0.3H453l-0.3-0.1h-0.3l-0.6,0.3l-0.3,0.2l-0.5-0.2l-0.7-0.8l-0.6-0.2l-0.3,0.1l-0.9,0.6l-0.9,0.1
	l-0.3,0.1l-0.3,0.2l-0.2,0.2l-0.2,0.1h-0.3l-0.2-0.1l-0.5-0.3l-0.2-0.1l-2.2-0.2L443,305l-0.2,0.3l-0.2,0.4l-0.2,0.3l-0.2,0.1H442
	l-0.2-0.1h-0.3l-0.6,0.1l-4.2,1.4h-0.6l-0.6-0.1l-0.5-0.3l-1.1-1.5l-0.5-0.4l-1-0.5l-0.1-0.1l-0.2-0.3l-0.1-0.1h-0.1l-0.4,0.1
	l-4.1-1.7l-0.8-0.5h-0.3l-0.2,0.1l-0.5,0.2l-1,0.1l-0.1,0.4l0.1,0.6l-0.2,0.5H424l-0.5-0.5l-0.8-1.1l-0.5-0.4l-0.5-0.2l-0.5-0.1
	h-0.6l0.2-0.3h-0.9l-0.3-0.1l-0.4-0.4v-0.1l0.1-0.4v-0.2l-0.1-0.1l-0.2-0.2l-0.1-0.1l-0.1-0.2l-0.1-0.1l-0.1-0.2l-0.1-0.3l-0.1-0.9
	l-0.3-0.9l-0.5-0.5l-0.7,0.3l-0.6,0.1l-0.5,0.7l-0.4,0.1l-0.5-0.1h-0.4l-0.8,0.3h-0.2l-0.7-0.1h-0.2l-0.2,0.1l-0.2,0.1l-0.2-0.1V298
	l0.1-0.3v-0.3l-0.5-0.3l-0.4-0.5l-0.4,0.1l-0.5,0.2l-0.4,0.3l-0.4,0.3l-0.1,0.2l-0.1,0.5l-0.1,0.1h-0.2l-0.1-0.1l-0.1-0.2l-0.2-0.2
	l-0.7-0.2l-1-0.1l-0.7,0.3l0.1,1.1l0.1,0.7v0.3l-0.1,0.2l-0.3,0.1l-0.3-0.1l-0.6-0.4l-0.1,0.2l-0.1,0.1h-0.1l-0.1,0.1l-0.4,0.4H404
	l-1.2-0.9h-0.2l-0.7,0.6l-0.4,0.2l-0.5,0.1l-0.5,0.1h-0.4l-0.4,0.2l-0.6,0.9l-0.4,0.1l-0.8-0.2h-0.8l-0.5,0.2l-0.6,0.6l-0.4,0.2
	h-0.8l-1.6-0.9l-2.5-0.1l-0.5,0.2l-0.8,0.6l-0.4,0.2l-0.5,0.1l-0.3-0.2l-0.2-0.4l-0.5-0.3h-0.4l-0.6,0.3l-0.6,0.4l-0.4,0.3l-0.1,0.3
	v0.6l-0.1,0.3l-0.2,0.2l-0.3,0.2l-0.6,0.2l-1,0.1l-5-0.8l-2.3-0.2l-1.1,0.2l-0.7,0.7l-0.3,1l-0.1,2.6l-0.2,1.3l-0.3,0.7l-0.3,0.2
	l-0.3-0.2l-0.4-0.4l-0.2-0.3l-0.1-0.3l-0.1-0.2l-0.3-0.1l-0.4,0.1l-0.1,0.2v0.3l-0.1,0.3l-0.4,0.5l-0.4,0.4l-0.5,0.2h-0.5l-0.8-0.1
	h-0.4l-0.5,0.1l-0.3,0.1h-0.4h-0.7l-0.3-0.1l-0.5-0.3l-0.2-0.1h-0.3l-0.6,0.1h-0.5l-0.2,0.1h-0.2l-0.1-0.1v-0.4l-0.1-0.1l-0.2-0.1
	l-0.8-0.1l-0.9-0.3l-0.5-0.1h-0.6l-0.6,0.3l-0.9,0.8l-0.5,0.2l-0.2-0.1l-0.8-0.4l-0.1-0.1v-0.2l-0.1-0.2l-0.2-0.1l-0.1,0.1l-0.3,0.3
	l-0.1,0.1l-1.6,0.5L354,311l-0.6,0.5l-0.2,0.2l-0.1,0.3v0.7v0.3l-0.3,0.5l-0.9,0.9l-0.3,0.6l0,0l0,0l-0.9,0.7l-0.2,0.3v0.3v0.4
	l-0.1,0.4l-0.3,0.3l-0.7,0.2l-1.3-0.3l-0.7,0.3l-0.1,0.1l-0.1,0.4l-0.1,0.2H347h-0.4h-0.1l-0.3,0.2l-0.6,0.6l-0.2,0.1l-0.7-0.1
	l-1.1-1l-2-0.3H341l-0.6,0.3l-0.9,0.9l-0.4,0.2l-0.8,0.2h-0.9l-1.3-0.3h-0.6l-1.8,0.5l-3.7,0.2v1.6l-0.2,0.7l-0.4,0.5l0.2,0.2
	l0.1,0.2v0.3l0.1,0.2l0.7,0.7l0.7,0.8l0.3,0.5l0.2,0.6v0.6l-0.1,0.6l-0.3,1.1v0.4v0.3v0.3l-0.1,0.3l-0.2,0.2l-0.2,0.1l-0.2,0.2
	l-0.2,0.3l-0.3,0.1l-1,0.8l-0.2,0.3v0.4l-0.1,0.2l-0.1,0.2l-0.2,0.3l-0.6,0.4l-0.6-0.1l-0.6-0.3h-0.7l-0.3,0.2l-0.1,0.3l-0.1,0.3
	l-0.2,0.3l-0.2,0.1l-0.5,0.1l-0.2,0.2v0.3l0.1,0.9v0.3l-0.1,0.4l-0.1,0.3l-0.3,0.5l-0.5,1.1l-0.2,0.2l-0.3,0.1l-0.3,0.2l-0.2,0.3
	l-0.1,0.7l0.1,0.7v0.7l-0.3,0.8l-0.1,0.1l-0.4,0.1l-0.1,0.2v0.2l0.1,0.4v0.2l0.1,0.6v0.1l-0.4,1.1l-0.1,0.2l-0.2,0.1l-1.6,0.7
	l-0.6,0.1l-1.3-0.2l-0.5,0.1l-0.4,0.2l-0.8-0.1l-0.5,0.2l-0.3,0.4l-0.3,0.5l-0.2,0.6l-0.1,0.6l-0.4,0.1h-1.2l-0.3,0.1l0.1,0.3l0.4,2
	l0.1,0.2l0.6,0.6l1.2,1.9l0.1,0.6l-0.2,0.6l-0.4,0.4h-0.4l-0.4-0.3l-1-0.4h-0.2l-0.2,0.1l-0.2,0.2l0.1,0.1l0.1,0.1l0.1,0.3v0.2
	l-0.2,0.4v0.1l0.1,0.1l0.2,0.2v0.1l0.1,0.3l0.1,0.1l0.1,0.2l-0.1,0.4l-0.3,0.4l-0.5,0.3l-0.4,0.4l-0.1,0.7l-0.2-0.1l-0.2-0.1H311
	l-0.2,0.1l-0.2,0.2v0.2v0.2l-0.1,0.2l-0.4,0.1l-0.5-0.2l-0.7-0.6l-1.1-0.6l-1-0.3l-0.8-0.3l-0.4,0.3h0.1h0.1l0.3,0.2l0.6,0.2
	l1.1,0.3l0.2,0.2l0.2,0.2l0.3,0.1l0.1,0.1l0.4,0.3l0.1,0.1l0.2,0.2l0.4,0.1l0.4,0.3l0.2,0.7h-0.1L310,361l0,0v0.2v0.4v0.1l-0.2,0.2
	l-0.2,0.2h-0.2l-0.2-0.2v0.4v0.3l-0.1,0.3l-0.2,0.3l0.4-0.1h0.4h0.4l0.5,0.1l-0.3,0.3h0.3l0.3,0.2l0.2,0.2v-0.4h0.4l0.4,0.2l0.3,0.2
	v0.2l-0.2,0.3h-0.2l-0.3-0.1h-0.4v0.2l1,0.6l0.2,0.3l0.1,0.4l-0.3,0.1h-0.5l-0.4,0.1l0.2,0.1l0.3,0.5l0.2,0.3v0.2h-0.6v0.2l0.6,0.1
	l0.3,0.3l0.2,0.4l0.3,0.3l0.1,1l0.8,1l1,0.5l0.7-0.3l0.3,0.3l0.3,0.2h0.4l0.4-0.2l0.1,0.3l0.2,0.1h0.3l0.3-0.1v0.2l-0.1,0.3v0.4
	l0.1,0.4l0.1,0.3l-0.1,0.3l0.2,0.3l0.7,0.5l2,2.5l0.8,0.6l0.8,0.5l0.7,0.6l0.5,0.8l0.3,1.1v0.1l-0.1,0.1l-0.1,0.1l-0.1,0.2v0.1
	l0.1,0.1l0.1,0.1v0.2l0.1,0.2l0.2,0.2l0.2,0.2l0.1,0.3l0.1,0.2l0.3-0.3l0.3-0.4v-0.1l0.2-0.1h0.2l0.7,0.2l0.4,0.3l0.2,0.1l0.1-0.1
	l-0.1-0.2l-0.2-0.2l-0.5-0.2l-1.2-1h-0.2h-0.1v-0.1v-0.3l0.4,0.2l0.1-0.3l0.2-0.2l0.2-0.1l0.2-0.2l0.1-0.4v-0.4l0.1-0.3l-0.4-0.1
	v-0.2l0.3-0.1l0.2-0.1l0.1-0.2l0.1-0.2l0.2,0.2l0.3-0.3l0.3,0.2l0.1,0.5l-0.3,0.7l0.1-0.1l0.1-0.1h0.1h0.2v0.2l0,0v0.1v0.1v0.1
	l0.2-0.1l0.1,0.2v0.3v0.2l-0.4,0.2h1l-0.1-0.2l-0.3-0.1l-0.1-0.3l0.1-0.2l0.4-0.3l0.1-0.3h0.2l0.2,0.3l0.3,0.1h0.3l0.2-0.2h0.2v0.2
	l-0.2,0.1l-0.1,0.1l0,0l0.1,0.3l0.2,0.3l0.2,0.1l0.3-0.2l0.1,0.1l0.2,0.2l0.3,0.2l0.3,0.1v0.2l1.4,0.2l-0.5-0.4l0.4-0.5l0.3-0.1
	l0.3,0.1l-0.1-0.2v-0.2l0.1-0.2l0.2-0.2l1.3,1.3l0.6,0.8v0.8l-0.2-0.1l-0.2,0.2l-0.1,0.3l0.1,0.3l-0.2,0.4v0.3l0.3,0.6l0.1,0.1h0.1
	h0.1l0.1,0.5l0.1,0.1l0.2,0.2l-0.1,0.3l-0.1,0.1l-0.1-0.1l-0.2-0.1v-0.1l-0.6-0.7l-0.4-0.2h-0.5l-0.3,0.2l0.2,0.4v0.2l-0.2,0.1
	l-0.1,0.1l-0.1,0.2v0.3l-0.6-0.6l-0.3-0.2l-0.3-0.1l-0.2-0.2v-0.5l0.1-0.4l-0.1-0.2l-0.5-0.1l-0.5-0.6l-0.2-0.1l-0.3-0.1h-0.4
	l-0.3,0.1h-0.3l-0.2-0.3h-0.2l-0.1,0.6l-0.3,0.3l-0.4,0.1H327l0.1-0.2v-0.1l-0.1-0.1l-0.1-0.1l0.1-0.1v-0.1v-0.2l-0.1-0.3h-0.2
	l-0.3,0.5l-0.3,0.5l-0.5,0.2l-0.5-0.2l-0.4-0.3l-0.2-0.5l-0.1-0.2l-0.3,0.6l-0.1,0.5l0.1,0.6l0.2,0.5l0.5,0.3l0.2,0.1l0.2,0.2
	l0.1,0.2l-0.1,0.1h-0.3h-0.5l-0.4,0.2l-0.2,0.5l-0.1,0.6l-0.2,0.4v0.2l0.9,0.7l0.1,0.2v0.3l0.1,0.1l0.3-0.2l0.2,0.1l0.2-0.2l0.2-0.1
	l0.2,0.3l0.2-0.4l0.3-0.5l0.4-0.4l0.4-0.1l0.3,0.3l0.2,0.5l0.6,2.6l0.2,0.4l0.3,0.3l0.3,0.1h1l0.2,0.3l0.4,1.2l0.5,0.6v0.7l-0.2,1.3
	l0.1,0.3l0.2,0.5l0.1,0.3l0.1,0.1l0.3-0.1l0.3-0.2l0.1-0.1l0.2-0.1l0.2-0.2l0.2-0.1l0.2,0.1v0.2l-0.1,0.3l-0.2,0.5h0.1l0.1,0.1
	l0.1,0.1h-0.2l-0.1,0.1l-0.2,0.1l0.3,0.1l0.2,0.1h0.2v0.2l-0.1,0.3l0.2,0.6L333,398l0.3-0.2l-0.1,0.4l-0.2,0.1l-0.3-0.2l-0.3-0.3
	v0.1l0,0l0,0l-0.1,0.1l0.1,0.4l0.1,0.3l0.2,0.2l0.3,0.1l0.2-0.3h0.2l0.4,0.4l-0.2,0.3l-0.2,0.3l-0.3,0.2l-0.3-0.1l0.1-0.2l-0.1,0.2
	l-0.2,0.5l0.1-0.1l0.2-0.1l0.1,0.4l-0.1,0.2l-0.2,0.2l-0.3,0.1l0.3,0.1h0.8l0.3,0.1l0.1,0.3l0.1,0.4l0.2,0.3h0.5v-0.3l0.2-0.2
	l0.3-0.1h0.1h-0.2l-0.1-0.1l-0.1-0.1l0.2-0.3h0.2l0.2,0.2l0.2,0.1h0.5h0.2l0.3-0.2l0.4-0.3l0.2-0.2l-0.1-0.1v-0.1l0.1-0.2l0.2-0.1
	l0.3,0.2l0.2-0.2l-0.1-0.1l0,0l-0.1-0.1l0.2-0.1l0.5-0.3l0.3-0.1l0.2-0.1l0.1-0.3l0.1-0.4l0.1-0.3l-0.1-0.1l0,0l0,0l-0.1-0.1h0.4
	l-1-1.7l-0.1-0.2h0.2h0.1l0.1,0.1l0.3,0.2l0.5,0.6l0.2,1.9l0.2,0.3h0.5l0.5,0.1l0.3,0.3l-0.2,0.6l0.3-0.1h0.1l0.1-0.1l0.2,0.1h0.2
	h0.2l0.2-0.1l-0.2,0.4h0.5l-0.2,0.2h-0.1v0.2h0.1l0.2,0.2l-0.2,0.2v0.1l0.1,0.1l0.1,0.1v0.2l-0.3-0.2l-0.4-0.3l-0.4-0.2l-0.4,0.1
	l1,0.6l0.2,0.2h0.1h0.3l0.3,0.1l0.2,0.2h0.2l0.3-0.6l1.6-1.2l0.3,0.2l0.3-0.1l0.4-0.2l0.4-0.1h1.5l0.7,0.6l0.5,0.3l0.2-0.2l0.1-0.6
	l0.2-0.4l1.2-1l0.2-0.1l0.1,0.1l0.3,0.5l0.2,0.1h0.4l0.2-0.1l1-0.7l0.7-0.3h0.7l0.6,0.6l0.5-0.2h0.5l1.3,0.6l0.8,0.2l0.4,0.3v0.3
	h0.1h0.2l0.2,0.1l0.2,0.2l0.1,0.4l0.2,0.2l0.2-0.5l0.3-0.4l0.4-0.2l0.3,0.1h0.2l0.2-0.1l0.3,0.1l0.3,0.2l0.1,0.2l0.9-0.1l0.6,0.1
	l0.5,0.2h0.4l0.1-0.3l-0.2-0.2l0.2-0.1l0.2-0.2l0.1-0.2l-0.1-0.3l-0.1,0.1h-0.1l-0.1-0.1l-0.2-0.3l0.2-0.2l0.7-0.5v-0.3l-0.1-0.6
	v-0.3l1.2,0.7l0.3,0.1l0.1,0.1l0.1,0.2l0.2,0.5l1.2,1.5l0.3,0.7l-0.3,0.1v0.1l0.1,0.1l0.1,0.2h0.1l0.3,0.5v0.1l0.4,0.3l0.3,0.1
	l0.3-0.1l0.3-0.3v-0.2V402v-0.1l0.2-0.1v-0.2h-0.2l-0.1-0.1l-0.1-0.1l-0.1-0.1v-0.2l0.1-0.2l0.2-0.4l0.3-0.3l0.3,0.1l0.3,0.1
	l0.2-0.2V400l-0.5-0.1l0.5-0.6l0.6,0.3l0.4,0.6l-0.2,0.6l0.4,0.7l0.1,0.2l0.2,0.1l0.4,0.1l0.6,0.4l0.9,0.3l0.5,0.2l-0.2,0.4
	l-0.5,0.4l-0.2,0.3l1,0.7l0.4-0.2l0.9-0.1l0.5-0.1v0.2l0.1,0.1v0.2l0.2-0.5h0.2l0.3,1.5l0.3-0.2l0.7,0.1h0.4l-0.2-0.4l-0.3-0.2h-0.4
	l-0.3,0.1l0.3-0.5l0.5-0.1l1.5,0.2l0.4,0.1l0.3,0.3l0.3,0.5h-0.5v0.2l0.9,0.1l0.3-0.1l0.8-0.8l0.3,0.1l0.7,0.7l-0.5,0.4l0.4,0.2
	l2,0.3v0.2h-0.3l-0.6,0.1h-0.3v0.3v0.2l0.5,0.1l0.4,0.4l0.2,0.4l-0.3,0.2l-0.4,0.1l-0.4,0.5l-1.8,0.5l-0.8,0.1l-0.7-0.3l-0.5,0.1
	l-1.2-0.5h-0.7l-0.2,0.2l-0.5,0.6l-0.3,0.1l-0.3,0.1l-0.2,0.2l-0.5,0.4h0.8h-0.1l-0.1,0.1h0.5l0.6,0.5l0.4,0.1l0.3,0.2l0.4,0.4
	l0.2,0.4l-0.1,0.2l-0.5,0.8l-0.2,0.1h-0.2h-0.2h-0.2l-0.6,0.2l-0.4,0.1l-0.4-0.1l-0.4-0.3l-0.8-0.7l-0.5-0.1l-0.2-0.1l-0.4-0.8
	l-2-1.8l-0.2-0.1l-0.2-0.2l-1.5-0.5l-2.7-1.4l-2-0.4H366l-0.3,0.1l-0.3-0.1l-0.3-0.2l-0.8-0.3l-0.4-0.4l-0.4-0.3l-0.5,0.2l-0.3-0.2
	l-1.1-0.3h-0.8l-0.2-0.1l-0.1-0.2l-0.1-0.2l-0.1-0.1l-0.9-0.3l-0.2-0.1l-0.2-0.3l-0.3-0.8l-0.2-0.2l-0.2-0.1l-0.2-0.1l-0.2-0.2h-0.1
	l-0.3,0.1h-0.2l-0.3-0.1l-0.7-0.4l-0.3-0.2l-0.2-0.3l-0.1-0.4l-0.2-0.3l-0.3-0.1l-0.4-0.1l-0.4-0.2l-0.3-0.2l-0.2-0.2l-0.2,0.1
	l-0.2,0.1h-0.5l-1.7-0.3l-0.2,0.2l-1.9,1.2l-0.6,0.8l-1,2l-0.7,0.8l-0.8,0.6l-0.5,0.2l-0.5,0.1l-2-0.5l-1.3-0.9l-0.4-0.1H341
	l-0.4-0.1l-0.4-0.2l-0.1-0.2l0.1,0.2l0.1,0.3v0.4l-0.3-0.2l-0.3-0.6l-0.3-0.3v0.5l-0.1,1.9l-0.1,0.4l-0.1,0.3l-0.9,1.4l-0.1,0.2
	l-1.1,1.7l0.2-0.2l0.2-0.2l0.2-0.2l0.2-0.1l0.1,0.1l0,0l0,0l0.1,0.1v0.2l-0.3,0.3l-0.3,0.3l-0.3,0.2l-0.4-0.1l-0.7,0.8l-1.1,1
	l-1.1,0.5l-0.6-0.5h-0.2l-0.7,2.2l0.1,0.2l-0.1,0.5l0.1,0.4l0.2,0.2l2.6,0.8l1.1,0.6l0.3,0.3l0.3,0.4l0.4,1.4l0.1,0.5l-0.1,0.5
	l-0.3,0.6l0.2,0.2l0.1,0.3v0.3l0.1,0.3h0.2l0.1-0.9l0.5-0.1l1.5,0.4l0.3,0.2l0.5,0.6l0.3,0.3l0.5,0.3l2.2,1.5l0.5,0.5l1,1.4l1.7,3.2
	l0.4,1.2l0.1,1.3l-0.3,1l-0.7,0.7l-1.6,1.3l-0.4,0.9l-0.2,1.1l0.1,1.2l0.2,1.2l0.5,1l0.7,0.8l0.6,0.8l0.2,1.1l0.2-0.4l0.1-0.1h0.2
	v0.2l-0.1,0.1l-0.2,0.1l0.5-0.2l0.4,0.2l0.2,0.5v0.5l-0.1,0.3l-0.3,0.5l-0.1,0.3v0.4l0.1,0.3v0.3l-0.1,0.3l0.2,0.4l0.1,0.4l0.1,0.2
	l0.2-0.1h0.2l0.2,0.3l0.6,0.2l0.3,0.3l0.6-0.3l0.4-0.1h0.4l0.8,1.6l0.1,0.1l0.4,0.9h0.2l0.2-0.1l0.1-0.2l1-1l0.2-0.3l-0.1-0.3
	l0.2-0.2l0.3-0.1h0.3v-0.2l-0.3-0.1l-0.3-0.2l-0.4-0.4l0.2-0.4l-0.1-0.3l-0.2-0.3l-0.1-0.4v-0.3l0.1-0.4l0.3-3l0.1-0.4l0.3-0.3
	l0.9-0.3l0.9-0.6l0.5-0.1l0.9,0.1l1.7,0.4v0.2v0.9l-0.1,0.6v0.4l-0.1,0.3l-0.1,0.3l-0.1,0.2H358l0.1,0.5l0.3,0.3l0.7,0.5l0.6-0.5
	l0.5,0.3l1.7,2.4l0.4,0.8v0.6l0.5,0.5l0.4,1l0.5,0.8l0.7-0.1l-0.4,1l-0.1,0.5l0.5,0.2v0.2H364l-0.1,0.4v0.5v0.4h0.5l-0.2,0.5
	l-0.1,0.2l0.3,0.3l0.1,0.5l-0.1,0.4l-0.4-0.1l-0.1,0.4l-0.2,0.3v0.3l0.2,0.5l0.2,0.3l0.2,0.2l0.3,0.1l0.3-0.3h0.2l0.3,0.4l0.9,0.3
	l0.4,0.3l0.1,0.5v0.6l0.1,0.5l0.3,0.3v-0.2v-0.2l0.1-0.1h0.2v-0.2l-0.2-0.4l-0.1-0.4l0.1-0.3l0.3-0.2l-0.1-0.3l0.1-0.2l-0.5-1.2
	l-0.2-0.6l-0.1-0.7V454l0.1-0.3l0.4-0.2l0.2,0.7l0.3-0.3l0.1-0.6l-0.4-0.4l-0.1-0.1v-0.3l0.1-0.3l0.2-0.2h0.2l0.2,0.2l0.1,0.2v0.2
	h0.2v-0.5l-0.1-0.4l-0.2-0.2h-0.4l0.2-0.7l0.3-0.4l0.8-0.6v-1.3l1.1-0.6l1.6-0.2h1.3l0.7,0.1l0.5,0.3l0.3,0.5l0.2,1.1l0.2,0.7
	l0.1,0.5l-0.1,0.7v0.3l0.1,0.2l0.3-0.4l0.1-0.2h0.1l1,0.9l0.1,0.4l-0.4,0.4l1.1,0.8l0.3,0.3l0.2,0.3l0.6,1.2l0.1,0.5l0.2,0.3h0.5
	l1.1-0.2l0.4,0.2l0.4,0.4l0.2,0.5l-0.1,0.4v0.2l0.3,0.3l0.2,0.4l0.2,0.3l1.1,0.3h0.3l0.3-0.3l0.9,0.4l0.2-0.7l-0.5-0.5l-0.7-0.5
	l-0.4-0.6l0.2-0.1l0.1-0.1v-0.2l-0.2-0.2v-0.2h0.1l0.2-0.2h-0.2l-0.1-0.1l-0.1-0.2l-0.1-0.2l-0.5-0.2l-0.3-0.2l-0.5-0.2l-0.1-0.1
	l-0.3-0.5l-0.5-0.8l-0.4-0.8v-0.8l0.6-0.5h-0.7l0.1-0.1l0.1-0.2l0.1-0.1l-0.3-0.3l0.1-0.3l0.3-0.3l0.2-0.3l0.2,0.2l0.4,0.2h0.3
	l0.1-0.3v-0.2v-0.1v-0.1v-0.2l0.1-0.2l0.3-0.2l0.1-0.2l-0.4-0.2h-0.2h-0.3v-0.2l0.3-0.1l0.1-0.3l-0.1-0.4l-0.2-0.3l-0.7-0.7
	l-0.3-0.5l0.1-0.2l-0.2-0.3l-0.5-1.3l-0.2-0.4l0.1-0.3v-0.3v-0.3l-0.1-0.3l-0.1,0.1l0,0l0,0l-0.1,0.1l0.4,0.6l-0.2-0.3l-0.1-0.2h0.1
	h0.3h0.1l-0.1-0.6l-0.2-0.5v-0.4l-0.7-1l-0.2-0.6l0.4,0.2l0.1-0.1l-0.2-0.3l-0.4-0.2l0.2-0.2l-0.1-0.1l0,0l0.2-0.1l-0.1-0.1
	l-0.1-0.1V439v-0.1l-0.3,0.1l-0.5,0.1l-0.5-0.1l-0.2-0.4l0.1-0.8l0.1-0.4l0.1-0.2l0.2-0.1l-0.1-0.3l-0.2-0.3l-0.1-0.1l-0.9-1.5
	l-0.2-0.6l-0.6-1.1l-0.3-0.2v-0.2h0.2v-0.2h-0.3l0.2-0.4l-0.2-0.1l-1.3-1.6v-0.3l0.2-0.4v-0.3l-0.3-0.2l-0.1-0.1v-0.6v-0.2l-0.1-0.2
	l-0.1-0.1l-0.1-0.2l-0.1-0.4v-0.2l0.1-0.4v-0.2l-0.1-0.2l-0.2-0.4l-0.1-0.2l0.1-0.8l0.3-0.5l0.5-0.3l0.5-0.2l0.3,0.3l0.3,0.4
	l-0.1,0.2l0.2,0.3l0.3,0.2l0.3,0.1l-0.1,0.3l-0.1,0.1l0.7,0.5l0.2,0.2l0.4-0.3l0.4-0.2l0.4-0.1l0.5,0.2l-0.1-0.2l-0.1-0.1l-0.3-0.1
	h0.3h0.2l0.4,0.2v0.1v0.1v0.1l0.1,0.1h0.1h0.3h0.1l0.4,0.4l0.3,0.4l0.4,1.1l0.2-0.3l0.2-0.2l0.6-0.4l0.3,0.6l-0.3,0.2l0.4,0.1
	l0.9-0.2l0.4,0.2l0.2,0.1l0.2,0.1l0.2,0.1l0.1,0.2v0.3v0.2l0.1,0.3v0.2l-0.1-0.1l-0.5-0.3v0.5l-0.2,0.4l-0.3,0.2l-0.3-0.2l-0.3-0.2
	l-0.1,0.4l0.1,1v0.1l0.2,0.1h0.2l0.2-0.2l0.5,0.4l0.2,0.2l0.1,0.3l-0.5-0.2l0.2,0.4h0.3l0.3-0.1l0.3,0.1v0.2h-0.5v0.2l0.4,0.2
	l0.3,0.1h0.4l0.5-0.1l-0.2-0.5l-0.2-0.4v-0.3l0.5-0.1h0.9h0.5l0.4-0.2L386.4,431.7z M461.9,495.3l0.4-0.4l0.2-0.6h-0.7l0.1,0.1
	l0.1,0.2l0.1,0.1H462h-0.3L461.9,495.3h-1l-0.5,0.5l-0.5,0.7l-0.7,0.7v0.1l0,0l0.1,0.1l-0.5,0.4l-0.6,0.3l-0.6,0.1l-0.5-0.3l0.3-0.3
	l-1-0.3L456,497h-0.2l-0.1,0.2h-0.1h-0.2l-0.2,0.1l-0.2,0.1l-0.2,0.2l-0.8,0.5l-0.2,0.1l-0.9,0.2l-0.8,0.1l-0.3,0.1v0.1l-0.3,0.5
	l-0.2,0.2h-0.1H451l-0.3,0.2l-0.4,0.9l-0.3,0.2h-0.6l-0.3-0.1l-0.3-0.3l-0.4-0.2l-0.4,0.1l-0.3-0.1l-0.1-0.6l-0.1-0.3l-0.2-0.3v-0.3
	l0.3-0.3l-0.1-0.6l0.2-0.5l0.2-0.3l-0.1-0.3l0.2-0.2l0.1-0.1h0.1l0.1,0.1l0.1-0.2l-0.1-0.1V496l0.1-0.2l-0.2-0.3H448l-0.1,0.2v0.5
	l-0.2-0.1l-0.1-0.2v-0.2l0.2-0.3l-0.2-0.2l0.6-0.5l0.3-0.3l0.2-0.4h-1.5l-0.4-0.1l-0.5-0.3l-0.3-0.1l-0.5,0.1l-3.9,1.5l-0.7,0.1
	l-0.7-0.2l-0.4-0.4l-0.3-0.5l-0.5-0.4l-0.2,0.2l-0.2-0.2l-0.4,0.2h-0.4l-0.6-0.2l-1.4,0.2h-0.8l-0.2-0.1l-0.2-0.1l-0.1-0.3l-0.1-0.1
	h-0.4l-0.7,0.2l-1.2,0.1l-0.7-0.1l-0.5-0.3l-0.2-0.8v-0.2l0.1-0.2l0.1-0.2v-0.2h-0.1l-0.4,0.1l-0.3-0.4L429,491v0.3l-0.1,0.1
	l-0.1,0.1l-0.1,0.2l-1.5-0.6l-0.7,0.2l-0.4,0.2l-0.2,0.2l-0.5-0.3L423,491h-0.6l-0.5,0.1l-0.5,0.2l-1.6,0.8l-0.7,0.2l-2,0.4
	l-0.5,0.3l-0.9-0.2l-2.2,0.6l-0.9-0.3l-0.2-0.1h-0.5l-0.2-0.1l-0.1-0.3l0.1-1.1v-0.6l-0.3-1.4l-0.3,0.3l-0.4,0.3l-0.5,0.2l-0.4,0.1
	l-0.4-0.1l-0.8-0.6l-0.7-0.2l-0.5-0.2l-0.4-0.3l-0.1-0.3l0.4-0.2h0.6l1,0.2h0.5l0.2-0.1l0.2-0.1l0.1-0.2l0.2-0.4l0.1-0.1l0.1-0.2
	l-0.5-1.3l-0.6-0.4l-1.1-0.1l-0.8,0.4l0.3,1.1h-0.6l-0.3,0.1l-0.1,0.3l-0.1,0.3l-0.2,0.2l-0.2,0.1l-0.3,0.1h-0.6l-1.4-0.2l-0.4,0.1
	l-0.7-0.2l-2.1-0.2l-0.9-0.5l-0.5-1v-0.2v-0.8l-0.3-1V484l0.3-0.3v-0.2l-0.5-0.2l-0.2-0.2h-0.2l-0.4,0.4l-0.3,0.4l-0.1,0.4l0.1,0.4
	l0.2,0.5l-0.3,0.3l0.1,0.5l0.2,0.6l0.1,0.6l-0.1,0.7l-0.1,0.5l-0.4,0.3l-0.5,0.1h-0.6l-0.2-0.1l-0.2-0.1l-0.1-0.1v-0.1v-0.1
	l-0.2-0.1h-0.2l-0.1-0.1l-0.1-0.3l-0.2-0.5V486l-0.1-0.6l-0.1,0.3l-0.5,0.8l0.1,0.3l-0.1,0.4l-0.4,0.8l0.1,0.1v0.1v0.1l-0.1,0.2v0.2
	l0.3,0.2v0.2l-0.2,0.3l-0.2,0.8v0.2h0.1l0.1,0.1l0.1,0.2l0.1,0.2l-0.2,0.5l-0.4,0.7l-0.3,0.7l0.2,0.5l-0.1,0.3v0.3l0.1,0.2l0.2,0.2
	h-0.1l0,0v0.1v0.1h-0.2h-0.2l-0.4,0.2v0.1l0,0h0.1h0.1l-0.2,0.2l0.3,0.2l0.2,0.2l0.2,0.2l0.2,0.2l0.2,0.1h0.3l0.2,0.1l0.1,0.2
	l-0.1,0.3l0.1,0.2l0.6,0.1l1.5-0.1l0.4,0.3l0.7-0.3l1.8,0.1l0.4-0.4l0.2,0.1h0.1l0.2-0.1l0.2-0.2l0.8,0.5l1,0.2l2.1-0.1l0.4,0.2
	l0.7,0.9l0.5,0.2l0.7-0.1h0.1l0.1-0.3h0.2l0.4,0.2h1.8h0.1l0.1-0.1l0.1-0.1h0.2v0.1l0.1,0.1l0.1,0.1l0.1,0.1l1.9,0.3l2.7-0.3v0.2
	v0.3l1.5,0.8l0.4-0.2l0.5,0.1l0.5,0.2l0.3,0.2l0.5,0.7l0.3,0.3l0.2-0.1h0.2l0.4,0.2l0.6,0.1h2.2l0.3,0.1l0.2,0.1l0.1,0.1l0.1,0.1
	l0.2,0.2l0.2,0.4l0.1,0.4l0.1,0.3v0.4l-0.1,0.6v0.4l0.1,1.2l-0.1,0.3l-0.3,0.3v0.2l6.1-0.2l0.5,0.1l0.4,0.2l0.6-0.3l0.4-0.1h0.4h0.2
	l0.1,0.1l0.2,0.1h0.3l0.2-0.1l0.2-0.2l0.2-0.1l0.6-0.1l1.4,0.1l0.4-0.1l1.4-0.6l0.4-0.3l0.2-0.1l0.6-0.1l0.5-0.1l1.7-0.1l2.3,0.3
	l0.4-0.1l0.4-0.2l1.6-0.5l5.2,0.2l1.8-0.6l1.1-0.2l0.9,0.2l0.2-0.1l0.2-0.2l0.2-0.1l0.2,0.1l0.2,0.2l0.4,0.3h0.4l0.5-0.1l0.6,0.1
	l0.2,0.1l0.4,0.4v0.1h0.7l0.4-0.1l1.5-0.6l0.2-0.1l0.2-0.1l0.3-0.1l0.1-0.2l0.3-0.7l0.1-0.3l0.3-0.4l0.3-0.5l0.2-0.5l0.2-0.6
	l-0.5-0.4l0.3-0.5l0.4-0.5l0.2-0.5l-0.5,0.4l-0.4-0.7l-0.4-1.6l0.4-0.4L461.9,495.3z"/>
</svg>
