<?xml version="1.0" encoding="utf-8"?>
<!-- Generator: Adobe Illustrator 16.0.4, SVG Export Plug-In . SVG Version: 6.00 Build 0)  -->
<!DOCTYPE svg PUBLIC "-//W3C//DTD SVG 1.1//EN" "http://www.w3.org/Graphics/SVG/1.1/DTD/svg11.dtd">
<svg version="1.1" id="Capa_1" xmlns="http://www.w3.org/2000/svg" xmlns:xlink="http://www.w3.org/1999/xlink" x="0px" y="0px"
	 width="180px" height="67px" viewBox="49.5 20.667 180 67" enable-background="new 49.5 20.667 180 67" xml:space="preserve">
<g>
	
		<linearGradient id="SVGID_1_" gradientUnits="userSpaceOnUse" x1="138.7334" y1="43.9053" x2="138.5326" y2="34.0706" gradientTransform="matrix(1 0 0 -1 0 109.333)">
		<stop  offset="0.2606" style="stop-color:#002C7E"/>
		<stop  offset="0.9273" style="stop-color:#008ECA"/>
	</linearGradient>
	<path fill="url(#SVGID_1_)" d="M143.565,73.363c0,1.196-0.97,2.165-2.165,2.165h-5.545c-1.196,0-2.165-0.969-2.165-2.165v-5.546
		c0-1.195,0.969-2.164,2.165-2.164h5.545c1.195,0,2.165,0.969,2.165,2.164V73.363z"/>
	<path fill="#FFFFFF" d="M142.936,68.611l-3.368,0.381l1.991-3.324c-0.053-0.004-0.104-0.015-0.157-0.015h-0.308l-4.8,4.934
		l2.667-0.175l-2.667,4.205L142.936,68.611z"/>
	
		<linearGradient id="SVGID_2_" gradientUnits="userSpaceOnUse" x1="150.5576" y1="43.9053" x2="150.3569" y2="34.0712" gradientTransform="matrix(1 0 0 -1 0 109.333)">
		<stop  offset="0.2606" style="stop-color:#002C7E"/>
		<stop  offset="0.9273" style="stop-color:#008ECA"/>
	</linearGradient>
	<path fill="url(#SVGID_2_)" d="M155.39,73.363c0,1.196-0.97,2.165-2.164,2.165h-5.546c-1.194,0-2.164-0.969-2.164-2.165v-5.546
		c0-1.195,0.97-2.164,2.164-2.164h5.546c1.194,0,2.164,0.969,2.164,2.164V73.363z"/>
	<g>
		<path fill="#FFFFFF" d="M155.39,69.93c-0.601,0.6-1.431,0.973-2.344,0.973c-1.829,0-3.32-1.491-3.32-3.322
			c0-0.72,0.237-1.383,0.628-1.928h-1.85l0.662,0.689l-1.317,0.178l1.099,0.68l-1.748,0.552l1.851,0.479l-0.776,0.655l0.978,0.149
			l-0.961,1.164l1.231-0.418l-0.974,1.36l1.573-0.776l-0.336,1.13l1.003-0.691l-0.406,1.438l1.039-1.019l-0.085,1.757l1.323-1.502
			l0.02,1.465l0.647-1.446l0.692,0.911l0.111-1l1.26,1.425v-0.243l-0.364-1.54l0.364,0.188V69.93z"/>
		<path fill="#FFFFFF" d="M153.002,70.286c1.034,0,1.923-0.58,2.388-1.426v-1.043c0-1.195-0.97-2.164-2.164-2.164h-2.189
			c-0.475,0.491-0.771,1.158-0.771,1.896C150.266,69.059,151.49,70.286,153.002,70.286z"/>
	</g>
	
		<linearGradient id="SVGID_3_" gradientUnits="userSpaceOnUse" x1="127.2119" y1="44.0371" x2="127.0111" y2="34.2024" gradientTransform="matrix(1 0 0 -1 0 109.333)">
		<stop  offset="0.2606" style="stop-color:#002C7E"/>
		<stop  offset="0.9273" style="stop-color:#008ECA"/>
	</linearGradient>
	<path fill="url(#SVGID_3_)" d="M132.044,73.232c0,1.196-0.969,2.165-2.165,2.165h-5.545c-1.196,0-2.164-0.969-2.164-2.165v-5.544
		c0-1.197,0.968-2.166,2.164-2.166h5.545c1.196,0,2.165,0.969,2.165,2.166V73.232z"/>
	<path fill="#FFFFFF" d="M128.078,70.209c-0.117,0-0.231,0.017-0.34,0.044c-0.272-0.784-1.017-1.35-1.894-1.35
		c-0.177,0-0.347,0.024-0.509,0.068c-0.25-0.824-1.015-1.424-1.921-1.424c-0.473,0-0.902,0.169-1.245,0.442v4.932h5.868h0.02h0.021
		c0.748,0,1.355-0.606,1.355-1.356C129.433,70.818,128.826,70.209,128.078,70.209z"/>
	
		<linearGradient id="SVGID_4_" gradientUnits="userSpaceOnUse" x1="115.4307" y1="43.9058" x2="115.23" y2="34.0711" gradientTransform="matrix(1 0 0 -1 0 109.333)">
		<stop  offset="0.2606" style="stop-color:#002C7E"/>
		<stop  offset="0.9273" style="stop-color:#008ECA"/>
	</linearGradient>
	<path fill="url(#SVGID_4_)" d="M120.263,73.363c0,1.196-0.969,2.165-2.165,2.165h-5.546c-1.195,0-2.165-0.969-2.165-2.165v-5.545
		c0-1.196,0.969-2.165,2.165-2.165h5.546c1.196,0,2.165,0.969,2.165,2.165V73.363z"/>
	<path fill="#FFFFFF" d="M118.43,71.583l0.165-0.615l-1.529-0.411l1.308-0.753l-0.318-0.554l-1.267,0.73l0.319-1.505l-0.624-0.133
		l-0.436,2.064l-1.744,1.005v-1.918l1.57-1.57l-0.45-0.45l-1.121,1.119v-1.509h-0.639v1.461l-1.143-1.028l-0.426,0.477l1.569,1.408
		v2.078l-1.858-1.071l-0.434-2.064l-0.626,0.132l0.32,1.505l-0.679-0.391v0.736l0.402,0.232l-0.402,0.106v0.659l1.183-0.317
		l1.718,0.989l-1.718,0.991l-1.183-0.318v0.659l0.402,0.109l-0.373,0.214c0.03,0.223,0.09,0.435,0.182,0.63l0.467-0.268
		l-0.157,0.742c0.158,0.185,0.342,0.344,0.553,0.467l0.345-1.638l1.858-1.072v2.054l-0.96,0.96h0.9l0.061-0.06v0.06h0.638v-0.012
		l0.014,0.012h0.954l-0.967-0.866v-2.08l1.744,1.005l0.409,1.941h0.607l0.043-0.009l-0.319-1.505l1.15,0.662l0.318-0.552
		l-1.191-0.688l1.527-0.412l-0.164-0.615l-2.144,0.577l-1.718-0.99l1.718-0.99L118.43,71.583z"/>
	
		<linearGradient id="SVGID_5_" gradientUnits="userSpaceOnUse" x1="162.5664" y1="43.9062" x2="162.3656" y2="34.0721" gradientTransform="matrix(1 0 0 -1 0 109.333)">
		<stop  offset="0.2606" style="stop-color:#002C7E"/>
		<stop  offset="0.9273" style="stop-color:#008ECA"/>
	</linearGradient>
	<path fill="url(#SVGID_5_)" d="M167.398,73.363c0,1.196-0.969,2.165-2.163,2.165h-5.547c-1.194,0-2.164-0.969-2.164-2.165v-5.546
		c0-1.195,0.97-2.164,2.164-2.164h5.547c1.194,0,2.163,0.969,2.163,2.164V73.363z"/>
	<g>
		<path fill="#FFFFFF" d="M160.649,66.255c-0.21,0.122-1.093,0.939-1.214,1.298c-0.125,0.355,0.081,0.75,0.459,0.881
			c0.067,0.023,0.135,0.038,0.204,0.042c0.311,0.02,0.603-0.157,0.704-0.449C160.926,67.67,160.701,66.429,160.649,66.255z"/>
		<path fill="#FFFFFF" d="M163.684,70.631c-0.125,0.356,0.08,0.752,0.46,0.882c0.067,0.024,0.136,0.038,0.202,0.041
			c0.312,0.02,0.603-0.157,0.706-0.448c0.124-0.357-0.102-1.6-0.153-1.771C164.688,69.458,163.807,70.275,163.684,70.631z"/>
		<path fill="#FFFFFF" d="M161.285,69.694c-0.083,0.24,0.055,0.506,0.308,0.594c0.046,0.016,0.094,0.025,0.138,0.027
			c0.211,0.013,0.405-0.104,0.474-0.301c0.082-0.24-0.067-1.075-0.103-1.189C161.961,68.906,161.366,69.456,161.285,69.694z"/>
		<path fill="#FFFFFF" d="M160.514,72.442c-0.084,0.239,0.056,0.506,0.308,0.594c0.046,0.016,0.092,0.023,0.138,0.027
			c0.209,0.014,0.405-0.104,0.473-0.303c0.084-0.239-0.066-1.072-0.1-1.189C161.188,71.654,160.598,72.203,160.514,72.442z"/>
		<path fill="#FFFFFF" d="M158.487,70.431c-0.081,0.239,0.057,0.506,0.311,0.594c0.046,0.016,0.091,0.024,0.137,0.027
			c0.209,0.013,0.405-0.105,0.473-0.303c0.084-0.239-0.066-1.072-0.101-1.19C159.164,69.641,158.573,70.191,158.487,70.431z"/>
		<path fill="#FFFFFF" d="M163.728,66.865c-0.142,0.083-0.733,0.631-0.817,0.871c-0.082,0.239,0.057,0.507,0.309,0.594
			c0.046,0.015,0.093,0.024,0.138,0.027c0.21,0.013,0.405-0.104,0.473-0.302C163.914,67.815,163.762,66.982,163.728,66.865z"/>
		<path fill="#FFFFFF" d="M166.79,66.987c-0.142,0.083-0.734,0.631-0.817,0.87c-0.082,0.241,0.057,0.507,0.309,0.595
			c0.047,0.016,0.092,0.024,0.138,0.027c0.208,0.013,0.405-0.105,0.475-0.302C166.976,67.937,166.825,67.103,166.79,66.987z"/>
	</g>
</g>
<g>
	<path fill="#FFFFFF" d="M125.279,38.597L114.427,52.1V38.597h-2.495v23.738h2.373v-6.442l3.053-3.854l8.077,10.296h2.867
		l-9.372-12.177l9.372-11.561H125.279z M139.276,44.332c-2.559-0.093-4.748,0.77-6.567,2.62c-1.819,1.819-2.745,4.039-2.745,6.597
		c0,2.466,0.864,4.595,2.56,6.382c1.695,1.789,3.761,2.713,6.195,2.805c2.775,0.094,5.119-0.954,7.029-3.145v2.745h2.281v-8.816
		c0.093-2.436-0.739-4.563-2.467-6.351C143.839,45.349,141.741,44.425,139.276,44.332z M143.685,58.42
		c-1.355,1.418-2.99,2.097-4.932,2.004c-1.789-0.094-3.33-0.802-4.594-2.189c-1.263-1.388-1.85-3.021-1.818-4.871
		c0.03-1.88,0.678-3.452,2.004-4.779c1.325-1.325,2.897-1.973,4.778-1.973c1.788,0,3.331,0.647,4.594,1.973
		c1.264,1.327,1.94,2.899,1.972,4.748C145.72,55.275,145.071,56.971,143.685,58.42z M150.498,62.335h2.313V44.763h-2.313V62.335z
		 M150.498,42.667h2.313v-2.906h-2.313V42.667z M157.403,47.26v-2.497h-2.188v17.572h2.466V51.823c0-1.141,0.185-2.035,0.584-2.712
		c0.247-0.401,0.711-0.895,1.388-1.45c0.679-0.555,1.574-0.863,2.653-0.893v-2.343c-0.927-0.031-1.82,0.184-2.714,0.646
		C158.637,45.596,157.897,46.305,157.403,47.26z M173.404,44.332c-2.528-0.093-4.717,0.801-6.536,2.651
		c-1.819,1.819-2.744,4.038-2.744,6.597c0,2.467,0.833,4.593,2.528,6.381c1.697,1.788,3.792,2.713,6.228,2.774
		c2.528,0.094,4.717-0.802,6.536-2.62c1.85-1.849,2.773-4.037,2.773-6.566c0-2.465-0.862-4.592-2.559-6.381
		C177.937,45.349,175.84,44.425,173.404,44.332z M177.843,58.42c-1.354,1.448-2.988,2.097-4.931,2.004
		c-1.819-0.062-3.331-0.772-4.594-2.158c-1.264-1.388-1.85-3.021-1.818-4.872c0.03-1.88,0.678-3.452,2.003-4.778
		c1.325-1.325,2.898-2.003,4.778-1.973c1.788,0,3.299,0.647,4.562,1.973c1.264,1.326,1.942,2.898,2.004,4.748
		C179.879,55.306,179.23,56.971,177.843,58.42z M195.695,57.095c-0.155-2.312-1.419-3.885-3.762-4.687l-2.034-0.678
		c-1.573-0.524-2.344-1.418-2.25-2.682c0.031-1.357,1.141-2.374,2.465-2.405c1.356,0,2.59,0.833,2.59,2.065v0.401h2.467
		l-0.031-0.525c-0.092-1.232-0.647-2.249-1.695-3.083c-1.018-0.833-2.127-1.233-3.33-1.171c-1.386,0.062-2.559,0.585-3.545,1.542
		c-0.956,0.956-1.417,2.126-1.355,3.483c0.092,2.25,1.233,3.73,3.39,4.409l2.066,0.647c1.727,0.555,2.59,1.572,2.559,3.083
		c-0.03,0.863-0.276,1.572-0.801,2.097c-0.587,0.584-1.356,0.863-2.344,0.894c-0.739,0.031-1.448-0.277-2.095-0.925
		c-0.648-0.647-0.987-1.265-0.987-1.85v-0.586h-2.437c0,1.511,0.493,2.805,1.479,3.885c1.019,1.079,2.249,1.695,3.732,1.788
		c1.601,0.093,3.02-0.432,4.254-1.572C195.262,60.054,195.817,58.667,195.695,57.095z"/>
	<g>
		<rect x="196.388" y="59.739" fill="#FFFFFF" width="2.343" height="2.904"/>
		<path fill="#FFFFFF" d="M208.819,44.177c-2.435,0.093-4.533,1.018-6.228,2.806c-1.696,1.788-2.528,3.915-2.528,6.381
			c0,2.559,0.926,4.778,2.745,6.629c1.818,1.818,4.008,2.712,6.535,2.618c2.589-0.092,4.747-1.14,6.474-3.112v1.664
			c0,1.635-0.646,3.052-1.91,4.223c-1.264,1.202-2.745,1.789-4.472,1.82c-1.448,0-2.773-0.432-3.976-1.325
			c-1.204-0.864-2.004-1.911-2.344-3.113h-2.281c0.494,1.788,1.449,3.269,2.898,4.407c1.511,1.203,3.328,1.819,5.426,1.911
			c2.343,0.094,4.409-0.616,6.227-2.064c1.82-1.448,2.746-3.298,2.746-5.519v-8.107c0.029-2.528-0.864-4.717-2.746-6.536
			C213.536,45.01,211.347,44.116,208.819,44.177z M213.783,58.328c-1.266,1.324-2.775,1.972-4.594,1.972
			c-1.85,0-3.422-0.647-4.749-1.972c-1.326-1.326-2.002-2.897-2.034-4.779c-0.03-1.849,0.586-3.452,1.85-4.839
			c1.264-1.388,2.775-2.128,4.594-2.219c1.942-0.092,3.576,0.586,4.934,2.035c1.387,1.449,2.033,3.113,1.973,5.055
			C215.725,55.43,215.047,57.002,213.783,58.328z"/>
		<path fill="#FFFFFF" d="M224.787,45.071c-0.955,0.525-1.696,1.234-2.188,2.189v-2.497h-2.188v17.572h2.463V51.823
			c0-1.141,0.187-2.035,0.586-2.712c0.248-0.401,0.711-0.895,1.389-1.45c0.679-0.555,1.571-0.863,2.651-0.893v-2.343
			C226.575,44.394,225.681,44.609,224.787,45.071z"/>
	</g>
</g>
<g>
	<g>
		
			<radialGradient id="SVGID_6_" cx="78.8691" cy="59.2856" r="30.0546" gradientTransform="matrix(1 0 0 -1 0 109.333)" gradientUnits="userSpaceOnUse">
			<stop  offset="0.4303" style="stop-color:#FFDF00"/>
			<stop  offset="1" style="stop-color:#EB7A00"/>
		</radialGradient>
		<path fill="url(#SVGID_6_)" d="M109.939,53.934c-18.871,1.398-16.119,4.129-6.756,10.121c-9.916-2.178-12.225-0.759,1.495,14.995
			C88.924,65.33,81.719,58.103,85.14,70.182c-6.072-10.979-2.364-19.303-3.86,1.538c-1.498-20.841-2.967-8.999-9.039,1.981
			c3.421-12.079,10.857-20.243-4.896-6.523c13.72-15.753,9.076-9.197-3.004-5.777c10.981-6.071,4.299-5.358-16.542-6.855
			c20.841-1.497,17.72-3.367,8.841-9.487c12.08,3.422,12.75,0.736-0.971-15.018c15.752,13.72,18.859,14.656,15.438,2.576
			c6.072,10.981,7.667,9.267,9.163-11.574c1.13,20.235,2.801,24.194,8.874,13.213c-3.423,12.081-0.221,9.505,15.533-4.215
			c-14.51,15.802-14.326,18.889-2.247,15.467C94.365,50.347,89.099,52.438,109.939,53.934z"/>
	</g>
	
		<radialGradient id="SVGID_7_" cx="79.2881" cy="51.5967" r="16.385" gradientTransform="matrix(1 0 0 -1 0 109.333)" gradientUnits="userSpaceOnUse">
		<stop  offset="0.5333" style="stop-color:#FFFFFF"/>
		<stop  offset="0.8727" style="stop-color:#F8BA00"/>
	</radialGradient>
	<circle fill="url(#SVGID_7_)" cx="79.288" cy="57.736" r="16.385"/>
	
		<linearGradient id="SVGID_8_" gradientUnits="userSpaceOnUse" x1="-1631.2085" y1="1549.4683" x2="-1631.2085" y2="1533.1676" gradientTransform="matrix(-0.9841 -0.4455 0.4124 -0.911 -2158.4897 728.6828)">
		<stop  offset="0" style="stop-color:#FFFFFF"/>
		<stop  offset="0.0273" style="stop-color:#FFFFFF;stop-opacity:0.9727"/>
		<stop  offset="1" style="stop-color:#FFFFFF;stop-opacity:0"/>
	</linearGradient>
	<path fill="url(#SVGID_8_)" d="M70.499,47.436c-2.168,4.79,1.146,10.967,7.403,13.801c6.253,2.831,13.081,1.242,15.249-3.547
		c2.168-4.79-1.143-10.969-7.397-13.8C79.497,41.058,72.667,42.646,70.499,47.436z"/>
	<g>
		
			<linearGradient id="SVGID_9_" gradientUnits="userSpaceOnUse" x1="79.9858" y1="62.0132" x2="79.4188" y2="57.3978" gradientTransform="matrix(1 0 0 -1 0 109.333)">
			<stop  offset="0" style="stop-color:#CFA374"/>
			<stop  offset="0.5152" style="stop-color:#E5D5D4"/>
			<stop  offset="1" style="stop-color:#D29C6B"/>
		</linearGradient>
		<polygon fill="url(#SVGID_9_)" points="79.553,47.697 71.611,51.656 87.294,51.656 		"/>
		
			<linearGradient id="SVGID_10_" gradientUnits="userSpaceOnUse" x1="75.0845" y1="59.4517" x2="83.9053" y2="59.4517" gradientTransform="matrix(1 0 0 -1 0 109.333)">
			<stop  offset="0" style="stop-color:#FFFFFF"/>
			<stop  offset="0.4727" style="stop-color:#FCE2B1"/>
		</linearGradient>
		<polygon fill="url(#SVGID_10_)" points="75.084,51.077 79.55,48.687 83.905,51.077 		"/>
		<polygon fill="#B96338" points="79.658,49.03 83.385,51.077 83.918,51.077 79.565,48.687 75.097,51.077 75.833,51.077 		"/>
		
			<linearGradient id="SVGID_11_" gradientUnits="userSpaceOnUse" x1="81.2832" y1="56.4165" x2="79.1005" y2="56.3682" gradientTransform="matrix(1 0 0 -1 0 109.333)">
			<stop  offset="0" style="stop-color:#CFA374"/>
			<stop  offset="0.5152" style="stop-color:#E5D5D4"/>
			<stop  offset="1" style="stop-color:#D29C6B"/>
		</linearGradient>
		<polygon fill="url(#SVGID_11_)" points="80.547,53.362 81.426,52.563 77.848,52.563 78.699,53.362 		"/>
		
			<linearGradient id="SVGID_12_" gradientUnits="userSpaceOnUse" x1="86.373" y1="56.312" x2="82.9778" y2="56.4573" gradientTransform="matrix(1 0 0 -1 0 109.333)">
			<stop  offset="0" style="stop-color:#CFA374"/>
			<stop  offset="0.5152" style="stop-color:#E5D5D4"/>
			<stop  offset="1" style="stop-color:#D29C6B"/>
		</linearGradient>
		<polygon fill="url(#SVGID_12_)" points="85.471,53.362 86.349,52.563 82.772,52.563 83.624,53.362 		"/>
		
			<linearGradient id="SVGID_13_" gradientUnits="userSpaceOnUse" x1="75.2974" y1="56.3716" x2="72.661" y2="56.3716" gradientTransform="matrix(1 0 0 -1 0 109.333)">
			<stop  offset="0" style="stop-color:#CFA374"/>
			<stop  offset="0.5152" style="stop-color:#E5D5D4"/>
			<stop  offset="1" style="stop-color:#D29C6B"/>
		</linearGradient>
		<polygon fill="url(#SVGID_13_)" points="75.254,53.362 76.133,52.563 72.556,52.563 73.405,53.362 		"/>
		
			<linearGradient id="SVGID_14_" gradientUnits="userSpaceOnUse" x1="79.8369" y1="59.5054" x2="79.2768" y2="47.1842" gradientTransform="matrix(1 0 0 -1 0 109.333)">
			<stop  offset="0" style="stop-color:#CFA374"/>
			<stop  offset="0.5152" style="stop-color:#E5D5D4"/>
			<stop  offset="1" style="stop-color:#D29C6B"/>
		</linearGradient>
		<polygon fill="url(#SVGID_14_)" points="83.736,53.662 83.708,61.321 80.465,61.321 80.465,53.662 78.811,53.662 78.785,61.321 
			75.172,61.321 75.172,53.662 73.518,53.662 73.488,63.592 85.356,63.592 85.39,53.662 		"/>
		<g>
			<rect x="73.935" y="54.15" fill="#B96338" width="0.137" height="6.787"/>
			<rect x="74.593" y="54.15" fill="#B96338" width="0.137" height="6.787"/>
			<rect x="79.281" y="54.15" fill="#B96338" width="0.137" height="6.787"/>
			<rect x="79.94" y="54.15" fill="#B96338" width="0.135" height="6.787"/>
			<rect x="84.209" y="54.15" fill="#B96338" width="0.136" height="6.787"/>
			<rect x="84.865" y="54.15" fill="#B96338" width="0.137" height="6.787"/>
		</g>
		
			<linearGradient id="SVGID_15_" gradientUnits="userSpaceOnUse" x1="71.6162" y1="57.2456" x2="87.3081" y2="57.2456" gradientTransform="matrix(1 0 0 -1 0 109.333)">
			<stop  offset="0" style="stop-color:#CFA374"/>
			<stop  offset="1" style="stop-color:#D29C6B"/>
		</linearGradient>
		<rect x="71.616" y="51.918" fill="url(#SVGID_15_)" width="15.692" height="0.338"/>
	</g>
	<g>
		<path fill="#FFFFFF" d="M94.665,63.306c-1.59-0.936-3.344-1.665-5.166-1.706c-0.833-0.019-1.683,0.068-2.476,0.333
			c-1.663,0.558-2.614,1.604-2.659,1.593c0,0,1.236-2.846-2.99-5.329c-1.524-0.896-3.556-1.023-5.595-0.634
			c-0.187,0.035-0.368,0.077-0.543,0.121c-2.77-6.164-7.507-7.773-10.099-8.185c-0.692,1.07-2.219,3.574-2.384,7.298
			c8.157,5.517,18.369,8.7,27.455,13.282C92.996,67.36,94.21,64.709,94.665,63.306z"/>
	</g>
	<g>
		
			<linearGradient id="SVGID_16_" gradientUnits="userSpaceOnUse" x1="-42.0156" y1="40.1284" x2="-46.182" y2="30.9623" gradientTransform="matrix(0.9801 -0.1984 -0.1984 -0.9801 118.287 83.3337)">
			<stop  offset="0.0848" style="stop-color:#002C7E"/>
			<stop  offset="0.9273" style="stop-color:#008ECA"/>
		</linearGradient>
		<path fill="url(#SVGID_16_)" d="M61.406,79.283c0.078-0.017,0.148-0.061,0.198-0.129l4.945-7.087
			c0.101-0.145,0.065-0.341-0.079-0.44c-0.144-0.101-0.341-0.065-0.44,0.078l-4.946,7.087c-0.101,0.142-0.064,0.34,0.078,0.44
			C61.235,79.284,61.324,79.299,61.406,79.283z"/>
		
			<linearGradient id="SVGID_17_" gradientUnits="userSpaceOnUse" x1="-38.8848" y1="38.7051" x2="-43.0508" y2="29.5397" gradientTransform="matrix(0.9801 -0.1984 -0.1984 -0.9801 118.287 83.3337)">
			<stop  offset="0.0848" style="stop-color:#002C7E"/>
			<stop  offset="0.9273" style="stop-color:#008ECA"/>
		</linearGradient>
		<path fill="url(#SVGID_17_)" d="M72.642,69.189c-0.146-0.095-0.344-0.052-0.438,0.096L60.493,87.557
			c-0.095,0.146-0.052,0.342,0.095,0.438c0.073,0.045,0.156,0.059,0.233,0.043c0.082-0.016,0.157-0.065,0.205-0.141l11.712-18.271
			C72.833,69.479,72.789,69.285,72.642,69.189z"/>
		
			<linearGradient id="SVGID_18_" gradientUnits="userSpaceOnUse" x1="-39.0254" y1="38.771" x2="-43.1918" y2="29.6048" gradientTransform="matrix(0.9801 -0.1984 -0.1984 -0.9801 118.287 83.3337)">
			<stop  offset="0.0848" style="stop-color:#002C7E"/>
			<stop  offset="0.9273" style="stop-color:#008ECA"/>
		</linearGradient>
		<path fill="url(#SVGID_18_)" d="M66.225,75.162c0.075,0.054,0.164,0.069,0.247,0.053c0.076-0.015,0.148-0.06,0.195-0.127
			l2.671-3.779c0.101-0.145,0.067-0.343-0.076-0.443s-0.34-0.067-0.442,0.075l-2.671,3.781
			C66.048,74.865,66.083,75.062,66.225,75.162z"/>
		
			<linearGradient id="SVGID_19_" gradientUnits="userSpaceOnUse" x1="-33.7715" y1="36.3779" x2="-37.9372" y2="27.2132" gradientTransform="matrix(0.9801 -0.1984 -0.1984 -0.9801 118.287 83.3337)">
			<stop  offset="0.0848" style="stop-color:#002C7E"/>
			<stop  offset="0.9273" style="stop-color:#008ECA"/>
		</linearGradient>
		<path fill="url(#SVGID_19_)" d="M77.461,68.713c-0.144-0.101-0.341-0.064-0.441,0.079l-8.047,11.642
			c-0.101,0.144-0.064,0.34,0.08,0.44c0.074,0.051,0.161,0.066,0.243,0.048c0.077-0.014,0.15-0.06,0.197-0.129l8.048-11.641
			C77.641,69.009,77.604,68.813,77.461,68.713z"/>
		
			<linearGradient id="SVGID_20_" gradientUnits="userSpaceOnUse" x1="-30.353" y1="34.8276" x2="-34.5192" y2="25.6618" gradientTransform="matrix(0.9801 -0.1984 -0.1984 -0.9801 118.287 83.3337)">
			<stop  offset="0.0848" style="stop-color:#002C7E"/>
			<stop  offset="0.9273" style="stop-color:#008ECA"/>
		</linearGradient>
		<path fill="url(#SVGID_20_)" d="M80.383,71.548c-0.147-0.095-0.344-0.052-0.439,0.095l-7.537,11.734
			c-0.095,0.147-0.052,0.344,0.095,0.438c0.072,0.048,0.156,0.061,0.234,0.044c0.081-0.016,0.155-0.065,0.203-0.141l7.538-11.732
			C80.573,71.838,80.531,71.643,80.383,71.548z"/>
		
			<linearGradient id="SVGID_21_" gradientUnits="userSpaceOnUse" x1="-23.5508" y1="31.7339" x2="-27.7166" y2="22.569" gradientTransform="matrix(0.9801 -0.1984 -0.1984 -0.9801 118.287 83.3337)">
			<stop  offset="0.0848" style="stop-color:#002C7E"/>
			<stop  offset="0.9273" style="stop-color:#008ECA"/>
		</linearGradient>
		<path fill="url(#SVGID_21_)" d="M87.549,69.12c-0.145-0.098-0.341-0.058-0.439,0.089l-4.135,6.236
			c-0.097,0.145-0.057,0.343,0.088,0.439c0.072,0.047,0.158,0.062,0.238,0.045c0.08-0.015,0.153-0.061,0.201-0.134l4.136-6.237
			C87.737,69.414,87.697,69.216,87.549,69.12z"/>
		
			<linearGradient id="SVGID_22_" gradientUnits="userSpaceOnUse" x1="-25.9863" y1="32.8413" x2="-30.1523" y2="23.6762" gradientTransform="matrix(0.9801 -0.1984 -0.1984 -0.9801 118.287 83.3337)">
			<stop  offset="0.0848" style="stop-color:#002C7E"/>
			<stop  offset="0.9273" style="stop-color:#008ECA"/>
		</linearGradient>
		<path fill="url(#SVGID_22_)" d="M86.398,67.293c-0.145-0.098-0.342-0.062-0.44,0.084L78.325,78.64
			c-0.099,0.146-0.061,0.342,0.084,0.44c0.073,0.05,0.16,0.063,0.241,0.047c0.078-0.015,0.15-0.061,0.2-0.132l7.634-11.264
			C86.581,67.588,86.543,67.392,86.398,67.293z"/>
	</g>
	
		<linearGradient id="SVGID_23_" gradientUnits="userSpaceOnUse" x1="81.9131" y1="49.5669" x2="70.5534" y2="48.6009" gradientTransform="matrix(1 0 0 -1 0 109.333)">
		<stop  offset="0.0054" style="stop-color:#EBE9E9"/>
		<stop  offset="0.0551" style="stop-color:#C9C4C4"/>
		<stop  offset="0.1995" style="stop-color:#7C736E"/>
		<stop  offset="0.3441" style="stop-color:#4A4239"/>
		<stop  offset="0.4859" style="stop-color:#251F15"/>
		<stop  offset="0.6242" style="stop-color:#000000"/>
		<stop  offset="0.7582" style="stop-color:#000000"/>
		<stop  offset="0.8857" style="stop-color:#000000"/>
		<stop  offset="1" style="stop-color:#000000"/>
	</linearGradient>
	<path fill="url(#SVGID_23_)" d="M77.52,59.569c1.693,0,3.235,0.527,4.423,1.392c-0.977-1.201-2.613-1.99-4.47-1.99
		c-1.939,0-3.635,0.863-4.593,2.156C74.095,60.163,75.725,59.569,77.52,59.569z"/>
	
		<linearGradient id="SVGID_24_" gradientUnits="userSpaceOnUse" x1="78.6797" y1="58.9106" x2="78.2045" y2="35.629" gradientTransform="matrix(1 0 0 -1 0 109.333)">
		<stop  offset="0.3455" style="stop-color:#002C7E"/>
		<stop  offset="0.9273" style="stop-color:#008ECA"/>
	</linearGradient>
	<path fill="url(#SVGID_24_)" d="M94.245,64.215c-4.542-2.596-8.754,0.145-8.754,0.145c1.276,0.577,1.861,1.716,1.861,1.716
		c-6.129-4.033-10.585,0.312-10.585,0.312c-4.151-1.592-7.564,0.621-7.564,0.621c2.793-3.222,6.555-1.593,6.555-1.593
		c2.6-3.102,8.131-2.201,8.131-2.201c-0.059-2.258-1.902-3.525-3.104-4.154c-1.477-0.772-3.181-0.711-4.794-0.404
		c-3.025,0.576-4.562,2.747-4.562,2.747c0.656-2.263,2.828-3.185,2.828-3.185c-2.722-6.143-7.483-7.425-9.72-7.681
		c-1.183,2.264-1.855,4.837-1.855,7.566c0,9.045,7.331,16.374,16.374,16.374C85.935,74.479,91.822,70.232,94.245,64.215z"/>
	
		<linearGradient id="SVGID_25_" gradientUnits="userSpaceOnUse" x1="67.8721" y1="57.5728" x2="70.4002" y2="51.9815" gradientTransform="matrix(1 0 0 -1 0 109.333)">
		<stop  offset="0.1099" style="stop-color:#FFFFFF"/>
		<stop  offset="0.222" style="stop-color:#FDFDFD"/>
		<stop  offset="0.2986" style="stop-color:#F0EFEF"/>
		<stop  offset="0.3647" style="stop-color:#D8D5D5"/>
		<stop  offset="0.4248" style="stop-color:#B8B0AE"/>
		<stop  offset="0.4809" style="stop-color:#928783"/>
		<stop  offset="0.534" style="stop-color:#68605A"/>
		<stop  offset="0.5847" style="stop-color:#423A31"/>
		<stop  offset="0.6332" style="stop-color:#120D01"/>
		<stop  offset="0.679" style="stop-color:#000000"/>
		<stop  offset="0.6818" style="stop-color:#000000"/>
	</linearGradient>
	<path opacity="0.8" fill="url(#SVGID_25_)" enable-background="new    " d="M73.04,57.506c0,0-1.556-5.251-8.167-6.611
		C64.873,50.895,70.949,52.839,73.04,57.506z"/>
	
		<linearGradient id="SVGID_26_" gradientUnits="userSpaceOnUse" x1="74.1372" y1="49.5347" x2="81.1184" y2="48.4633" gradientTransform="matrix(1 0 0 -1 0 109.333)">
		<stop  offset="0.1099" style="stop-color:#FFFFFF"/>
		<stop  offset="0.222" style="stop-color:#FDFDFD"/>
		<stop  offset="0.2986" style="stop-color:#F0EFEF"/>
		<stop  offset="0.3647" style="stop-color:#D8D5D5"/>
		<stop  offset="0.4248" style="stop-color:#B8B0AE"/>
		<stop  offset="0.4809" style="stop-color:#928783"/>
		<stop  offset="0.534" style="stop-color:#68605A"/>
		<stop  offset="0.5847" style="stop-color:#423A31"/>
		<stop  offset="0.6332" style="stop-color:#120D01"/>
		<stop  offset="0.679" style="stop-color:#000000"/>
		<stop  offset="0.6818" style="stop-color:#000000"/>
	</linearGradient>
	<path opacity="0.8" fill="url(#SVGID_26_)" enable-background="new    " d="M72.566,60.845c0,0,6.013-4.182,10.403,0.657
		C82.97,61.502,79.203,58.15,72.566,60.845z"/>
	
		<linearGradient id="SVGID_27_" gradientUnits="userSpaceOnUse" x1="71.7627" y1="44.3691" x2="91.6026" y2="41.3575" gradientTransform="matrix(1 0 0 -1 0 109.333)">
		<stop  offset="0.1099" style="stop-color:#FFFFFF"/>
		<stop  offset="0.222" style="stop-color:#FDFDFD"/>
		<stop  offset="0.2986" style="stop-color:#F0EFEF"/>
		<stop  offset="0.3647" style="stop-color:#D8D5D5"/>
		<stop  offset="0.4248" style="stop-color:#B8B0AE"/>
		<stop  offset="0.4809" style="stop-color:#928783"/>
		<stop  offset="0.534" style="stop-color:#68605A"/>
		<stop  offset="0.5847" style="stop-color:#423A31"/>
		<stop  offset="0.6332" style="stop-color:#120D01"/>
		<stop  offset="0.679" style="stop-color:#000000"/>
		<stop  offset="0.6818" style="stop-color:#000000"/>
	</linearGradient>
	<path opacity="0.8" fill="url(#SVGID_27_)" enable-background="new    " d="M86.633,66.479c0,0-5.115-3.317-9.504,0.726
		C77.129,67.205,81.243,64.233,86.633,66.479z"/>
	
		<linearGradient id="SVGID_28_" gradientUnits="userSpaceOnUse" x1="74.6812" y1="32.7334" x2="75.3481" y2="51.18" gradientTransform="matrix(1 0 0 -1 0 109.333)">
		<stop  offset="0" style="stop-color:#F19A00"/>
		<stop  offset="0.4909" style="stop-color:#FEDA00"/>
	</linearGradient>
	<polygon fill="url(#SVGID_28_)" points="81.438,59.274 66.788,74.331 73.262,73.91 66.788,84.117 82.913,69.537 74.737,70.462 	"/>
	
		<linearGradient id="SVGID_29_" gradientUnits="userSpaceOnUse" x1="74.7056" y1="29.5557" x2="74.7056" y2="43.024" gradientTransform="matrix(1 0 0 -1 0 109.333)">
		<stop  offset="0" style="stop-color:#E34001"/>
		<stop  offset="0.4909" style="stop-color:#FEDA00"/>
	</linearGradient>
	<polygon fill="url(#SVGID_29_)" points="74.486,73.184 68.422,73.577 78.037,63.697 73.511,71.25 80.991,70.405 69.876,80.455 	"/>
	
		<linearGradient id="SVGID_30_" gradientUnits="userSpaceOnUse" x1="93.1289" y1="45.4346" x2="84.9238" y2="45.2374" gradientTransform="matrix(1 0 0 -1 0 109.333)">
		<stop  offset="0.1099" style="stop-color:#FFFFFF"/>
		<stop  offset="0.222" style="stop-color:#FDFDFD"/>
		<stop  offset="0.2986" style="stop-color:#F0EFEF"/>
		<stop  offset="0.3647" style="stop-color:#D8D5D5"/>
		<stop  offset="0.4248" style="stop-color:#B8B0AE"/>
		<stop  offset="0.4809" style="stop-color:#928783"/>
		<stop  offset="0.534" style="stop-color:#68605A"/>
		<stop  offset="0.5847" style="stop-color:#423A31"/>
		<stop  offset="0.6332" style="stop-color:#120D01"/>
		<stop  offset="0.679" style="stop-color:#000000"/>
		<stop  offset="0.6818" style="stop-color:#000000"/>
	</linearGradient>
	<path opacity="0.8" fill="url(#SVGID_30_)" enable-background="new    " d="M86.628,64.441c0,0,2.898-2.229,6.845-0.02
		C93.472,64.421,90.236,63.001,86.628,64.441z"/>
	
		<linearGradient id="SVGID_31_" gradientUnits="userSpaceOnUse" x1="67.3359" y1="58.2837" x2="68.0531" y2="45.1381" gradientTransform="matrix(1 0 0 -1 0 109.333)">
		<stop  offset="0" style="stop-color:#72C6EE"/>
		<stop  offset="0.9879" style="stop-color:#FFFFFF"/>
	</linearGradient>
	<polygon fill="url(#SVGID_31_)" points="67.469,59.738 67.469,58.846 66.742,59.574 66.449,59.28 67.469,58.262 67.469,56.928 
		66.262,57.625 65.979,58.963 65.575,58.88 65.781,57.902 65.036,58.332 64.828,57.973 65.602,57.527 64.61,57.26 64.716,56.861 
		66.108,57.235 67.223,56.592 66.108,55.952 64.716,56.325 64.609,55.924 65.602,55.658 64.752,55.169 64.958,54.811 65.781,55.284 
		65.574,54.308 65.979,54.222 66.262,55.561 67.469,56.257 67.469,54.908 66.449,53.994 66.725,53.686 67.469,54.353 67.469,53.404 
		67.882,53.404 67.882,54.383 68.609,53.656 68.902,53.949 67.882,54.967 67.882,56.212 69.013,55.561 69.298,54.222 69.701,54.308 
		69.495,55.284 70.317,54.811 70.523,55.169 69.674,55.658 70.667,55.924 70.56,56.325 69.167,55.952 68.052,56.592 69.167,57.235 
		70.559,56.861 70.667,57.26 69.674,57.527 70.447,57.973 70.241,58.332 69.495,57.902 69.701,58.88 69.297,58.963 69.013,57.625 
		67.882,56.972 67.882,58.323 68.902,59.237 68.626,59.543 67.882,58.877 67.882,59.738 	"/>
	
		<linearGradient id="SVGID_32_" gradientUnits="userSpaceOnUse" x1="67.415" y1="49.2207" x2="67.8431" y2="41.373" gradientTransform="matrix(1 0 0 -1 0 109.333)">
		<stop  offset="0" style="stop-color:#72C6EE"/>
		<stop  offset="0.9879" style="stop-color:#FFFFFF"/>
	</linearGradient>
	<polygon fill="url(#SVGID_32_)" points="67.495,65.299 67.495,64.767 67.061,65.202 66.886,65.025 67.495,64.418 67.495,63.622 
		66.774,64.038 66.605,64.837 66.364,64.787 66.487,64.204 66.042,64.459 65.917,64.246 66.379,63.98 65.786,63.82 65.851,63.583 
		66.682,63.805 67.348,63.422 66.682,63.038 65.851,63.261 65.786,63.022 66.379,62.864 65.873,62.57 65.996,62.358 66.487,62.64 
		66.363,62.056 66.605,62.005 66.774,62.806 67.495,63.22 67.495,62.416 66.886,61.868 67.051,61.685 67.495,62.084 67.495,61.518 
		67.741,61.518 67.741,62.102 68.176,61.669 68.352,61.843 67.741,62.452 67.741,63.195 68.417,62.806 68.587,62.005 68.829,62.056 
		68.705,62.64 69.196,62.358 69.318,62.57 68.811,62.864 69.404,63.022 69.34,63.261 68.508,63.038 67.844,63.422 68.508,63.805 
		69.34,63.583 69.404,63.82 68.811,63.98 69.274,64.246 69.15,64.459 68.705,64.204 68.829,64.787 68.586,64.837 68.417,64.038 
		67.741,63.647 67.741,64.455 68.352,65 68.185,65.184 67.741,64.786 67.741,65.299 	"/>
	
		<linearGradient id="SVGID_33_" gradientUnits="userSpaceOnUse" x1="73.0049" y1="37.5737" x2="70.3757" y2="28.9101" gradientTransform="matrix(1 0 0 -1 0 109.333)">
		<stop  offset="0.0054" style="stop-color:#EBE9E9"/>
		<stop  offset="0.0551" style="stop-color:#C9C4C4"/>
		<stop  offset="0.1995" style="stop-color:#7C736E"/>
		<stop  offset="0.3441" style="stop-color:#4A4239"/>
		<stop  offset="0.4859" style="stop-color:#251F15"/>
		<stop  offset="0.6242" style="stop-color:#000000"/>
		<stop  offset="0.7582" style="stop-color:#000000"/>
		<stop  offset="0.8857" style="stop-color:#000000"/>
		<stop  offset="1" style="stop-color:#000000"/>
	</linearGradient>
	<polygon fill="url(#SVGID_33_)" points="76.261,72.361 70.196,72.754 78.736,63.351 69.121,73.232 75.185,72.838 70.573,80.11 	"/>
</g>
</svg>
