<?xml version="1.0" encoding="utf-8"?>
<!-- Generator: Adobe Illustrator 17.0.1, SVG Export Plug-In . SVG Version: 6.00 Build 0)  -->
<!DOCTYPE svg PUBLIC "-//W3C//DTD SVG 1.1//EN" "http://www.w3.org/Graphics/SVG/1.1/DTD/svg11.dtd">
<svg version="1.1" id="Capa_1" xmlns="http://www.w3.org/2000/svg" xmlns:xlink="http://www.w3.org/1999/xlink" x="0px" y="0px"
	 width="279px" height="108.333px" viewBox="0 0 279 108.333" enable-background="new 0 0 279 108.333" xml:space="preserve">
<g>
	
		<linearGradient id="SVGID_1_" gradientUnits="userSpaceOnUse" x1="36.9274" y1="17.5795" x2="36.6276" y2="2.8938" gradientTransform="matrix(1 0 0 -1 102.34 88.373)">
		<stop  offset="0.2606" style="stop-color:#002C7E"/>
		<stop  offset="0.9273" style="stop-color:#008ECA"/>
	</linearGradient>
	<path fill="url(#SVGID_1_)" d="M146.483,82.645c0,1.785-1.449,3.232-3.233,3.232h-8.28c-1.786,0-3.233-1.447-3.233-3.232v-8.281
		c0-1.785,1.447-3.232,3.233-3.232h8.28c1.784,0,3.233,1.447,3.233,3.232V82.645z"/>
	<path fill="#FFFFFF" d="M145.542,75.549l-5.029,0.568l2.974-4.963c-0.079-0.006-0.155-0.023-0.236-0.023h-0.458l-7.168,7.367
		l3.982-0.26l-3.982,6.278L145.542,75.549z"/>
	
		<linearGradient id="SVGID_2_" gradientUnits="userSpaceOnUse" x1="54.5839" y1="17.5795" x2="54.2841" y2="2.8938" gradientTransform="matrix(1 0 0 -1 102.34 88.373)">
		<stop  offset="0.2606" style="stop-color:#002C7E"/>
		<stop  offset="0.9273" style="stop-color:#008ECA"/>
	</linearGradient>
	<path fill="url(#SVGID_2_)" d="M164.139,82.645c0,1.785-1.447,3.232-3.231,3.232h-8.282c-1.783,0-3.232-1.447-3.232-3.232v-8.281
		c0-1.785,1.449-3.232,3.232-3.232h8.282c1.784,0,3.231,1.447,3.231,3.232V82.645z"/>
	<g>
		<path fill="#FFFFFF" d="M164.139,77.518c-0.897,0.897-2.136,1.453-3.5,1.453c-2.731,0-4.957-2.227-4.957-4.96
			c0-1.076,0.354-2.065,0.938-2.88h-2.763l0.988,1.029l-1.967,0.267l1.641,1.015l-2.611,0.825l2.764,0.712l-1.158,0.98l1.459,0.223
			l-1.436,1.739l1.84-0.626l-1.453,2.032l2.348-1.158l-0.5,1.686l1.495-1.032l-0.606,2.146l1.553-1.521l-0.129,2.623l1.978-2.242
			l0.029,2.186l0.966-2.159l1.034,1.362l0.166-1.494l1.881,2.127v-0.363l-0.543-2.3l0.543,0.283V77.518z"/>
		<path fill="#FFFFFF" d="M160.573,78.049c1.545,0,2.872-0.866,3.566-2.129v-1.557c0-1.785-1.447-3.232-3.231-3.232h-3.27
			c-0.709,0.735-1.149,1.73-1.149,2.832C156.489,76.22,158.317,78.049,160.573,78.049z"/>
	</g>
	
		<linearGradient id="SVGID_3_" gradientUnits="userSpaceOnUse" x1="19.7249" y1="17.7739" x2="19.4251" y2="3.0882" gradientTransform="matrix(1 0 0 -1 102.34 88.373)">
		<stop  offset="0.2606" style="stop-color:#002C7E"/>
		<stop  offset="0.9273" style="stop-color:#008ECA"/>
	</linearGradient>
	<path fill="url(#SVGID_3_)" d="M129.28,82.45c0,1.786-1.447,3.232-3.233,3.232h-8.28c-1.786,0-3.232-1.446-3.232-3.232v-8.28
		c0-1.786,1.446-3.233,3.232-3.233h8.28c1.786,0,3.233,1.447,3.233,3.233V82.45z"/>
	<path fill="#FFFFFF" d="M123.357,77.936c-0.175,0-0.345,0.025-0.507,0.066c-0.406-1.172-1.518-2.014-2.828-2.014
		c-0.264,0-0.518,0.036-0.76,0.1c-0.373-1.23-1.516-2.126-2.869-2.126c-0.706,0-1.347,0.254-1.859,0.662v7.363h8.762l0.029-0.001
		l0.032,0.001c1.117,0,2.024-0.907,2.024-2.026C125.381,78.844,124.474,77.936,123.357,77.936z"/>
	
		<linearGradient id="SVGID_4_" gradientUnits="userSpaceOnUse" x1="2.1329" y1="17.5795" x2="1.8332" y2="2.8938" gradientTransform="matrix(1 0 0 -1 102.34 88.373)">
		<stop  offset="0.2606" style="stop-color:#002C7E"/>
		<stop  offset="0.9273" style="stop-color:#008ECA"/>
	</linearGradient>
	<path fill="url(#SVGID_4_)" d="M111.688,82.645c0,1.785-1.447,3.232-3.232,3.232h-8.281c-1.785,0-3.232-1.447-3.232-3.232v-8.28
		c0-1.786,1.447-3.233,3.232-3.233h8.281c1.785,0,3.232,1.447,3.232,3.233V82.645z"/>
	<path fill="#FFFFFF" d="M108.95,79.986l0.246-0.918l-2.283-0.615l1.953-1.125l-0.475-0.825l-1.892,1.089l0.477-2.246l-0.932-0.197
		l-0.651,3.082l-2.604,1.5v-2.863l2.346-2.346l-0.672-0.672l-1.674,1.671v-2.254h-0.953v2.183l-1.707-1.535l-0.636,0.71l2.343,2.103
		v3.104l-2.775-1.6l-0.649-3.082l-0.934,0.197l0.477,2.246l-1.013-0.583v1.099l0.6,0.346l-0.6,0.161V79.6l1.766-0.475l2.566,1.479
		l-2.566,1.479l-1.766-0.475v0.985l0.6,0.161l-0.556,0.32c0.044,0.333,0.134,0.649,0.272,0.942l0.697-0.401l-0.234,1.11
		c0.235,0.276,0.511,0.512,0.826,0.696l0.515-2.445l2.775-1.601v3.066l-1.434,1.435h1.344l0.09-0.09v0.09h0.953v-0.018l0.02,0.018
		h1.425l-1.445-1.295v-3.105l2.604,1.5l0.611,2.9h0.906l0.065-0.014l-0.476-2.248l1.718,0.988l0.475-0.824l-1.779-1.025l2.281-0.615
		l-0.246-0.918l-3.201,0.861l-2.565-1.479l2.565-1.479L108.95,79.986z"/>
	
		<linearGradient id="SVGID_5_" gradientUnits="userSpaceOnUse" x1="72.5159" y1="17.5796" x2="72.2161" y2="2.8938" gradientTransform="matrix(1 0 0 -1 102.34 88.373)">
		<stop  offset="0.2606" style="stop-color:#002C7E"/>
		<stop  offset="0.9273" style="stop-color:#008ECA"/>
	</linearGradient>
	<path fill="url(#SVGID_5_)" d="M182.071,82.645c0,1.785-1.447,3.232-3.23,3.232h-8.283c-1.783,0-3.232-1.447-3.232-3.232v-8.281
		c0-1.785,1.449-3.232,3.232-3.232h8.283c1.783,0,3.23,1.447,3.23,3.232V82.645z"/>
	<g>
		<path fill="#FFFFFF" d="M171.993,72.031c-0.314,0.183-1.631,1.404-1.814,1.938c-0.186,0.531,0.122,1.122,0.686,1.317
			c0.101,0.035,0.202,0.056,0.305,0.062c0.465,0.029,0.9-0.234,1.052-0.672C172.406,74.144,172.071,72.291,171.993,72.031z"/>
		<path fill="#FFFFFF" d="M176.523,78.566c-0.186,0.532,0.122,1.123,0.687,1.318c0.101,0.035,0.203,0.055,0.303,0.06
			c0.465,0.029,0.9-0.234,1.053-0.67c0.186-0.533-0.15-2.387-0.227-2.645C178.023,76.814,176.708,78.033,176.523,78.566z"/>
		<path fill="#FFFFFF" d="M172.942,77.167c-0.123,0.358,0.082,0.755,0.461,0.886c0.068,0.024,0.138,0.037,0.205,0.041
			c0.313,0.019,0.605-0.156,0.707-0.45c0.123-0.358-0.101-1.604-0.153-1.776C173.952,75.99,173.065,76.809,172.942,77.167z"/>
		<path fill="#FFFFFF" d="M171.79,81.27c-0.125,0.357,0.083,0.754,0.461,0.886c0.068,0.024,0.136,0.036,0.205,0.041
			c0.311,0.02,0.605-0.157,0.705-0.452c0.125-0.357-0.099-1.602-0.15-1.775C172.798,80.092,171.915,80.912,171.79,81.27z"/>
		<path fill="#FFFFFF" d="M168.766,78.267c-0.123,0.358,0.084,0.755,0.463,0.886c0.068,0.023,0.135,0.037,0.203,0.041
			c0.313,0.02,0.605-0.156,0.707-0.451c0.124-0.357-0.1-1.602-0.151-1.777C169.776,77.088,168.892,77.908,168.766,78.267z"/>
		<path fill="#FFFFFF" d="M176.59,72.942c-0.213,0.123-1.096,0.942-1.222,1.301c-0.122,0.357,0.085,0.755,0.462,0.886
			c0.069,0.023,0.139,0.037,0.205,0.042c0.313,0.019,0.605-0.158,0.706-0.452C176.868,74.361,176.641,73.115,176.59,72.942z"/>
		<path fill="#FFFFFF" d="M181.163,73.124c-0.212,0.123-1.096,0.942-1.221,1.301c-0.123,0.358,0.084,0.755,0.461,0.886
			c0.069,0.023,0.137,0.037,0.205,0.041c0.311,0.02,0.605-0.157,0.708-0.451C181.44,74.543,181.215,73.297,181.163,73.124z"/>
	</g>
</g>
<g>
	<linearGradient id="SVGID_6_" gradientUnits="userSpaceOnUse" x1="161.9122" y1="68.0201" x2="161.104" y2="29.4363">
		<stop  offset="0.2606" style="stop-color:#002C7E"/>
		<stop  offset="1" style="stop-color:#018CC1"/>
	</linearGradient>
	<path fill="url(#SVGID_6_)" d="M119.178,30.732l-16.205,20.163V30.732h-3.726v35.445h3.543v-9.62l4.559-5.755l12.061,15.375h4.281
		l-13.994-18.183l13.994-17.262C123.691,30.732,119.178,30.732,119.178,30.732z M140.079,39.295c-3.821-0.139-7.09,1.15-9.806,3.912
		c-2.716,2.716-4.098,6.031-4.098,9.851c0,3.683,1.29,6.86,3.822,9.529c2.53,2.671,5.616,4.051,9.251,4.188
		c4.145,0.139,7.644-1.426,10.496-4.694v4.097h3.407V53.013c0.138-3.637-1.106-6.813-3.683-9.483
		C146.892,40.814,143.76,39.434,140.079,39.295z M146.661,60.332c-2.025,2.117-4.465,3.131-7.364,2.992
		c-2.67-0.139-4.972-1.197-6.86-3.269c-1.886-2.071-2.762-4.512-2.715-7.273c0.045-2.808,1.012-5.155,2.992-7.136
		c1.979-1.979,4.326-2.946,7.134-2.946c2.672,0,4.974,0.966,6.859,2.946c1.889,1.98,2.899,4.328,2.946,7.089
		C149.7,55.636,148.733,58.168,146.661,60.332z M156.835,66.178h3.454V39.939h-3.454V66.178z M156.835,36.809h3.454v-4.338h-3.454
		V36.809z M167.147,43.667v-3.728h-3.268v26.238h3.682V50.481c0-1.703,0.277-3.039,0.873-4.051c0.369-0.599,1.061-1.335,2.072-2.165
		c1.014-0.828,2.35-1.288,3.961-1.334v-3.498c-1.383-0.046-2.717,0.275-4.053,0.966C168.989,41.183,167.884,42.241,167.147,43.667z
		 M191.038,39.295c-3.774-0.139-7.043,1.196-9.759,3.958c-2.716,2.716-4.097,6.03-4.097,9.851c0,3.683,1.244,6.858,3.775,9.528
		c2.533,2.67,5.662,4.051,9.299,4.143c3.775,0.139,7.043-1.196,9.76-3.912c2.762-2.762,4.141-6.029,4.141-9.805
		c0-3.682-1.287-6.858-3.82-9.528C197.806,40.814,194.675,39.434,191.038,39.295z M197.667,60.332
		c-2.023,2.162-4.463,3.131-7.364,2.992c-2.716-0.093-4.972-1.151-6.86-3.223c-1.887-2.071-2.762-4.511-2.714-7.273
		c0.044-2.808,1.011-5.155,2.991-7.135c1.979-1.979,4.328-2.992,7.135-2.946c2.67,0,4.926,0.967,6.813,2.946
		c1.887,1.98,2.901,4.328,2.991,7.089C200.706,55.682,199.739,58.168,197.667,60.332z M224.323,58.353
		c-0.23-3.453-2.117-5.801-5.616-6.998l-3.038-1.012c-2.348-0.783-3.5-2.117-3.361-4.004c0.047-2.026,1.703-3.545,3.682-3.591
		c2.026,0,3.867,1.244,3.867,3.084v0.599h3.684l-0.047-0.783c-0.137-1.841-0.967-3.359-2.531-4.603
		c-1.519-1.243-3.176-1.841-4.973-1.749c-2.07,0.092-3.82,0.874-5.293,2.301c-1.428,1.428-2.117,3.176-2.025,5.202
		c0.137,3.36,1.841,5.57,5.063,6.583l3.086,0.966c2.578,0.829,3.867,2.348,3.82,4.603c-0.045,1.289-0.414,2.349-1.196,3.131
		c-0.876,0.874-2.026,1.289-3.5,1.335c-1.104,0.047-2.163-0.414-3.129-1.381c-0.967-0.967-1.474-1.889-1.474-2.762v-0.875h-3.637
		c0,2.256,0.736,4.188,2.209,5.801c1.52,1.611,3.36,2.531,5.572,2.669c2.391,0.139,4.51-0.645,6.352-2.348
		C223.676,62.771,224.506,60.7,224.323,58.353z"/>
	<g>
		<linearGradient id="SVGID_7_" gradientUnits="userSpaceOnUse" x1="227.1532" y1="62.2653" x2="227.0608" y2="66.6737">
			<stop  offset="0.2667" style="stop-color:#F8BE00"/>
			<stop  offset="1" style="stop-color:#E13205"/>
		</linearGradient>
		<rect x="225.358" y="62.301" fill="url(#SVGID_7_)" width="3.498" height="4.337"/>
		<linearGradient id="SVGID_8_" gradientUnits="userSpaceOnUse" x1="244.7501" y1="39.0661" x2="243.9712" y2="76.2521">
			<stop  offset="0.2667" style="stop-color:#F8BE00"/>
			<stop  offset="1" style="stop-color:#E13205"/>
		</linearGradient>
		<path fill="url(#SVGID_8_)" d="M243.921,39.064c-3.637,0.139-6.768,1.52-9.299,4.189c-2.533,2.67-3.775,5.846-3.775,9.529
			c0,3.82,1.381,7.135,4.098,9.897c2.715,2.716,5.984,4.051,9.758,3.912c3.867-0.137,7.09-1.703,9.668-4.649v2.485
			c0,2.441-0.967,4.558-2.853,6.307c-1.887,1.795-4.098,2.67-6.676,2.717c-2.164,0-4.143-0.645-5.938-1.98
			c-1.797-1.289-2.992-2.854-3.5-4.648h-3.406c0.738,2.67,2.164,4.88,4.328,6.582c2.256,1.796,4.971,2.717,8.102,2.854
			c3.498,0.138,6.584-0.921,9.299-3.085c2.717-2.162,4.098-4.924,4.098-8.239V52.829c0.045-3.775-1.289-7.043-4.098-9.759
			C250.964,40.308,247.696,38.972,243.921,39.064z M251.333,60.193c-1.889,1.979-4.145,2.945-6.861,2.945
			c-2.76,0-5.109-0.966-7.09-2.945c-1.979-1.979-2.99-4.326-3.037-7.135c-0.045-2.762,0.875-5.155,2.762-7.227
			c1.887-2.072,4.145-3.177,6.859-3.314c2.9-0.137,5.34,0.875,7.367,3.038c2.07,2.165,3.037,4.649,2.945,7.549
			C254.231,55.867,253.219,58.215,251.333,60.193z"/>
		<linearGradient id="SVGID_9_" gradientUnits="userSpaceOnUse" x1="266.5652" y1="39.3225" x2="266.0006" y2="66.277">
			<stop  offset="0.2667" style="stop-color:#F8BE00"/>
			<stop  offset="1" style="stop-color:#E13205"/>
		</linearGradient>
		<path fill="url(#SVGID_9_)" d="M267.764,40.399c-1.426,0.783-2.533,1.842-3.268,3.268v-3.728h-3.268v26.238h3.68V50.481
			c0-1.703,0.277-3.039,0.875-4.051c0.369-0.599,1.061-1.335,2.072-2.165c1.014-0.828,2.348-1.288,3.959-1.334v-3.498
			C270.434,39.388,269.098,39.709,267.764,40.399z"/>
	</g>
</g>
<g>
	<g>
		
			<radialGradient id="SVGID_10_" cx="-52.4615" cy="40.544" r="44.8773" gradientTransform="matrix(1 0 0 -1 102.34 88.373)" gradientUnits="userSpaceOnUse">
			<stop  offset="0.4303" style="stop-color:#FFDF00"/>
			<stop  offset="1" style="stop-color:#EB7A00"/>
		</radialGradient>
		<path fill="url(#SVGID_10_)" d="M96.272,53.634c-28.178,2.087-24.07,6.166-10.088,15.112c-14.806-3.252-18.255-1.133,2.232,22.391
			C64.893,70.649,54.134,59.858,59.242,77.896c-9.066-16.396-3.53-28.825-5.764,2.295c-2.236-31.12-4.43-13.437-13.496,2.96
			c5.108-18.037,16.212-30.228-7.312-9.74c20.487-23.524,13.552-13.735-4.485-8.627c16.396-9.066,6.419-8.003-24.7-10.237
			c31.119-2.235,26.46-5.027,13.201-14.165c18.038,5.109,19.038,1.099-1.449-22.425c23.521,20.487,28.16,21.885,23.052,3.846
			C47.355,38.2,49.737,35.641,51.971,4.521c1.688,30.215,4.184,36.127,13.251,19.73c-5.11,18.038-0.329,14.192,23.194-6.294
			C66.75,41.552,67.024,46.162,85.061,41.053C73.016,48.277,65.153,51.399,96.272,53.634z"/>
	</g>
	
		<radialGradient id="SVGID_11_" cx="-51.836" cy="29.062" r="24.466" gradientTransform="matrix(1 0 0 -1 102.34 88.373)" gradientUnits="userSpaceOnUse">
		<stop  offset="0.5333" style="stop-color:#FFFFFF"/>
		<stop  offset="0.8727" style="stop-color:#F8BA00"/>
	</radialGradient>
	<circle fill="url(#SVGID_11_)" cx="50.504" cy="59.311" r="24.466"/>
	
		<linearGradient id="SVGID_12_" gradientUnits="userSpaceOnUse" x1="-1704.1102" y1="1521.5585" x2="-1704.1102" y2="1497.2186" gradientTransform="matrix(-0.9841 -0.4455 0.4124 -0.911 -2244.3044 665.4896)">
		<stop  offset="0" style="stop-color:#FFFFFF"/>
		<stop  offset="0.0273" style="stop-color:#FFFFFF;stop-opacity:0.9727"/>
		<stop  offset="1" style="stop-color:#FFFFFF;stop-opacity:0"/>
	</linearGradient>
	<path fill="url(#SVGID_12_)" d="M37.38,43.93c-3.238,7.152,1.711,16.376,11.054,20.607c9.337,4.228,19.532,1.857,22.769-5.296
		c3.237-7.152-1.707-16.378-11.045-20.605C50.816,34.407,40.617,36.777,37.38,43.93z"/>
	<g>
		
			<linearGradient id="SVGID_13_" gradientUnits="userSpaceOnUse" x1="-50.7955" y1="44.616" x2="-51.6423" y2="37.7238" gradientTransform="matrix(1 0 0 -1 102.34 88.373)">
			<stop  offset="0" style="stop-color:#CFA374"/>
			<stop  offset="0.5152" style="stop-color:#E5D5D4"/>
			<stop  offset="1" style="stop-color:#D29C6B"/>
		</linearGradient>
		<polygon fill="url(#SVGID_13_)" points="50.899,44.321 39.04,50.232 62.458,50.232 		"/>
		
			<linearGradient id="SVGID_14_" gradientUnits="userSpaceOnUse" x1="-58.113" y1="40.7905" x2="-44.942" y2="40.7905" gradientTransform="matrix(1 0 0 -1 102.34 88.373)">
			<stop  offset="0" style="stop-color:#FFFFFF"/>
			<stop  offset="0.4727" style="stop-color:#FCE2B1"/>
		</linearGradient>
		<polygon fill="url(#SVGID_14_)" points="44.227,49.367 50.896,45.798 57.398,49.367 		"/>
		<polygon fill="#B96338" points="51.056,46.311 56.621,49.367 57.417,49.367 50.918,45.798 44.245,49.367 45.345,49.367 		"/>
		
			<linearGradient id="SVGID_15_" gradientUnits="userSpaceOnUse" x1="-48.8575" y1="36.2589" x2="-52.1164" y2="36.1868" gradientTransform="matrix(1 0 0 -1 102.34 88.373)">
			<stop  offset="0" style="stop-color:#CFA374"/>
			<stop  offset="0.5152" style="stop-color:#E5D5D4"/>
			<stop  offset="1" style="stop-color:#D29C6B"/>
		</linearGradient>
		<polygon fill="url(#SVGID_15_)" points="52.384,52.779 53.697,51.587 48.353,51.587 49.624,52.779 		"/>
		
			<linearGradient id="SVGID_16_" gradientUnits="userSpaceOnUse" x1="-41.256" y1="36.1014" x2="-46.3261" y2="36.3183" gradientTransform="matrix(1 0 0 -1 102.34 88.373)">
			<stop  offset="0" style="stop-color:#CFA374"/>
			<stop  offset="0.5152" style="stop-color:#E5D5D4"/>
			<stop  offset="1" style="stop-color:#D29C6B"/>
		</linearGradient>
		<polygon fill="url(#SVGID_16_)" points="59.737,52.779 61.048,51.587 55.707,51.587 56.977,52.779 		"/>
		
			<linearGradient id="SVGID_17_" gradientUnits="userSpaceOnUse" x1="-57.795" y1="36.19" x2="-61.7313" y2="36.19" gradientTransform="matrix(1 0 0 -1 102.34 88.373)">
			<stop  offset="0" style="stop-color:#CFA374"/>
			<stop  offset="0.5152" style="stop-color:#E5D5D4"/>
			<stop  offset="1" style="stop-color:#D29C6B"/>
		</linearGradient>
		<polygon fill="url(#SVGID_17_)" points="44.48,52.779 45.793,51.587 40.451,51.587 41.72,52.779 		"/>
		
			<linearGradient id="SVGID_18_" gradientUnits="userSpaceOnUse" x1="-51.0162" y1="40.8722" x2="-51.8526" y2="22.4727" gradientTransform="matrix(1 0 0 -1 102.34 88.373)">
			<stop  offset="0" style="stop-color:#CFA374"/>
			<stop  offset="0.5152" style="stop-color:#E5D5D4"/>
			<stop  offset="1" style="stop-color:#D29C6B"/>
		</linearGradient>
		<polygon fill="url(#SVGID_18_)" points="57.146,53.227 57.104,64.664 52.261,64.664 52.261,53.227 49.791,53.227 49.753,64.664 
			44.358,64.664 44.358,53.227 41.888,53.227 41.843,68.055 59.565,68.055 59.615,53.227 		"/>
		<g>
			<rect x="42.51" y="53.957" fill="#B96338" width="0.205" height="10.134"/>
			<rect x="43.493" y="53.957" fill="#B96338" width="0.204" height="10.134"/>
			<rect x="50.494" y="53.957" fill="#B96338" width="0.204" height="10.134"/>
			<rect x="51.477" y="53.957" fill="#B96338" width="0.202" height="10.134"/>
			<rect x="57.852" y="53.957" fill="#B96338" width="0.204" height="10.134"/>
			<rect x="58.832" y="53.957" fill="#B96338" width="0.204" height="10.134"/>
		</g>
		
			<linearGradient id="SVGID_19_" gradientUnits="userSpaceOnUse" x1="-63.292" y1="37.4965" x2="-39.861" y2="37.4965" gradientTransform="matrix(1 0 0 -1 102.34 88.373)">
			<stop  offset="0" style="stop-color:#CFA374"/>
			<stop  offset="1" style="stop-color:#D29C6B"/>
		</linearGradient>
		<rect x="39.048" y="50.624" fill="url(#SVGID_19_)" width="23.431" height="0.505"/>
	</g>
	<g>
		<path fill="#FFFFFF" d="M73.465,67.627c-2.374-1.396-4.994-2.486-7.713-2.546c-1.244-0.028-2.513,0.101-3.697,0.497
			c-2.483,0.833-3.903,2.394-3.971,2.377c0,0,1.846-4.25-4.465-7.957c-2.275-1.338-5.309-1.529-8.354-0.947
			c-0.279,0.053-0.549,0.115-0.811,0.182c-4.136-9.204-11.21-11.607-15.081-12.221c-1.033,1.598-3.313,5.337-3.56,10.897
			c12.18,8.237,27.429,12.992,40.996,19.834C70.972,73.681,72.786,69.723,73.465,67.627z"/>
	</g>
	<g>
		
			<linearGradient id="SVGID_20_" gradientUnits="userSpaceOnUse" x1="-182.0424" y1="29.0863" x2="-188.263" y2="15.4007" gradientTransform="matrix(0.9801 -0.1984 -0.1984 -0.9801 219.5498 43.6452)">
			<stop  offset="0.0848" style="stop-color:#002C7E"/>
			<stop  offset="0.9273" style="stop-color:#008ECA"/>
		</linearGradient>
		<path fill="url(#SVGID_20_)" d="M23.802,91.484c0.116-0.024,0.221-0.09,0.295-0.193l7.384-10.582
			c0.15-0.215,0.096-0.51-0.117-0.658c-0.215-0.149-0.51-0.098-0.659,0.117L23.32,90.75c-0.15,0.213-0.096,0.508,0.117,0.658
			C23.547,91.485,23.679,91.509,23.802,91.484z"/>
		
			<linearGradient id="SVGID_21_" gradientUnits="userSpaceOnUse" x1="-177.3669" y1="26.962" x2="-183.5875" y2="13.2763" gradientTransform="matrix(0.9801 -0.1984 -0.1984 -0.9801 219.5498 43.6452)">
			<stop  offset="0.0848" style="stop-color:#002C7E"/>
			<stop  offset="0.9273" style="stop-color:#008ECA"/>
		</linearGradient>
		<path fill="url(#SVGID_21_)" d="M40.58,76.412c-0.219-0.141-0.514-0.078-0.654,0.143l-17.488,27.284
			c-0.141,0.219-0.078,0.511,0.143,0.653c0.108,0.068,0.233,0.088,0.348,0.064c0.123-0.023,0.235-0.096,0.306-0.209l17.488-27.282
			C40.865,76.846,40.799,76.554,40.58,76.412z"/>
		
			<linearGradient id="SVGID_22_" gradientUnits="userSpaceOnUse" x1="-177.5781" y1="27.0579" x2="-183.7987" y2="13.3723" gradientTransform="matrix(0.9801 -0.1984 -0.1984 -0.9801 219.5498 43.6452)">
			<stop  offset="0.0848" style="stop-color:#002C7E"/>
			<stop  offset="0.9273" style="stop-color:#008ECA"/>
		</linearGradient>
		<path fill="url(#SVGID_22_)" d="M30.998,85.331c0.112,0.079,0.245,0.103,0.368,0.077c0.113-0.021,0.221-0.088,0.292-0.189
			l3.988-5.643c0.151-0.215,0.101-0.511-0.114-0.661c-0.214-0.151-0.508-0.101-0.66,0.112l-3.988,5.645
			C30.733,84.887,30.785,85.182,30.998,85.331z"/>
		
			<linearGradient id="SVGID_23_" gradientUnits="userSpaceOnUse" x1="-169.7311" y1="23.4914" x2="-175.9518" y2="9.8057" gradientTransform="matrix(0.9801 -0.1984 -0.1984 -0.9801 219.5498 43.6452)">
			<stop  offset="0.0848" style="stop-color:#002C7E"/>
			<stop  offset="0.9273" style="stop-color:#008ECA"/>
		</linearGradient>
		<path fill="url(#SVGID_23_)" d="M47.776,75.701c-0.215-0.15-0.51-0.096-0.659,0.119L35.101,93.203
			c-0.15,0.213-0.096,0.509,0.119,0.658c0.111,0.076,0.241,0.098,0.362,0.072c0.116-0.021,0.224-0.088,0.295-0.192l12.018-17.383
			C48.044,76.145,47.989,75.85,47.776,75.701z"/>
		
			<linearGradient id="SVGID_24_" gradientUnits="userSpaceOnUse" x1="-164.6272" y1="21.173" x2="-170.8481" y2="7.4866" gradientTransform="matrix(0.9801 -0.1984 -0.1984 -0.9801 219.5498 43.6452)">
			<stop  offset="0.0848" style="stop-color:#002C7E"/>
			<stop  offset="0.9273" style="stop-color:#008ECA"/>
		</linearGradient>
		<path fill="url(#SVGID_24_)" d="M52.139,79.935c-0.22-0.142-0.514-0.077-0.655,0.142L40.23,97.598
			c-0.142,0.221-0.078,0.514,0.141,0.654c0.108,0.07,0.234,0.09,0.35,0.066c0.121-0.025,0.232-0.098,0.304-0.21l11.256-17.52
			C52.422,80.369,52.36,80.076,52.139,79.935z"/>
		
			<linearGradient id="SVGID_25_" gradientUnits="userSpaceOnUse" x1="-154.4708" y1="16.554" x2="-160.6913" y2="2.8687" gradientTransform="matrix(0.9801 -0.1984 -0.1984 -0.9801 219.5498 43.6452)">
			<stop  offset="0.0848" style="stop-color:#002C7E"/>
			<stop  offset="0.9273" style="stop-color:#008ECA"/>
		</linearGradient>
		<path fill="url(#SVGID_25_)" d="M62.84,76.309c-0.217-0.146-0.509-0.086-0.656,0.133l-6.174,9.312
			c-0.145,0.216-0.085,0.511,0.132,0.655c0.107,0.071,0.236,0.093,0.355,0.068c0.119-0.023,0.228-0.092,0.3-0.201l6.175-9.313
			C63.119,76.746,63.06,76.453,62.84,76.309z"/>
		
			<linearGradient id="SVGID_26_" gradientUnits="userSpaceOnUse" x1="-158.1067" y1="18.2077" x2="-164.3275" y2="4.5218" gradientTransform="matrix(0.9801 -0.1984 -0.1984 -0.9801 219.5498 43.6452)">
			<stop  offset="0.0848" style="stop-color:#002C7E"/>
			<stop  offset="0.9273" style="stop-color:#008ECA"/>
		</linearGradient>
		<path fill="url(#SVGID_26_)" d="M61.121,73.582c-0.217-0.146-0.511-0.091-0.658,0.125L49.065,90.525
			c-0.147,0.217-0.09,0.51,0.126,0.657c0.109,0.075,0.238,0.096,0.359,0.071c0.116-0.023,0.225-0.091,0.298-0.197l11.4-16.818
			C61.393,74.022,61.337,73.729,61.121,73.582z"/>
	</g>
	
		<linearGradient id="SVGID_27_" gradientUnits="userSpaceOnUse" x1="-47.9168" y1="26.0305" x2="-64.8797" y2="24.588" gradientTransform="matrix(1 0 0 -1 102.34 88.373)">
		<stop  offset="0.0054" style="stop-color:#EBE9E9"/>
		<stop  offset="0.0551" style="stop-color:#C9C4C4"/>
		<stop  offset="0.1995" style="stop-color:#7C736E"/>
		<stop  offset="0.3441" style="stop-color:#4A4239"/>
		<stop  offset="0.4859" style="stop-color:#251F15"/>
		<stop  offset="0.6242" style="stop-color:#000000"/>
		<stop  offset="0.7582" style="stop-color:#000000"/>
		<stop  offset="0.8857" style="stop-color:#000000"/>
		<stop  offset="1" style="stop-color:#000000"/>
	</linearGradient>
	<path fill="url(#SVGID_27_)" d="M47.864,62.047c2.527,0,4.831,0.787,6.605,2.078c-1.459-1.792-3.902-2.97-6.675-2.97
		c-2.895,0-5.427,1.287-6.857,3.218C42.75,62.934,45.182,62.047,47.864,62.047z"/>
	
		<linearGradient id="SVGID_28_" gradientUnits="userSpaceOnUse" x1="-52.7438" y1="39.9845" x2="-53.4534" y2="5.2197" gradientTransform="matrix(1 0 0 -1 102.34 88.373)">
		<stop  offset="0.3455" style="stop-color:#002C7E"/>
		<stop  offset="0.9273" style="stop-color:#008ECA"/>
	</linearGradient>
	<path fill="url(#SVGID_28_)" d="M72.838,68.986c-6.783-3.877-13.072,0.216-13.072,0.216c1.906,0.862,2.779,2.561,2.779,2.561
		c-9.152-6.023-15.806,0.466-15.806,0.466c-6.198-2.375-11.295,0.927-11.295,0.927c4.171-4.809,9.789-2.376,9.789-2.376
		c3.881-4.633,12.14-3.287,12.14-3.287c-0.088-3.371-2.84-5.264-4.635-6.203c-2.206-1.155-4.75-1.064-7.16-0.604
		c-4.516,0.859-6.812,4.101-6.812,4.101c0.979-3.378,4.223-4.755,4.223-4.755c-4.065-9.172-11.174-11.087-14.515-11.469
		c-1.766,3.381-2.769,7.222-2.769,11.299c0,13.505,10.946,24.449,24.45,24.449C60.429,84.311,69.219,77.969,72.838,68.986z"/>
	
		<linearGradient id="SVGID_29_" gradientUnits="userSpaceOnUse" x1="-68.883" y1="37.9844" x2="-65.1086" y2="29.6368" gradientTransform="matrix(1 0 0 -1 102.34 88.373)">
		<stop  offset="0.1099" style="stop-color:#FFFFFF"/>
		<stop  offset="0.222" style="stop-color:#FDFDFD"/>
		<stop  offset="0.2986" style="stop-color:#F0EFEF"/>
		<stop  offset="0.3647" style="stop-color:#D8D5D5"/>
		<stop  offset="0.4248" style="stop-color:#B8B0AE"/>
		<stop  offset="0.4809" style="stop-color:#928783"/>
		<stop  offset="0.534" style="stop-color:#68605A"/>
		<stop  offset="0.5847" style="stop-color:#423A31"/>
		<stop  offset="0.6332" style="stop-color:#120D01"/>
		<stop  offset="0.679" style="stop-color:#000000"/>
		<stop  offset="0.6818" style="stop-color:#000000"/>
	</linearGradient>
	<path opacity="0.8" fill="url(#SVGID_29_)" enable-background="new    " d="M41.174,58.967c0,0-2.323-7.84-12.196-9.871
		C28.978,49.096,38.052,51.999,41.174,58.967z"/>
	
		<linearGradient id="SVGID_30_" gradientUnits="userSpaceOnUse" x1="-59.5287" y1="25.9827" x2="-49.1039" y2="24.3829" gradientTransform="matrix(1 0 0 -1 102.34 88.373)">
		<stop  offset="0.1099" style="stop-color:#FFFFFF"/>
		<stop  offset="0.222" style="stop-color:#FDFDFD"/>
		<stop  offset="0.2986" style="stop-color:#F0EFEF"/>
		<stop  offset="0.3647" style="stop-color:#D8D5D5"/>
		<stop  offset="0.4248" style="stop-color:#B8B0AE"/>
		<stop  offset="0.4809" style="stop-color:#928783"/>
		<stop  offset="0.534" style="stop-color:#68605A"/>
		<stop  offset="0.5847" style="stop-color:#423A31"/>
		<stop  offset="0.6332" style="stop-color:#120D01"/>
		<stop  offset="0.679" style="stop-color:#000000"/>
		<stop  offset="0.6818" style="stop-color:#000000"/>
	</linearGradient>
	<path opacity="0.8" fill="url(#SVGID_30_)" enable-background="new    " d="M40.467,63.953c0,0,8.979-6.244,15.534,0.981
		C56.001,64.934,50.377,59.928,40.467,63.953z"/>
	
		<linearGradient id="SVGID_31_" gradientUnits="userSpaceOnUse" x1="-63.0733" y1="18.2702" x2="-33.447" y2="13.773" gradientTransform="matrix(1 0 0 -1 102.34 88.373)">
		<stop  offset="0.1099" style="stop-color:#FFFFFF"/>
		<stop  offset="0.222" style="stop-color:#FDFDFD"/>
		<stop  offset="0.2986" style="stop-color:#F0EFEF"/>
		<stop  offset="0.3647" style="stop-color:#D8D5D5"/>
		<stop  offset="0.4248" style="stop-color:#B8B0AE"/>
		<stop  offset="0.4809" style="stop-color:#928783"/>
		<stop  offset="0.534" style="stop-color:#68605A"/>
		<stop  offset="0.5847" style="stop-color:#423A31"/>
		<stop  offset="0.6332" style="stop-color:#120D01"/>
		<stop  offset="0.679" style="stop-color:#000000"/>
		<stop  offset="0.6818" style="stop-color:#000000"/>
	</linearGradient>
	<path opacity="0.8" fill="url(#SVGID_31_)" enable-background="new    " d="M61.471,72.366c0,0-7.638-4.954-14.191,1.083
		C47.28,73.449,53.422,69.012,61.471,72.366z"/>
	
		<linearGradient id="SVGID_32_" gradientUnits="userSpaceOnUse" x1="-58.7144" y1="0.8935" x2="-57.7185" y2="28.4398" gradientTransform="matrix(1 0 0 -1 102.34 88.373)">
		<stop  offset="0" style="stop-color:#F19A00"/>
		<stop  offset="0.4909" style="stop-color:#FEDA00"/>
	</linearGradient>
	<polygon fill="url(#SVGID_32_)" points="53.715,61.607 31.839,84.09 41.505,83.462 31.839,98.703 55.916,76.932 43.708,78.313 	"/>
	
		<linearGradient id="SVGID_33_" gradientUnits="userSpaceOnUse" x1="-58.6775" y1="-3.8508" x2="-58.6775" y2="16.2607" gradientTransform="matrix(1 0 0 -1 102.34 88.373)">
		<stop  offset="0" style="stop-color:#E34001"/>
		<stop  offset="0.4909" style="stop-color:#FEDA00"/>
	</linearGradient>
	<polygon fill="url(#SVGID_33_)" points="43.333,82.378 34.279,82.966 48.635,68.211 41.878,79.49 53.046,78.227 36.449,93.234 	"/>
	
		<linearGradient id="SVGID_34_" gradientUnits="userSpaceOnUse" x1="-31.169" y1="19.8611" x2="-43.4211" y2="19.5667" gradientTransform="matrix(1 0 0 -1 102.34 88.373)">
		<stop  offset="0.1099" style="stop-color:#FFFFFF"/>
		<stop  offset="0.222" style="stop-color:#FDFDFD"/>
		<stop  offset="0.2986" style="stop-color:#F0EFEF"/>
		<stop  offset="0.3647" style="stop-color:#D8D5D5"/>
		<stop  offset="0.4248" style="stop-color:#B8B0AE"/>
		<stop  offset="0.4809" style="stop-color:#928783"/>
		<stop  offset="0.534" style="stop-color:#68605A"/>
		<stop  offset="0.5847" style="stop-color:#423A31"/>
		<stop  offset="0.6332" style="stop-color:#120D01"/>
		<stop  offset="0.679" style="stop-color:#000000"/>
		<stop  offset="0.6818" style="stop-color:#000000"/>
	</linearGradient>
	<path opacity="0.8" fill="url(#SVGID_34_)" enable-background="new    " d="M61.464,69.323c0,0,4.328-3.328,10.22-0.03
		C71.683,69.293,66.852,67.173,61.464,69.323z"/>
	
		<linearGradient id="SVGID_35_" gradientUnits="userSpaceOnUse" x1="-69.683" y1="39.0451" x2="-68.6123" y2="19.4197" gradientTransform="matrix(1 0 0 -1 102.34 88.373)">
		<stop  offset="0" style="stop-color:#72C6EE"/>
		<stop  offset="0.9879" style="stop-color:#FFFFFF"/>
	</linearGradient>
	<polygon fill="url(#SVGID_35_)" points="32.856,62.3 32.856,60.968 31.77,62.055 31.333,61.615 32.856,60.096 32.856,58.104 
		31.053,59.145 30.631,61.144 30.027,61.018 30.335,59.558 29.222,60.2 28.912,59.664 30.068,58.999 28.586,58.601 28.745,58.004 
		30.824,58.563 32.488,57.604 30.824,56.645 28.745,57.204 28.585,56.605 30.068,56.207 28.799,55.478 29.107,54.942 30.335,55.649 
		30.026,54.191 30.631,54.063 31.053,56.063 32.856,57.103 32.856,55.088 31.333,53.723 31.745,53.263 32.856,54.258 32.856,52.842 
		33.473,52.842 33.473,54.304 34.558,53.219 34.995,53.656 33.473,55.177 33.473,57.036 35.161,56.063 35.586,54.063 36.189,54.191 
		35.88,55.649 37.108,54.942 37.416,55.478 36.149,56.207 37.631,56.605 37.471,57.204 35.391,56.645 33.726,57.604 35.391,58.563 
		37.469,58.004 37.631,58.601 36.149,58.999 37.302,59.664 36.995,60.2 35.88,59.558 36.189,61.018 35.585,61.144 35.161,59.145 
		33.473,58.17 33.473,60.186 34.995,61.551 34.583,62.011 33.473,61.014 33.473,62.3 	"/>
	
		<linearGradient id="SVGID_36_" gradientUnits="userSpaceOnUse" x1="-69.5655" y1="25.5145" x2="-68.9262" y2="13.7955" gradientTransform="matrix(1 0 0 -1 102.34 88.373)">
		<stop  offset="0" style="stop-color:#72C6EE"/>
		<stop  offset="0.9879" style="stop-color:#FFFFFF"/>
	</linearGradient>
	<polygon fill="url(#SVGID_36_)" points="32.894,70.604 32.894,69.809 32.246,70.458 31.985,70.195 32.894,69.289 32.894,68.1 
		31.818,68.719 31.566,69.914 31.205,69.838 31.389,68.967 30.724,69.35 30.539,69.031 31.229,68.633 30.343,68.395 30.44,68.039 
		31.681,68.373 32.675,67.801 31.681,67.228 30.44,67.561 30.343,67.204 31.229,66.967 30.472,66.529 30.656,66.211 31.389,66.633 
		31.204,65.762 31.566,65.686 31.818,66.881 32.894,67.5 32.894,66.297 31.985,65.481 32.231,65.207 32.894,65.803 32.894,64.957 
		33.261,64.957 33.261,65.83 33.911,65.184 34.173,65.443 33.261,66.352 33.261,67.462 34.271,66.881 34.525,65.686 34.886,65.762 
		34.7,66.633 35.434,66.211 35.617,66.529 34.86,66.967 35.745,67.204 35.649,67.561 34.407,67.228 33.415,67.801 34.407,68.373 
		35.649,68.039 35.745,68.395 34.86,68.633 35.551,69.031 35.366,69.35 34.7,68.967 34.886,69.838 34.524,69.914 34.271,68.719 
		33.261,68.138 33.261,69.342 34.173,70.156 33.925,70.432 33.261,69.836 33.261,70.604 	"/>
	
		<linearGradient id="SVGID_37_" gradientUnits="userSpaceOnUse" x1="-61.2173" y1="8.1238" x2="-65.1431" y2="-4.8126" gradientTransform="matrix(1 0 0 -1 102.34 88.373)">
		<stop  offset="0.0054" style="stop-color:#EBE9E9"/>
		<stop  offset="0.0551" style="stop-color:#C9C4C4"/>
		<stop  offset="0.1995" style="stop-color:#7C736E"/>
		<stop  offset="0.3441" style="stop-color:#4A4239"/>
		<stop  offset="0.4859" style="stop-color:#251F15"/>
		<stop  offset="0.6242" style="stop-color:#000000"/>
		<stop  offset="0.7582" style="stop-color:#000000"/>
		<stop  offset="0.8857" style="stop-color:#000000"/>
		<stop  offset="1" style="stop-color:#000000"/>
	</linearGradient>
	<polygon fill="url(#SVGID_37_)" points="45.983,81.148 36.928,81.736 49.679,67.695 35.322,82.449 44.377,81.861 37.49,92.719 	"/>
</g>
</svg>
