<?xml version="1.0" encoding="utf-8"?>
<!-- Generator: Adobe Illustrator 16.0.4, SVG Export Plug-In . SVG Version: 6.00 Build 0)  -->
<!DOCTYPE svg PUBLIC "-//W3C//DTD SVG 1.1//EN" "http://www.w3.org/Graphics/SVG/1.1/DTD/svg11.dtd">
<svg version="1.1" id="Layer_1" xmlns="http://www.w3.org/2000/svg" xmlns:xlink="http://www.w3.org/1999/xlink" x="0px" y="0px"
	 width="210px" height="170px" viewBox="-45 -35 210 170" enable-background="new -45 -35 210 170" xml:space="preserve">
<g>
	<g>
		<path fill="#F5841F" d="M-11.394,39.528c0,8.472,2.591,16.338,7.014,22.897c2.993-5.261,6.884-9.994,11.475-14.006
			c-1.08-2.763-1.692-5.75-1.692-8.889c0-13.693,11.305-24.843,25.201-24.843c3.175,0,6.207,0.603,9.01,1.671
			c4.715-4.192,10.005-7.64,15.721-10.246c-6.943-5.002-15.475-7.993-24.726-7.993C7.416-1.883-11.394,16.664-11.394,39.528z
			 M30.604-10.153c4.619,0,8.399-5.59,8.399-12.423S35.223-35,30.604-35c-4.621,0-8.401,5.588-8.401,12.424
			C22.202-15.745,25.982-10.153,30.604-10.153z M-19.799,39.54c0-4.556-5.67-8.281-12.601-8.281C-39.331,31.259-45,34.984-45,39.54
			c0,4.553,5.669,8.28,12.601,8.28C-25.474,47.822-19.799,44.093-19.799,39.54z M84.058-13.168
			c-3.266-3.223-9.95-1.907-14.848,2.926c-4.117,4.061-5.678,9.337-4.146,12.84C70.525,1.115,76.237,0.325,82.1,0.325
			C86.124-4.354,87.079-10.191,84.058-13.168z M-19.888,77.604c-4.901,4.833-6.236,11.414-2.97,14.634
			c2.588,2.557,7.317,2.221,11.605-0.415c-0.055-0.979-0.147-1.938-0.147-2.924c0-5.503,0.846-10.844,2.415-15.897
			C-12.344,72.68-16.524,74.29-19.888,77.604z M-5.038,4.396c3.268-3.221,1.933-9.806-2.969-14.638
			c-4.898-4.832-11.583-6.147-14.849-2.926c-3.267,3.222-1.932,9.804,2.971,14.637C-14.99,6.296-8.309,7.619-5.038,4.396z"/>
	</g>
</g>
<path fill="#787878" d="M134.72,59.892c-0.004-0.048-13.945-2.367-27.464,7.082c5.51-9.447,12.995-15.785,25.717-17.066
	c-5.92-21.398-25.686-37.156-49.272-37.156c-18.616,0-34.882,9.825-43.827,24.487c11.461,0.49,23.545,9.025,31.101,18.657
	c-7.15-5.455-16.109-8.74-25.855-8.74c-3.529,0-6.938,0.474-10.215,1.282c-0.007-0.091-0.038-0.173-0.046-0.271
	c-0.036,0.102-0.075,0.195-0.108,0.298C16.39,53.034,2.771,69.376,2.771,88.903c0,23.048,18.96,41.746,42.346,41.746h83.745
	c19.959,0,36.139-15.955,36.139-35.63C165.007,77.298,151.885,62.647,134.72,59.892z"/>
</svg>
